<svg version="1.1" id="Layer_1" xmlns="http://www.w3.org/2000/svg" xmlns:xlink="http://www.w3.org/1999/xlink" x="0px" y="0px"
	 width="100%" viewBox="0 0 1024 1024" enable-background="new 0 0 1024 1024" xml:space="preserve">
<path fill="#000000" opacity="1.000000" stroke="none" 
	d="
M849.971863,418.968048 
	C852.273682,422.829285 851.351990,427.070679 849.931152,430.561432 
	C847.943970,435.443909 842.903503,433.760132 838.930054,433.674438 
	C835.556091,433.601654 834.403015,431.368866 834.668762,428.226501 
	C834.696716,427.895935 834.674927,427.560883 834.671997,427.227966 
	C834.607361,419.835510 830.501038,416.949036 823.363770,419.190125 
	C820.427490,420.112091 820.506531,422.549622 820.325012,424.840942 
	C819.638611,433.503113 819.046021,433.982941 810.564819,434.058472 
	C806.456238,434.095001 804.705200,432.326721 805.111206,428.302795 
	C805.261536,426.813538 805.406921,425.323303 805.589111,423.837738 
	C805.985291,420.608093 804.546204,419.473846 801.336792,419.326599 
	C790.701843,418.838776 790.726257,418.738403 790.766113,408.108307 
	C790.816040,394.790527 790.888245,381.472321 790.822937,368.154907 
	C790.803162,364.128693 791.468079,361.461609 796.521301,361.615601 
	C804.104187,361.846619 806.250366,362.965912 806.266602,368.275085 
	C806.311340,382.924713 806.234863,397.574646 806.260498,412.224396 
	C806.270386,417.875122 806.344910,417.643555 814.958313,417.940948 
	C819.477539,418.096954 819.679382,415.761566 819.671814,412.377930 
	C819.640259,398.228363 819.772522,384.078491 819.807007,369.928650 
	C819.823669,363.085571 820.736206,361.852173 826.149292,361.707764 
	C833.992310,361.498535 836.068237,362.997223 836.036682,369.975647 
	C835.975830,383.450073 835.526123,396.922302 835.328674,410.396759 
	C835.224426,417.508575 835.313782,417.467316 842.297302,417.937073 
	C844.615295,418.092987 846.914490,418.529266 849.614258,418.918518 
	C850.006287,418.999664 849.971863,418.968048 849.971863,418.968048 
z"/>
<path fill="#000000" opacity="1.000000" stroke="none" 
	d="
M821.054016,517.545715 
	C819.757629,522.433655 816.006042,521.065613 813.103394,521.206604 
	C804.888489,521.605774 804.882812,521.505493 804.879211,513.175293 
	C804.871033,494.358643 804.864197,475.541992 804.855896,456.725342 
	C804.853210,450.602783 805.346497,450.086884 811.255737,450.052094 
	C820.281189,449.999023 820.902344,450.591125 821.009399,459.476074 
	C821.061584,463.804871 821.129150,468.134491 821.092041,472.462891 
	C821.065552,475.550903 822.172974,477.200348 825.555298,476.717834 
	C827.027893,476.507782 828.554321,476.515167 830.043518,476.614563 
	C832.887085,476.804352 833.948486,475.377686 833.929749,472.736267 
	C833.891968,467.409882 834.039978,462.077362 833.827820,456.758636 
	C833.650085,452.302063 835.355896,450.161041 839.948059,450.620667 
	C840.931641,450.719116 841.948242,450.605835 842.938965,450.494965 
	C847.585083,449.975006 849.770020,451.723846 849.365967,456.684448 
	C849.042664,460.654572 849.306458,464.672089 849.299622,468.668549 
	C849.285034,477.162872 848.626038,477.867859 839.957092,478.292633 
	C837.134705,478.430908 834.465393,477.970825 833.857300,482.217255 
	C832.791321,489.661346 833.986450,491.451813 841.598694,491.733704 
	C848.792786,492.000092 849.169250,492.459076 849.330078,499.556183 
	C849.439270,504.373596 850.083069,509.192566 849.965515,513.998108 
	C849.805054,520.560364 842.445923,524.491455 836.619019,521.450806 
	C834.975159,520.592957 834.879822,519.177979 834.803040,517.665283 
	C834.473938,511.188965 833.830566,504.708191 833.921387,498.237762 
	C833.987976,493.491333 832.077759,492.166382 827.662598,492.311798 
	C823.295227,492.455658 820.745361,493.487640 821.033997,498.614258 
	C821.379761,504.755341 821.103210,510.931458 821.054016,517.545715 
z"/>
<path fill="#000000" opacity="1.000000" stroke="none" 
	d="
M820.177734,767.030518 
	C820.182190,772.020996 819.967957,776.531067 820.258240,781.008362 
	C820.545837,785.446533 818.516479,787.077393 814.407593,786.941650 
	C813.077148,786.897644 811.743103,786.908813 810.412170,786.946106 
	C806.750793,787.048523 804.880493,785.513306 804.907410,781.624329 
	C805.013489,766.306396 805.040588,750.987549 805.008728,735.669250 
	C804.999634,731.319275 806.635376,729.108093 811.286621,729.674561 
	C812.734741,729.850891 814.252014,729.374878 815.742737,729.302063 
	C819.511780,729.117859 820.762085,727.200195 820.702698,723.459106 
	C820.593140,716.562744 826.738037,713.008362 832.890320,716.159363 
	C834.983521,717.231506 835.110046,719.237854 835.269104,721.293274 
	C835.907532,729.547241 835.937927,729.544922 843.777344,729.731750 
	C849.550415,729.869385 850.259644,730.564819 850.273010,736.535645 
	C850.306213,751.354736 850.141052,766.176575 850.394775,780.991516 
	C850.471741,785.486389 848.568787,786.969482 844.560791,786.934326 
	C843.229126,786.922668 841.891113,786.879150 840.566284,786.982727 
	C836.371765,787.310547 834.551208,785.673218 834.701050,781.223816 
	C834.969727,773.245972 834.776794,765.252625 834.776794,756.007324 
	C832.209900,761.855103 827.938171,761.775391 823.977295,760.810730 
	C818.209045,759.405884 821.781921,753.533081 819.436035,750.226990 
	C819.173889,755.714417 820.826355,761.086243 820.177734,767.030518 
M829.299072,743.818848 
	C831.143005,743.556519 833.448364,744.558472 834.504089,742.076660 
	C836.658691,737.011719 832.695862,731.017944 827.267212,731.074402 
	C820.819275,731.141541 820.691101,731.684937 820.230713,738.290649 
	C819.841003,743.881592 822.835083,744.218811 826.908936,743.838135 
	C827.400574,743.792236 827.899902,743.827759 829.299072,743.818848 
z"/>
<path fill="#000000" opacity="1.000000" stroke="none" 
	d="
M844.377197,641.571899 
	C849.330933,641.127625 850.465088,643.480225 850.422607,647.588440 
	C850.266052,662.738342 850.254700,677.891479 850.394775,693.041565 
	C850.430786,696.932800 849.041748,698.378113 845.160217,698.329224 
	C833.009338,698.176270 834.982178,698.990601 834.749939,688.375305 
	C834.440552,674.240356 835.509033,660.083801 833.962646,645.962463 
	C833.651001,643.116699 833.224792,640.932190 829.731506,641.367615 
	C826.282898,641.797546 821.554260,639.509583 820.572021,645.414978 
	C820.301147,647.043640 820.325989,648.732117 820.323975,650.393250 
	C820.306702,664.379211 820.192810,678.366882 820.386902,692.350159 
	C820.447754,696.738342 818.698547,698.459534 814.513428,698.244263 
	C812.853271,698.158813 811.183289,698.201416 809.519836,698.252258 
	C806.432922,698.346497 804.864685,696.954468 804.888062,693.795532 
	C805.001404,678.479126 805.121826,663.162598 805.171021,647.845886 
	C805.185608,643.311523 807.021301,641.484619 811.806641,641.549927 
	C819.055847,641.648804 819.599976,640.768555 819.869751,633.549988 
	C820.084900,627.794006 821.428284,626.600220 827.670654,626.617859 
	C833.513123,626.634277 834.956360,627.926880 835.215942,633.375610 
	C835.558411,640.563538 835.558411,640.563538 844.377197,641.571899 
z"/>
<path fill="#000000" opacity="1.000000" stroke="none" 
	d="
M830.375732,609.942993 
	C820.964783,610.571838 820.466309,610.349304 820.746277,601.267761 
	C820.893372,596.494568 818.854309,595.286438 814.639221,595.026855 
	C804.858459,594.424500 804.856018,594.289368 804.900391,584.229797 
	C804.936401,576.068176 805.052063,567.906616 805.033875,559.745239 
	C805.024536,555.568604 806.291870,553.352783 811.132507,553.497559 
	C818.805664,553.726990 818.986694,553.394592 819.891785,545.537537 
	C820.405945,541.073853 822.049683,538.538269 827.081909,538.691467 
	C833.309265,538.880920 834.530273,539.582336 835.493652,545.285522 
	C836.893616,553.573303 836.899719,553.748047 845.296692,553.453613 
	C849.220154,553.315979 851.112427,554.856384 850.821045,558.564453 
	C850.022827,568.723145 850.199890,578.862366 851.101379,588.989441 
	C851.461975,593.041321 849.778076,594.930359 845.826050,595.045593 
	C845.161133,595.065002 844.498413,595.156067 843.833984,595.203247 
	C835.867310,595.769226 835.818481,595.763611 834.987122,603.764099 
	C834.689148,606.631775 833.896973,608.986816 830.375732,609.942993 
M832.266235,552.187988 
	C823.988159,549.289429 820.952393,550.888000 820.532288,559.402771 
	C820.048706,569.203613 820.459961,579.045227 820.225037,588.862976 
	C820.085938,594.675781 823.862671,594.351990 827.871704,594.739441 
	C832.497070,595.186462 834.367493,593.209167 834.466187,588.937500 
	C834.577698,584.117737 834.636780,579.296143 834.665161,574.475037 
	C834.708008,567.181152 834.769653,559.881531 832.266235,552.187988 
z"/>
<path fill="#000000" opacity="1.000000" stroke="none" 
	d="
M263.571838,706.663208 
	C264.804871,716.879395 264.905029,726.698059 264.838684,736.515625 
	C264.735199,751.833557 264.430206,767.150513 264.384277,782.468384 
	C264.356781,791.650879 272.230530,799.927063 281.507721,800.819397 
	C299.130890,802.514343 316.801422,801.230408 334.444641,801.659119 
	C336.397644,801.706665 338.428375,801.197205 340.608398,802.357178 
	C338.955750,804.100281 336.924377,803.857544 335.089020,803.846619 
	C317.436951,803.741699 299.781921,804.448608 282.131836,803.423889 
	C270.620605,802.755554 261.719208,793.489624 261.743652,781.873840 
	C261.791656,759.050110 261.965210,736.224792 261.724701,713.403931 
	C261.669342,708.155334 260.608795,702.794495 259.192657,697.713379 
	C257.320129,690.994568 248.572815,685.318420 240.938919,685.306396 
	C215.615280,685.266541 190.291336,685.370178 164.967896,685.291199 
	C152.604813,685.252686 142.613983,674.721069 142.639709,662.206177 
	C142.685577,639.881104 142.642471,617.555847 142.667770,595.230713 
	C142.681808,582.842346 153.452759,571.889404 165.932739,571.833984 
	C190.589966,571.724426 215.247986,571.754944 239.905579,571.793091 
	C246.604584,571.803406 252.347824,569.748291 256.770721,564.595459 
	C258.972931,562.029785 260.362518,559.197327 260.546570,555.610046 
	C260.935272,548.034790 262.709595,540.556213 262.031372,532.887573 
	C261.859833,530.947998 262.196686,528.931580 263.389252,526.905701 
	C264.442993,528.314026 264.070129,529.800842 264.170441,531.149780 
	C264.766235,539.159851 263.863464,547.131531 263.164886,555.075317 
	C262.184265,566.226562 252.894836,574.367615 241.507797,574.394470 
	C217.183487,574.451721 192.858887,574.381714 168.534439,574.397766 
	C154.649429,574.406982 145.294266,583.597595 145.242432,597.454712 
	C145.162674,618.779968 145.589203,640.114441 145.074097,661.427429 
	C144.829803,671.534607 154.321548,683.619629 167.069717,682.736267 
	C190.670670,681.100952 214.360672,682.092102 238.011688,681.953857 
	C253.298080,681.864441 262.705078,691.182251 263.571838,706.663208 
z"/>
<path fill="#000000" opacity="1.000000" stroke="none" 
	d="
M850.024658,419.014160 
	C848.219055,415.408142 848.756409,411.494507 849.001465,407.742920 
	C849.858398,394.624207 849.634399,381.498657 849.692261,368.372284 
	C849.717346,362.673065 850.909790,361.725189 857.566284,361.700592 
	C864.298828,361.675720 865.306763,362.457764 865.327637,368.360382 
	C865.380554,383.320038 865.243286,398.281067 865.406006,413.239105 
	C865.447266,417.029053 864.156250,418.845703 860.353821,418.868439 
	C857.201721,418.887268 854.050232,419.011749 850.435181,419.028748 
	C849.971863,418.968048 850.006287,418.999664 850.024658,419.014160 
z"/>
<path fill="#000000" opacity="1.000000" stroke="none" 
	d="
M487.830200,446.712646 
	C481.551971,454.045898 473.711823,457.049255 464.603821,457.049164 
	C404.805145,457.048553 345.006470,457.019043 285.207794,457.014648 
	C271.713379,457.013672 264.458710,464.368591 264.273621,478.001160 
	C264.195190,483.774475 264.675781,489.585815 263.660370,495.446136 
	C261.555450,494.825104 262.026031,493.236176 262.003021,492.072113 
	C261.878021,485.745300 261.675873,479.409851 261.874939,473.089203 
	C262.173706,463.602966 273.562927,454.422638 281.486847,454.469147 
	C342.116211,454.824860 402.748688,454.640747 463.380219,454.646606 
	C471.220062,454.647369 478.034760,452.097931 483.771576,446.753174 
	C488.747559,442.117249 490.519165,436.041290 490.556732,429.583466 
	C490.707825,403.599762 491.505920,377.573273 490.286224,351.646271 
	C489.595123,336.955505 482.730072,329.757751 468.226837,328.895477 
	C464.463379,328.671692 460.710297,328.273376 457.001648,327.526550 
	C465.407837,326.427856 473.822632,325.600372 481.633942,329.944946 
	C489.639069,334.397339 492.755646,342.378479 492.924194,350.512054 
	C493.483063,377.482300 493.203186,404.473572 492.948029,431.453979 
	C492.897919,436.751282 491.481049,442.022552 487.830200,446.712646 
z"/>
<path fill="#000000" opacity="1.000000" stroke="none" 
	d="
M554.999878,447.356934 
	C539.510071,447.359375 524.520325,447.352997 509.530518,447.364075 
	C492.906403,447.376373 483.419586,456.762177 483.385895,473.352081 
	C483.337189,497.335632 482.902252,521.332825 483.599518,545.296082 
	C483.863983,554.384277 474.433807,565.728455 462.982086,566.685181 
	C458.005951,567.100769 452.841339,567.130066 447.371185,565.595215 
	C452.894623,562.884888 458.328857,564.978271 463.518768,563.850769 
	C474.319092,561.504639 480.768829,554.358398 480.797821,543.391479 
	C480.859039,520.240967 480.773712,497.089996 480.750824,473.939240 
	C480.732178,455.083282 490.837982,444.756805 509.674896,444.691650 
	C530.826599,444.618500 551.978943,444.746765 573.131042,444.792603 
	C585.028320,444.818390 585.028320,444.823090 594.649841,440.710175 
	C591.907654,445.608154 588.419312,447.113586 578.484192,447.294250 
	C570.824951,447.433594 563.161499,447.343750 554.999878,447.356934 
z"/>
<path fill="#000000" opacity="1.000000" stroke="none" 
	d="
M254.809479,578.143372 
	C261.887878,566.046509 268.623901,562.839417 282.031860,566.148621 
	C279.873657,567.705505 277.693512,567.176086 275.678680,567.188843 
	C264.719025,567.257996 255.152222,576.305481 255.098404,587.174194 
	C254.961578,614.808960 254.926575,642.445007 255.036514,670.079773 
	C255.081146,681.297119 265.992188,691.511536 277.815765,691.604614 
	C294.462646,691.735535 311.110992,691.671814 327.758728,691.690491 
	C330.149292,691.693115 332.539825,691.690857 334.933685,692.240051 
	C332.363556,694.033569 329.561462,694.035278 326.784973,694.042236 
	C310.969788,694.081848 295.148926,693.832764 279.340790,694.177368 
	C262.778931,694.538452 252.044281,680.362732 252.417618,667.079834 
	C253.146988,641.129700 252.654053,615.144592 252.615936,589.174072 
	C252.610489,585.458740 253.045044,581.880188 254.809479,578.143372 
z"/>
<path fill="#000000" opacity="1.000000" stroke="none" 
	d="
M142.663208,240.184448 
	C142.983383,227.703964 153.052261,216.463928 162.584183,218.577515 
	C157.560867,220.316544 153.777176,222.768723 150.586899,226.199249 
	C147.128433,229.918152 145.192780,234.148010 145.191010,239.230698 
	C145.183182,261.712189 145.096207,284.194183 145.221146,306.674957 
	C145.276276,316.593750 152.908844,324.600128 164.973282,327.437897 
	C161.826340,328.881134 159.231079,328.992584 156.756912,327.437103 
	C148.341019,322.146240 142.344513,315.647369 142.545868,304.604309 
	C142.934418,283.295471 142.660873,261.974579 142.663208,240.184448 
z"/>
<path fill="#000000" opacity="1.000000" stroke="none" 
	d="
M479.076721,229.198120 
	C475.508850,224.228317 470.623383,221.439072 465.666046,218.591125 
	C467.175964,217.241028 468.461670,217.644257 469.714172,218.079346 
	C477.314087,220.719269 483.300415,229.031860 483.329712,237.044449 
	C483.371735,248.537857 483.404694,260.031525 483.357025,271.524750 
	C483.349182,273.416443 483.831665,275.456879 482.327606,277.534637 
	C480.729462,275.121826 480.907623,272.622864 480.899872,270.208130 
	C480.865692,259.547607 480.886383,248.886902 480.884521,238.226257 
	C480.884003,235.225342 480.993317,232.202713 479.076721,229.198120 
z"/>
<path fill="#000000" opacity="1.000000" stroke="none" 
	d="
M495.725494,335.431732 
	C483.871765,329.501587 478.211060,316.729156 482.924072,304.592529 
	C483.590302,318.554962 486.259857,330.238556 500.458008,334.761139 
	C498.763824,337.082397 497.390442,335.811615 495.725494,335.431732 
z"/>
<path fill="#000000" opacity="1.000000" stroke="none" 
	d="
M596.115784,345.926636 
	C592.456543,340.617401 586.919495,338.717499 581.321472,336.374939 
	C589.647339,333.133148 602.095337,344.730438 601.472229,355.537750 
	C599.499268,351.961639 597.914368,349.088928 596.115784,345.926636 
z"/>
<path fill="#000000" opacity="1.000000" stroke="none" 
	d="
M661.998535,323.039551 
	C659.152405,320.163361 656.052979,317.836365 656.414917,313.357788 
	C660.136780,320.106110 666.314270,323.951050 672.775452,327.540619 
	C668.174927,328.490326 665.286072,325.732605 661.998535,323.039551 
z"/>
<path fill="#000000" opacity="1.000000" stroke="none" 
	d="
M775.672974,790.643799 
	C780.853577,793.918457 784.290771,799.353760 791.055664,801.335144 
	C785.915283,802.675598 778.646912,797.365723 775.672974,790.643799 
z"/>
<path fill="#000000" opacity="1.000000" stroke="none" 
	d="
M660.573486,226.991745 
	C659.961609,227.462540 659.561890,227.727615 659.089478,228.040939 
	C660.130859,222.852570 665.600342,218.672028 672.014709,218.377853 
	C668.008911,221.232956 663.944763,223.427383 660.573486,226.991745 
z"/>
<path fill="#000000" opacity="1.000000" stroke="none" 
	d="
M879.594727,796.156189 
	C876.790344,799.193359 874.367371,802.322571 868.901062,802.025513 
	C873.101440,798.989990 876.551147,796.496948 880.007446,793.999146 
	C880.677246,794.934082 880.093872,795.399170 879.594727,796.156189 
z"/>
<path fill="#000000" opacity="1.000000" stroke="none" 
	d="
M819.469238,801.791077 
	C825.058533,801.822815 830.215881,801.857300 835.372864,801.923706 
	C835.838623,801.929688 836.301758,802.140686 836.757935,802.813354 
	C829.638245,802.813354 822.518555,802.813354 815.255981,802.813354 
	C816.265442,801.187317 817.837219,802.184082 819.469238,801.791077 
z"/>
</svg>