<?xml version="1.0" encoding="UTF-8"?>
<!DOCTYPE svg PUBLIC "-//W3C//DTD SVG 1.1//EN" "http://www.w3.org/Graphics/SVG/1.1/DTD/svg11.dtd">
<svg xmlns="http://www.w3.org/2000/svg" version="1.1" width="4320px" height="4320px" style="shape-rendering:geometricPrecision; text-rendering:geometricPrecision; image-rendering:optimizeQuality; fill-rule:evenodd; clip-rule:evenodd" xmlns:xlink="http://www.w3.org/1999/xlink">
<g><path style="opacity:1" fill="#000000" d="M -0.5,-0.5 C 1439.5,-0.5 2879.5,-0.5 4319.5,-0.5C 4319.5,1439.5 4319.5,2879.5 4319.5,4319.5C 2879.5,4319.5 1439.5,4319.5 -0.5,4319.5C -0.5,2879.5 -0.5,1439.5 -0.5,-0.5 Z"/></g>
<g><path style="opacity:1" fill="#b1aca7" d="M 1956.5,921.5 C 1523.5,921.333 1090.5,921.5 657.5,922C 653.46,924.23 649.127,925.396 644.5,925.5C 648.265,923.711 652.265,922.211 656.5,921C 1090,920.167 1523.33,920.334 1956.5,921.5 Z"/></g>
<g><path style="opacity:1" fill="#bab6b0" d="M 3152.5,921.5 C 3044.82,921.184 2937.16,921.517 2829.5,922.5C 2830.95,921.698 2832.62,921.198 2834.5,921C 2940.67,920.167 3046.67,920.334 3152.5,921.5 Z"/></g>
<g><path style="opacity:1" fill="#fefefe" d="M 1956.5,921.5 C 1979.62,931.033 1998.79,946.033 2014,966.5C 2015.41,969.661 2017.08,972.661 2019,975.5C 2019.39,979.069 2020.39,982.403 2022,985.5C 2022.5,1040.5 2022.67,1095.5 2022.5,1150.5C 2021.74,1209.33 2021.74,1268 2022.5,1326.5C 2023.24,1332.63 2024.24,1338.63 2025.5,1344.5C 2025.57,1347.43 2026.23,1350.09 2027.5,1352.5C 2030.32,1356.63 2031.99,1361.29 2032.5,1366.5C 2033.1,1370.65 2034.27,1374.65 2036,1378.5C 2036.33,1378.17 2036.67,1377.83 2037,1377.5C 2038.12,1378.95 2038.78,1380.62 2039,1382.5C 2040.11,1383.31 2041.28,1383.97 2042.5,1384.5C 2047.36,1389.52 2052.02,1394.69 2056.5,1400C 2064.01,1406.09 2072.34,1410.59 2081.5,1413.5C 2083.51,1414.92 2085.85,1415.59 2088.5,1415.5C 2091.76,1416.75 2095.1,1417.75 2098.5,1418.5C 2098.61,1419.12 2098.94,1419.62 2099.5,1420C 2216.18,1420.18 2332.84,1420.68 2449.5,1421.5C 2451.91,1422.77 2454.57,1423.43 2457.5,1423.5C 2458.9,1425.38 2460.9,1426.38 2463.5,1426.5C 2465.77,1427.32 2468.11,1427.99 2470.5,1428.5C 2470.97,1429.91 2471.97,1430.57 2473.5,1430.5C 2475.46,1431.49 2477.46,1432.49 2479.5,1433.5C 2496.7,1442.36 2509.03,1455.7 2516.5,1473.5C 2516.43,1475.03 2517.09,1476.03 2518.5,1476.5C 2519.31,1478.94 2520.31,1481.28 2521.5,1483.5C 2521.26,1485.9 2521.93,1487.9 2523.5,1489.5C 2523.63,1491.22 2523.96,1492.88 2524.5,1494.5C 2524.26,1496.9 2524.93,1498.9 2526.5,1500.5C 2527.82,1601.77 2527.82,1703.11 2526.5,1804.5C 2524.96,1806.84 2524.29,1809.5 2524.5,1812.5C 2523.56,1820.01 2521.56,1827.34 2518.5,1834.5C 2517.09,1834.97 2516.43,1835.97 2516.5,1837.5C 2514.81,1839.9 2513.47,1842.56 2512.5,1845.5C 2502.06,1862.44 2487.73,1874.94 2469.5,1883C 2460.32,1885.46 2450.99,1886.63 2441.5,1886.5C 2331.17,1886.33 2220.83,1886.5 2110.5,1887C 2109.94,1887.38 2109.61,1887.88 2109.5,1888.5C 2108.83,1888.5 2108.5,1888.83 2108.5,1889.5C 2104.12,1890.38 2099.78,1891.38 2095.5,1892.5C 2092.85,1892.41 2090.51,1893.08 2088.5,1894.5C 2075.86,1899.47 2064.19,1906.14 2053.5,1914.5C 2052.09,1914.97 2051.43,1915.97 2051.5,1917.5C 2046.22,1922.06 2041.89,1927.39 2038.5,1933.5C 2036.75,1935.03 2035.75,1937.03 2035.5,1939.5C 2034.09,1939.97 2033.43,1940.97 2033.5,1942.5C 2031.98,1945.72 2030.65,1949.05 2029.5,1952.5C 2027.93,1954.1 2027.26,1956.1 2027.5,1958.5C 2024.45,1965.12 2022.78,1972.12 2022.5,1979.5C 2021.78,1979.92 2021.28,1980.58 2021,1981.5C 2020.5,2039.17 2020.33,2096.83 2020.5,2154.5C 2021.77,2209.17 2021.77,2263.83 2020.5,2318.5C 2019.9,2322.87 2019.23,2327.2 2018.5,2331.5C 2016.69,2335.06 2015.02,2338.73 2013.5,2342.5C 2000.98,2363.7 1983.31,2378.7 1960.5,2387.5C 1957.65,2387.55 1955.32,2388.55 1953.5,2390.5C 1945.59,2390.8 1937.92,2392.3 1930.5,2395C 1674.17,2395.5 1417.83,2395.67 1161.5,2395.5C 1149.64,2395.4 1137.97,2396.07 1126.5,2397.5C 1122.96,2397.19 1119.62,2397.52 1116.5,2398.5C 1113.08,2398.53 1110.08,2399.53 1107.5,2401.5C 1107.16,2402.34 1106.49,2402.67 1105.5,2402.5C 1102.71,2402.62 1100.71,2403.96 1099.5,2406.5C 1094.75,2408.88 1090.75,2412.22 1087.5,2416.5C 1084.91,2417.42 1082.91,2419.09 1081.5,2421.5C 1079.41,2422.58 1078.08,2424.25 1077.5,2426.5C 1076.17,2427.17 1075.17,2428.17 1074.5,2429.5C 1073.09,2429.97 1072.43,2430.97 1072.5,2432.5C 1066.51,2438.45 1062.18,2445.45 1059.5,2453.5C 1057.42,2456.05 1056.08,2459.05 1055.5,2462.5C 1055.17,2463.83 1054.83,2465.17 1054.5,2466.5C 1053.08,2468.51 1052.41,2470.85 1052.5,2473.5C 1051.78,2473.92 1051.28,2474.58 1051,2475.5C 1050.33,2599.5 1050.33,2723.5 1051,2847.5C 1051.19,2849.71 1051.69,2851.71 1052.5,2853.5C 1053.72,2855.28 1054.39,2857.28 1054.5,2859.5C 1054.12,2861.7 1054.79,2863.36 1056.5,2864.5C 1056.5,2864.83 1056.5,2865.17 1056.5,2865.5C 1056.59,2869.68 1058.26,2873.02 1061.5,2875.5C 1069.66,2890.64 1080.33,2903.81 1093.5,2915C 1097.5,2917.67 1101.5,2920.33 1105.5,2923C 1106.45,2923.48 1107.45,2923.65 1108.5,2923.5C 1109.29,2925.1 1110.62,2925.77 1112.5,2925.5C 1114.1,2927.07 1116.1,2927.74 1118.5,2927.5C 1121.01,2927.93 1123.34,2928.59 1125.5,2929.5C 1129.1,2930.78 1132.77,2931.78 1136.5,2932.5C 1155,2933.33 1173.66,2933.83 1192.5,2934C 1250.5,2934.5 1308.5,2934.67 1366.5,2934.5C 1583.41,2934.52 1800.24,2934.52 2017,2934.5C 2019.46,2935.22 2021.96,2935.88 2024.5,2936.5C 2041.68,2935.89 2059.01,2935.23 2076.5,2934.5C 2136.39,2935.7 2195.22,2935.7 2253,2934.5C 2258.38,2935.12 2263.71,2935.79 2269,2936.5C 2303.04,2935.52 2338.71,2935.52 2376,2936.5C 2377.07,2935.81 2378.23,2935.31 2379.5,2935C 2388.49,2934.5 2397.49,2934.33 2406.5,2934.5C 2425.83,2935.78 2445.17,2937.12 2464.5,2938.5C 2474.14,2941.15 2482.8,2945.65 2490.5,2952C 2503.39,2963.95 2513.72,2977.78 2521.5,2993.5C 2521.26,2995.9 2521.93,2997.9 2523.5,2999.5C 2526.27,3006.5 2528.1,3013.83 2529,3021.5C 2529.5,3114.5 2529.67,3207.5 2529.5,3300.5C 2528.01,3308.35 2526.68,3316.35 2525.5,3324.5C 2522.63,3334.12 2518.96,3343.45 2514.5,3352.5C 2512.84,3355.12 2511.17,3357.79 2509.5,3360.5C 2499.33,3376.17 2485.66,3387.67 2468.5,3395C 2459.76,3396.68 2451.09,3397.85 2442.5,3398.5C 2025.17,3398.32 1607.83,3398.65 1190.5,3399.5C 1189.5,3399.5 1188.5,3399.5 1187.5,3399.5C 1178.72,3397.9 1169.72,3397.24 1160.5,3397.5C 1160.17,3397.5 1159.83,3397.5 1159.5,3397.5C 1157.49,3396.08 1155.15,3395.41 1152.5,3395.5C 1149.92,3395.61 1147.59,3394.94 1145.5,3393.5C 1145.03,3392.09 1144.03,3391.43 1142.5,3391.5C 1124.63,3382.96 1110.96,3369.96 1101.5,3352.5C 1101.57,3350.97 1100.91,3349.97 1099.5,3349.5C 1095.85,3342.56 1093.18,3335.22 1091.5,3327.5C 1091.66,3320.94 1091,3314.61 1089.5,3308.5C 1089.83,3203.16 1089.5,3097.83 1088.5,2992.5C 1087.61,2987.19 1086.95,2981.85 1086.5,2976.5C 1086.34,2972.16 1085.34,2968.16 1083.5,2964.5C 1083.5,2964.17 1083.5,2963.83 1083.5,2963.5C 1083.47,2960.08 1082.47,2957.08 1080.5,2954.5C 1077.72,2949.02 1075.22,2943.35 1073,2937.5C 1069.66,2933.33 1066.16,2929.33 1062.5,2925.5C 1061.83,2922.83 1060.17,2921.17 1057.5,2920.5C 1048.13,2913.48 1038.13,2907.48 1027.5,2902.5C 1025.97,2900.75 1023.97,2899.75 1021.5,2899.5C 1017.2,2897.25 1012.53,2895.92 1007.5,2895.5C 1006.83,2895.5 1006.17,2895.5 1005.5,2895.5C 890.667,2894.95 775.667,2894.95 660.5,2895.5C 657.482,2895.66 654.482,2895.5 651.5,2895C 639.044,2891.28 628.377,2884.78 619.5,2875.5C 618.415,2873.41 616.749,2872.08 614.5,2871.5C 603.629,2861.96 595.962,2850.29 591.5,2836.5C 590.537,2833.26 589.204,2830.26 587.5,2827.5C 587.326,2825.14 586.993,2822.81 586.5,2820.5C 586.333,2717.17 586.5,2613.83 587,2510.5C 588.266,2506.6 588.766,2502.6 588.5,2498.5C 589.562,2496.52 590.895,2494.68 592.5,2493C 591.748,2492.33 591.414,2491.5 591.5,2490.5C 593.509,2482.49 597.009,2475.16 602,2468.5C 608.719,2461.57 615.553,2454.74 622.5,2448C 627.134,2444.19 632.134,2441.02 637.5,2438.5C 639.967,2438.25 641.967,2437.25 643.5,2435.5C 650.146,2432.25 657.146,2429.75 664.5,2428C 780.511,2427.82 896.511,2427.32 1012.5,2426.5C 1017.12,2426.24 1021.46,2425.24 1025.5,2423.5C 1026.21,2422.6 1027.21,2422.26 1028.5,2422.5C 1030.97,2422.25 1032.97,2421.25 1034.5,2419.5C 1052.96,2411.04 1067.29,2398.04 1077.5,2380.5C 1080.88,2377.71 1082.55,2374.04 1082.5,2369.5C 1083.09,2366.87 1083.42,2364.21 1083.5,2361.5C 1084.12,2361.39 1084.62,2361.06 1085,2360.5C 1085.5,2357.85 1085.66,2355.19 1085.5,2352.5C 1086.58,2346.69 1087.24,2340.69 1087.5,2334.5C 1089.44,2230.86 1090.1,2127.2 1089.5,2023.5C 1090.85,2014.68 1091.85,2005.68 1092.5,1996.5C 1092.99,1994.19 1093.33,1991.86 1093.5,1989.5C 1093.83,1988.83 1094.17,1988.17 1094.5,1987.5C 1096.31,1984.86 1097.31,1981.86 1097.5,1978.5C 1101.46,1969.58 1107.13,1961.91 1114.5,1955.5C 1116.83,1953.7 1119.49,1952.53 1122.5,1952C 1125.51,1948.66 1128.84,1945.66 1132.5,1943C 1130.7,1942.68 1130.37,1942.02 1131.5,1941C 1132.85,1939.71 1134.19,1939.54 1135.5,1940.5C 1136.43,1939.31 1136.76,1937.98 1136.5,1936.5C 1138.18,1934.99 1140.18,1933.99 1142.5,1933.5C 1146.16,1933.28 1149.5,1932.28 1152.5,1930.5C 1152.83,1930.5 1153.17,1930.5 1153.5,1930.5C 1156.15,1930.59 1158.49,1929.92 1160.5,1928.5C 1163.17,1928.5 1165.83,1928.5 1168.5,1928.5C 1341.17,1928.88 1513.83,1929.21 1686.5,1929.5C 1779.84,1929.5 1872.84,1928.83 1965.5,1927.5C 1967.17,1927.5 1968.83,1927.5 1970.5,1927.5C 1974.16,1927.28 1977.5,1926.28 1980.5,1924.5C 1985.71,1923.15 1990.71,1921.32 1995.5,1919C 2002.37,1915.32 2009.37,1911.82 2016.5,1908.5C 2017.58,1908.46 2018.58,1908.13 2019.5,1907.5C 2020.19,1908.03 2020.69,1908.69 2021,1909.5C 2023.2,1908.09 2025.37,1906.59 2027.5,1905C 2028.23,1903.6 2028.73,1902.1 2029,1900.5C 2031.13,1898.91 2032.8,1896.91 2034,1894.5C 2034.32,1896.3 2034.98,1896.63 2036,1895.5C 2036.5,1893.48 2037,1891.48 2037.5,1889.5C 2041.26,1883.65 2045.26,1877.98 2049.5,1872.5C 2051.13,1872.18 2052.13,1871.18 2052.5,1869.5C 2053.17,1866.48 2053.84,1863.48 2054.5,1860.5C 2055.09,1856.15 2055.75,1851.81 2056.5,1847.5C 2058.28,1844.5 2059.28,1841.16 2059.5,1837.5C 2059.5,1834.5 2059.5,1831.5 2059.5,1828.5C 2060.29,1827.39 2060.79,1826.06 2061,1824.5C 2061.2,1725.16 2062.03,1625.82 2063.5,1526.5C 2063.67,1513.83 2063.5,1501.16 2063,1488.5C 2062.82,1485.64 2062.32,1482.97 2061.5,1480.5C 2060.45,1475.56 2059.62,1470.56 2059,1465.5C 2057.46,1461.11 2055.96,1456.78 2054.5,1452.5C 2054.45,1449.65 2053.45,1447.32 2051.5,1445.5C 2047.11,1436.52 2042.61,1427.52 2038,1418.5C 2034.3,1413.64 2030.14,1409.3 2025.5,1405.5C 2024.13,1403.54 2023.13,1401.37 2022.5,1399C 2021.26,1398.69 2020.26,1399.19 2019.5,1400.5C 2018.3,1400.15 2018.3,1399.65 2019.5,1399C 2017.13,1398.56 2014.8,1398.06 2012.5,1397.5C 2010.58,1396.64 2008.58,1395.97 2006.5,1395.5C 2004.6,1395.2 2002.93,1394.54 2001.5,1393.5C 2000.05,1392.18 2000.38,1391.34 2002.5,1391C 1998.23,1389.92 1993.9,1389.42 1989.5,1389.5C 1984.75,1387.86 1979.75,1386.86 1974.5,1386.5C 1882,1385.5 1789.33,1385.17 1696.5,1385.5C 1592.76,1384.83 1488.93,1384.17 1385,1383.5C 1322.23,1384.8 1259.07,1384.8 1195.5,1383.5C 1193.97,1383.99 1192.64,1384.66 1191.5,1385.5C 1021.17,1385.37 850.832,1385.7 680.5,1386.5C 670.187,1385.94 659.854,1384.61 649.5,1382.5C 649.167,1382.5 648.833,1382.5 648.5,1382.5C 646.967,1380.75 644.967,1379.75 642.5,1379.5C 635.431,1376.63 629.431,1372.3 624.5,1366.5C 622.761,1363.76 620.427,1361.76 617.5,1360.5C 607.596,1352.94 599.929,1343.6 594.5,1332.5C 593.916,1330 593.249,1327.5 592.5,1325C 592.164,1323.97 591.497,1323.47 590.5,1323.5C 588.715,1319.38 587.382,1315.04 586.5,1310.5C 585.333,1206.5 585.167,1102.5 586,998.5C 586.44,996.134 586.94,993.801 587.5,991.5C 588.924,989.485 589.59,987.152 589.5,984.5C 592.239,974.354 597.072,965.354 604,957.5C 614.692,945.131 626.859,934.631 640.5,926C 641.793,925.51 643.127,925.343 644.5,925.5C 649.127,925.396 653.46,924.23 657.5,922C 1090.5,921.5 1523.5,921.333 1956.5,921.5 Z"/></g>
<g><path style="opacity:1" fill="#fdfdfc" d="M 3152.5,921.5 C 3156.39,922.49 3160.39,923.49 3164.5,924.5C 3166.62,926.797 3169.29,928.13 3172.5,928.5C 3195.28,941.604 3211.61,960.271 3221.5,984.5C 3221.41,987.152 3222.08,989.485 3223.5,991.5C 3223.62,994.86 3223.95,998.193 3224.5,1001.5C 3225.63,1113.99 3226.63,1226.32 3227.5,1338.5C 3226.97,1348.95 3228.8,1358.95 3233,1368.5C 3239.68,1381.01 3248.18,1392.18 3258.5,1402C 3271.24,1411.54 3285.57,1417.04 3301.5,1418.5C 3301.61,1419.12 3301.94,1419.62 3302.5,1420C 3397.84,1420.2 3493.17,1420.7 3588.5,1421.5C 3609.81,1422.28 3631.15,1422.78 3652.5,1423C 3668.33,1426.39 3682.33,1433.39 3694.5,1444C 3709.6,1456.7 3720.94,1472.2 3728.5,1490.5C 3729.5,1794.5 3729.83,2098.5 3729.5,2402.5C 3728.67,2427 3728.17,2451.66 3728,2476.5C 3727.5,2557.5 3727.33,2638.5 3727.5,2719.5C 3727.5,2737.17 3727.5,2754.83 3727.5,2772.5C 3726.67,2785.33 3726.17,2798.33 3726,2811.5C 3725.33,2926.83 3725.33,3042.17 3726,3157.5C 3726.18,3161.69 3726.68,3165.69 3727.5,3169.5C 3727.77,3217.18 3727.43,3264.84 3726.5,3312.5C 3726.88,3330.12 3722.05,3346.12 3712,3360.5C 3705.9,3368.6 3699.07,3376.1 3691.5,3383C 3683.09,3388.74 3674.09,3393.24 3664.5,3396.5C 3645.89,3398.15 3627.23,3398.98 3608.5,3399C 3606.62,3399.2 3604.95,3399.7 3603.5,3400.5C 3517.15,3400.81 3430.82,3400.48 3344.5,3399.5C 3342.83,3399.5 3341.17,3399.5 3339.5,3399.5C 3339.08,3398.78 3338.42,3398.28 3337.5,3398C 3334.52,3397.5 3331.52,3397.34 3328.5,3397.5C 3317.38,3393.94 3307.05,3388.77 3297.5,3382C 3285.6,3370.77 3274.43,3358.94 3264,3346.5C 3261.63,3342.1 3260.13,3337.43 3259.5,3332.5C 3259.44,3326.15 3259.11,3319.82 3258.5,3313.5C 3258.91,3305.92 3258.24,3298.59 3256.5,3291.5C 3256.5,2760.17 3256.5,2228.83 3256.5,1697.5C 3258,1666.35 3258.67,1635.01 3258.5,1603.5C 3259.54,1556.51 3259.71,1509.51 3259,1462.5C 3254.01,1441.85 3243.84,1424.18 3228.5,1409.5C 3227.09,1407.09 3225.09,1405.42 3222.5,1404.5C 3213.43,1398.46 3203.76,1393.8 3193.5,1390.5C 3191.9,1388.93 3189.9,1388.26 3187.5,1388.5C 3183.17,1387.83 3178.83,1387.17 3174.5,1386.5C 3058.33,1385.76 2942,1385.1 2825.5,1384.5C 2821.93,1384.21 2818.93,1382.87 2816.5,1380.5C 2813.86,1378.69 2810.86,1377.69 2807.5,1377.5C 2807.03,1376.09 2806.03,1375.43 2804.5,1375.5C 2795,1369.57 2786,1362.91 2777.5,1355.5C 2776.92,1353.25 2775.59,1351.58 2773.5,1350.5C 2767.06,1342.28 2762.23,1333.28 2759,1323.5C 2756.91,1213.81 2757.08,1104.14 2759.5,994.5C 2760.3,988.923 2761.3,983.256 2762.5,977.5C 2765.26,972.155 2767.93,966.822 2770.5,961.5C 2773.23,956.596 2776.56,952.096 2780.5,948C 2789.17,941.333 2797.83,934.667 2806.5,928C 2813.71,924.433 2821.38,922.599 2829.5,922.5C 2937.16,921.517 3044.82,921.184 3152.5,921.5 Z"/></g>
<g><path style="opacity:1" fill="#adabac" d="M 3164.5,924.5 C 3167.55,925.208 3170.22,926.541 3172.5,928.5C 3169.29,928.13 3166.62,926.797 3164.5,924.5 Z"/></g>
<g><path style="opacity:1" fill="#b4babb" d="M 2770.5,961.5 C 2767.93,966.822 2765.26,972.155 2762.5,977.5C 2763.06,971.037 2765.73,965.704 2770.5,961.5 Z"/></g>
<g><path style="opacity:1" fill="#8f9591" d="M 589.5,984.5 C 589.59,987.152 588.924,989.485 587.5,991.5C 587.41,988.848 588.076,986.515 589.5,984.5 Z"/></g>
<g><path style="opacity:1" fill="#b2b3b6" d="M 2762.5,977.5 C 2761.3,983.256 2760.3,988.923 2759.5,994.5C 2759.33,990.486 2759.5,986.486 2760,982.5C 2760.1,980.347 2760.93,978.681 2762.5,977.5 Z"/></g>
<g><path style="opacity:1" fill="#7f7d78" d="M 3221.5,984.5 C 3222.92,986.515 3223.59,988.848 3223.5,991.5C 3222.08,989.485 3221.41,987.152 3221.5,984.5 Z"/></g>
<g><path style="opacity:1" fill="#817e7d" d="M 3224.5,1001.5 C 3225.31,1003.63 3225.81,1005.96 3226,1008.5C 3227,1118.5 3227.5,1228.5 3227.5,1338.5C 3226.63,1226.32 3225.63,1113.99 3224.5,1001.5 Z"/></g>
<g><path style="opacity:1" fill="#9d9998" d="M 2022.5,1150.5 C 2023.71,1209 2023.71,1267.67 2022.5,1326.5C 2021.74,1268 2021.74,1209.33 2022.5,1150.5 Z"/></g>
<g><path style="opacity:1" fill="#a5a6a7" d="M 590.5,1323.5 C 591.497,1323.47 592.164,1323.97 592.5,1325C 593.249,1327.5 593.916,1330 594.5,1332.5C 592.425,1329.93 591.091,1326.93 590.5,1323.5 Z"/></g>
<g><path style="opacity:1" fill="#aba8a3" d="M 2025.5,1344.5 C 2027.04,1346.84 2027.71,1349.5 2027.5,1352.5C 2026.23,1350.09 2025.57,1347.43 2025.5,1344.5 Z"/></g>
<g><path style="opacity:1" fill="#525252" d="M 2773.5,1350.5 C 2775.59,1351.58 2776.92,1353.25 2777.5,1355.5C 2775.41,1354.42 2774.08,1352.75 2773.5,1350.5 Z"/></g>
<g><path style="opacity:1" fill="#a29e9c" d="M 617.5,1360.5 C 620.427,1361.76 622.761,1363.76 624.5,1366.5C 621.573,1365.24 619.239,1363.24 617.5,1360.5 Z"/></g>
<g><path style="opacity:1" fill="#d6d5d0" d="M 2032.5,1366.5 C 2035.8,1372.42 2039.13,1378.42 2042.5,1384.5C 2041.28,1383.97 2040.11,1383.31 2039,1382.5C 2038.78,1380.62 2038.12,1378.95 2037,1377.5C 2036.67,1377.83 2036.33,1378.17 2036,1378.5C 2034.27,1374.65 2033.1,1370.65 2032.5,1366.5 Z"/></g>
<g><path style="opacity:1" fill="#7b7879" d="M 2804.5,1375.5 C 2806.03,1375.43 2807.03,1376.09 2807.5,1377.5C 2805.97,1377.57 2804.97,1376.91 2804.5,1375.5 Z"/></g>
<g><path style="opacity:1" fill="#a9a7aa" d="M 2807.5,1377.5 C 2810.86,1377.69 2813.86,1378.69 2816.5,1380.5C 2813.08,1380.47 2810.08,1379.47 2807.5,1377.5 Z"/></g>
<g><path style="opacity:1" fill="#6d6c6c" d="M 642.5,1379.5 C 644.967,1379.75 646.967,1380.75 648.5,1382.5C 646.033,1382.25 644.033,1381.25 642.5,1379.5 Z"/></g>
<g><path style="opacity:1" fill="#e6eaed" d="M 1696.5,1385.5 C 1528.17,1385.5 1359.83,1385.5 1191.5,1385.5C 1192.64,1384.66 1193.97,1383.99 1195.5,1383.5C 1259.07,1384.8 1322.23,1384.8 1385,1383.5C 1488.93,1384.17 1592.76,1384.83 1696.5,1385.5 Z"/></g>
<g><path style="opacity:1" fill="#9c9c9f" d="M 649.5,1382.5 C 659.854,1384.61 670.187,1385.94 680.5,1386.5C 679.167,1386.5 677.833,1386.5 676.5,1386.5C 670.158,1386.67 663.825,1386.5 657.5,1386C 654.842,1384.52 652.175,1383.36 649.5,1382.5 Z"/></g>
<g><path style="opacity:1" fill="#9d9d9f" d="M 2825.5,1384.5 C 2942,1385.1 3058.33,1385.76 3174.5,1386.5C 3068.17,1387.03 2961.83,1387.2 2855.5,1387C 2846.5,1386.67 2837.5,1386.33 2828.5,1386C 2827.26,1385.77 2826.26,1385.27 2825.5,1384.5 Z"/></g>
<g><path style="opacity:1" fill="#8f8f91" d="M 1191.5,1385.5 C 1359.83,1385.5 1528.17,1385.5 1696.5,1385.5C 1789.33,1385.17 1882,1385.5 1974.5,1386.5C 1541.67,1386.63 1109,1386.63 676.5,1386.5C 677.833,1386.5 679.167,1386.5 680.5,1386.5C 850.832,1385.7 1021.17,1385.37 1191.5,1385.5 Z"/></g>
<g><path style="opacity:1" fill="#9d9d9f" d="M 3187.5,1388.5 C 3189.9,1388.26 3191.9,1388.93 3193.5,1390.5C 3191.1,1390.74 3189.1,1390.07 3187.5,1388.5 Z"/></g>
<g><path style="opacity:1" fill="#bcbcbf" d="M 1989.5,1389.5 C 1993.9,1389.42 1998.23,1389.92 2002.5,1391C 2000.38,1391.34 2000.05,1392.18 2001.5,1393.5C 1997.41,1392.15 1993.41,1390.82 1989.5,1389.5 Z"/></g>
<g><path style="opacity:1" fill="#6f6e6c" d="M 2006.5,1395.5 C 2008.58,1395.97 2010.58,1396.64 2012.5,1397.5C 2012.5,1397.83 2012.5,1398.17 2012.5,1398.5C 2010.03,1398.25 2008.03,1397.25 2006.5,1395.5 Z"/></g>
<g><path style="opacity:1" fill="#d5d4d3" d="M 2012.5,1398.5 C 2012.5,1398.17 2012.5,1397.83 2012.5,1397.5C 2014.8,1398.06 2017.13,1398.56 2019.5,1399C 2018.3,1399.65 2018.3,1400.15 2019.5,1400.5C 2020.26,1399.19 2021.26,1398.69 2022.5,1399C 2023.13,1401.37 2024.13,1403.54 2025.5,1405.5C 2021.35,1402.92 2017.02,1400.59 2012.5,1398.5 Z"/></g>
<g><path style="opacity:1" fill="#9e9b9a" d="M 3222.5,1404.5 C 3225.09,1405.42 3227.09,1407.09 3228.5,1409.5C 3225.91,1408.58 3223.91,1406.91 3222.5,1404.5 Z"/></g>
<g><path style="opacity:1" fill="#474845" d="M 2081.5,1413.5 C 2084.15,1413.41 2086.49,1414.08 2088.5,1415.5C 2085.85,1415.59 2083.51,1414.92 2081.5,1413.5 Z"/></g>
<g><path style="opacity:1" fill="#d8dad3" d="M 2098.5,1418.5 C 2213.13,1419.33 2327.79,1419.83 2442.5,1420C 2445.04,1420.19 2447.37,1420.69 2449.5,1421.5C 2332.84,1420.68 2216.18,1420.18 2099.5,1420C 2098.94,1419.62 2098.61,1419.12 2098.5,1418.5 Z"/></g>
<g><path style="opacity:1" fill="#e1e1e1" d="M 3301.5,1418.5 C 3394.46,1419.33 3487.46,1419.83 3580.5,1420C 3583.36,1420.18 3586.03,1420.68 3588.5,1421.5C 3493.17,1420.7 3397.84,1420.2 3302.5,1420C 3301.94,1419.62 3301.61,1419.12 3301.5,1418.5 Z"/></g>
<g><path style="opacity:1" fill="#848685" d="M 2457.5,1423.5 C 2459.97,1423.75 2461.97,1424.75 2463.5,1426.5C 2460.9,1426.38 2458.9,1425.38 2457.5,1423.5 Z"/></g>
<g><path style="opacity:1" fill="#646264" d="M 2470.5,1428.5 C 2472.03,1428.43 2473.03,1429.09 2473.5,1430.5C 2471.97,1430.57 2470.97,1429.91 2470.5,1428.5 Z"/></g>
<g><path style="opacity:1" fill="#4f4c4d" d="M 2473.5,1430.5 C 2476.31,1430.02 2478.31,1431.02 2479.5,1433.5C 2477.46,1432.49 2475.46,1431.49 2473.5,1430.5 Z"/></g>
<g><path style="opacity:1" fill="#919190" d="M 2051.5,1445.5 C 2053.45,1447.32 2054.45,1449.65 2054.5,1452.5C 2052.93,1450.49 2051.93,1448.16 2051.5,1445.5 Z"/></g>
<g><path style="opacity:1" fill="#83807d" d="M 2516.5,1473.5 C 2517.91,1473.97 2518.57,1474.97 2518.5,1476.5C 2517.09,1476.03 2516.43,1475.03 2516.5,1473.5 Z"/></g>
<g><path style="opacity:1" fill="#95938f" d="M 2521.5,1483.5 C 2523.07,1485.1 2523.74,1487.1 2523.5,1489.5C 2521.93,1487.9 2521.26,1485.9 2521.5,1483.5 Z"/></g>
<g><path style="opacity:1" fill="#7f7d7e" d="M 2524.5,1494.5 C 2526.07,1496.1 2526.74,1498.1 2526.5,1500.5C 2524.93,1498.9 2524.26,1496.9 2524.5,1494.5 Z"/></g>
<g><path style="opacity:1" fill="#434145" d="M 2061.5,1480.5 C 2062.32,1482.97 2062.82,1485.64 2063,1488.5C 2063.5,1501.16 2063.67,1513.83 2063.5,1526.5C 2063.17,1526.5 2062.83,1526.5 2062.5,1526.5C 2062.44,1511.16 2062.11,1495.83 2061.5,1480.5 Z"/></g>
<g><path style="opacity:1" fill="#3e3d3e" d="M 3502.5,1533.5 C 3488.78,1533.2 3475.12,1533.54 3461.5,1534.5C 3461.61,1533.88 3461.94,1533.38 3462.5,1533C 3476.01,1532.17 3489.34,1532.34 3502.5,1533.5 Z"/></g>
<g><path style="opacity:1" fill="#030303" d="M 3370.5,1533.5 C 3375.68,1534.67 3381.02,1535.67 3386.5,1536.5C 3388.43,1537.11 3390.1,1538.11 3391.5,1539.5C 3392.16,1614.93 3392.83,1690.26 3393.5,1765.5C 3394.03,1766.72 3394.69,1767.89 3395.5,1769C 3399.15,1769.5 3402.82,1769.67 3406.5,1769.5C 3421.48,1771.2 3436.48,1771.53 3451.5,1770.5C 3452.46,1770.05 3453.29,1769.38 3454,1768.5C 3455.18,1692.17 3456.18,1615.84 3457,1539.5C 3458,1537.34 3459.5,1535.67 3461.5,1534.5C 3475.12,1533.54 3488.78,1533.2 3502.5,1533.5C 3511.26,1534.67 3516.26,1539.67 3517.5,1548.5C 3518.5,1571.49 3518.83,1594.49 3518.5,1617.5C 3517.14,1628.97 3516.47,1640.64 3516.5,1652.5C 3515.6,1676.19 3515.6,1699.85 3516.5,1723.5C 3516.33,1736.84 3516.5,1750.17 3517,1763.5C 3517.23,1764.74 3517.73,1765.74 3518.5,1766.5C 3519.77,1768.93 3521.77,1770.43 3524.5,1771C 3534.16,1771.5 3543.83,1771.67 3553.5,1771.5C 3553.61,1772.12 3553.94,1772.62 3554.5,1773C 3561.16,1773.5 3567.83,1773.67 3574.5,1773.5C 3580,1774.83 3582.66,1778.33 3582.5,1784C 3580.73,1798.09 3579.56,1812.25 3579,1826.5C 3577.35,1827.4 3575.85,1828.4 3574.5,1829.5C 3569.87,1830.89 3565.2,1831.89 3560.5,1832.5C 3549.12,1832.79 3537.78,1832.46 3526.5,1831.5C 3522.36,1831.52 3519.86,1829.52 3519,1825.5C 3518.28,1810.66 3518.45,1795.82 3519.5,1781C 3519.17,1778.83 3518.83,1776.67 3518.5,1774.5C 3517.82,1774.14 3517.15,1773.8 3516.5,1773.5C 3515.74,1772.73 3514.74,1772.23 3513.5,1772C 3506.82,1771.61 3500.15,1771.11 3493.5,1770.5C 3483.34,1769.34 3473.01,1769.17 3462.5,1770C 3461.94,1770.38 3461.61,1770.88 3461.5,1771.5C 3457.76,1772.91 3455.43,1775.57 3454.5,1779.5C 3452.82,1785.58 3452.16,1791.92 3452.5,1798.5C 3452.51,1807.19 3452.01,1815.86 3451,1824.5C 3449.2,1828.14 3446.36,1830.48 3442.5,1831.5C 3427.51,1832.72 3412.51,1833.05 3397.5,1832.5C 3395.55,1831.72 3394.05,1830.38 3393,1828.5C 3392.54,1812.1 3393.37,1795.76 3395.5,1779.5C 3395.17,1777.83 3394.83,1776.17 3394.5,1774.5C 3389.06,1772.61 3383.4,1771.95 3377.5,1772.5C 3363.22,1771.97 3348.88,1770.63 3334.5,1768.5C 3333.21,1767.94 3332.38,1766.94 3332,1765.5C 3331.18,1748.76 3331.35,1732.09 3332.5,1715.5C 3333.18,1655.31 3333.85,1594.98 3334.5,1534.5C 3340.43,1533.21 3346.59,1532.54 3353,1532.5C 3359.01,1532.5 3364.84,1532.83 3370.5,1533.5 Z"/></g>
<g><path style="opacity:1" fill="#020202" d="M 3643.5,1542.5 C 3644.49,1616.13 3644.83,1689.79 3644.5,1763.5C 3643.75,1764.53 3643.08,1765.7 3642.5,1767C 3640.96,1767.29 3639.62,1767.96 3638.5,1769C 3619.83,1769.83 3601.17,1770.17 3582.5,1770C 3581.67,1769.17 3580.83,1768.33 3580,1767.5C 3579.5,1750.5 3579.33,1733.5 3579.5,1716.5C 3580.29,1715.39 3580.79,1714.06 3581,1712.5C 3582.31,1655.17 3582.81,1597.84 3582.5,1540.5C 3585.26,1536.94 3588.93,1534.61 3593.5,1533.5C 3606.83,1532.17 3620.17,1532.17 3633.5,1533.5C 3638.8,1534.48 3642.14,1537.48 3643.5,1542.5 Z"/></g>
<g><path style="opacity:1" fill="#c0c1c0" d="M 3370.5,1533.5 C 3375.55,1533.45 3380.55,1533.95 3385.5,1535C 3386.06,1535.38 3386.39,1535.88 3386.5,1536.5C 3381.02,1535.67 3375.68,1534.67 3370.5,1533.5 Z"/></g>
<g><path style="opacity:1" fill="#f7f7f5" d="M 3415.5,1536.5 C 3421.18,1536.74 3426.85,1537.24 3432.5,1538C 3434.81,1540.06 3436.97,1542.23 3439,1544.5C 3441.34,1558.57 3443.51,1572.57 3445.5,1586.5C 3444.87,1624.17 3444.37,1661.84 3444,1699.5C 3443.92,1704.64 3442.76,1709.47 3440.5,1714C 3441.2,1727.88 3440.2,1741.71 3437.5,1755.5C 3437.82,1756.65 3438.48,1757.48 3439.5,1758C 3438.39,1758.64 3437.22,1759.14 3436,1759.5C 3434.99,1759.11 3434.49,1758.44 3434.5,1757.5C 3433.83,1758.83 3433.17,1760.17 3432.5,1761.5C 3431.71,1760.76 3431.05,1759.92 3430.5,1759C 3423.37,1757.74 3416.37,1756.74 3409.5,1756C 3404.71,1751.21 3403.71,1745.71 3406.5,1739.5C 3405.62,1736.21 3404.95,1732.88 3404.5,1729.5C 3405.17,1726.83 3405.83,1724.17 3406.5,1721.5C 3406.33,1719.5 3406.17,1717.5 3406,1715.5C 3405.19,1720.77 3404.69,1720.77 3404.5,1715.5C 3405.65,1709.94 3405.65,1704.44 3404.5,1699C 3405.5,1694 3406.5,1689 3407.5,1684C 3405.14,1660.37 3405.14,1636.87 3407.5,1613.5C 3407.13,1607.25 3406.47,1601.08 3405.5,1595C 3406.89,1593.26 3407.56,1591.26 3407.5,1589C 3406.97,1585.02 3406.64,1581.02 3406.5,1577C 3407.37,1567.17 3408.21,1557.34 3409,1547.5C 3409.67,1544.74 3410.51,1542.07 3411.5,1539.5C 3413.62,1539.53 3414.95,1538.53 3415.5,1536.5 Z"/></g>
<g><path style="opacity:1" fill="#696465" d="M 2062.5,1526.5 C 2062.83,1526.5 2063.17,1526.5 2063.5,1526.5C 2062.03,1625.82 2061.2,1725.16 2061,1824.5C 2060.79,1826.06 2060.29,1827.39 2059.5,1828.5C 2060.09,1727.82 2061.09,1627.16 2062.5,1526.5 Z"/></g>
<g><path style="opacity:1" fill="#adaead" d="M 3391.5,1539.5 C 3393.5,1614.49 3394.16,1689.83 3393.5,1765.5C 3392.83,1690.26 3392.16,1614.93 3391.5,1539.5 Z"/></g>
<g><path style="opacity:1" fill="#636362" d="M 3334.5,1534.5 C 3333.85,1594.98 3333.18,1655.31 3332.5,1715.5C 3332.33,1655.83 3332.5,1596.17 3333,1536.5C 3333.28,1535.58 3333.78,1534.92 3334.5,1534.5 Z"/></g>
<g><path style="opacity:1" fill="#7d797d" d="M 3258.5,1603.5 C 3258.67,1635.01 3258,1666.35 3256.5,1697.5C 3256.65,1665.99 3257.32,1634.66 3258.5,1603.5 Z"/></g>
<g><path style="opacity:1" fill="#878787" d="M 3518.5,1617.5 C 3518.6,1629.36 3517.93,1641.03 3516.5,1652.5C 3516.47,1640.64 3517.14,1628.97 3518.5,1617.5 Z"/></g>
<g><path style="opacity:1" fill="#c0c0c2" d="M 3643.5,1542.5 C 3644.12,1542.61 3644.62,1542.94 3645,1543.5C 3645.83,1617 3645.67,1690.33 3644.5,1763.5C 3644.83,1689.79 3644.49,1616.13 3643.5,1542.5 Z"/></g>
<g><path style="opacity:1" fill="#6b6b6b" d="M 3582.5,1540.5 C 3582.81,1597.84 3582.31,1655.17 3581,1712.5C 3580.79,1714.06 3580.29,1715.39 3579.5,1716.5C 3580.91,1657.68 3581.91,1599.02 3582.5,1540.5 Z"/></g>
<g><path style="opacity:1" fill="#bbb9bd" d="M 3516.5,1723.5 C 3517.23,1737.69 3517.9,1752.02 3518.5,1766.5C 3517.73,1765.74 3517.23,1764.74 3517,1763.5C 3516.5,1750.17 3516.33,1736.84 3516.5,1723.5 Z"/></g>
<g><path style="opacity:1" fill="#8f908c" d="M 3493.5,1770.5 C 3482.78,1770.21 3472.12,1770.55 3461.5,1771.5C 3461.61,1770.88 3461.94,1770.38 3462.5,1770C 3473.01,1769.17 3483.34,1769.34 3493.5,1770.5 Z"/></g>
<g><path style="opacity:1" fill="#cbcdcc" d="M 3406.5,1769.5 C 3421.5,1769.75 3436.5,1770.08 3451.5,1770.5C 3436.48,1771.53 3421.48,1771.2 3406.5,1769.5 Z"/></g>
<g><path style="opacity:1" fill="#3e3c3d" d="M 3334.5,1768.5 C 3348.88,1770.63 3363.22,1771.97 3377.5,1772.5C 3364.8,1772.76 3352.13,1772.26 3339.5,1771C 3337.35,1770.9 3335.68,1770.07 3334.5,1768.5 Z"/></g>
<g><path style="opacity:1" fill="#c2c3c2" d="M 3493.5,1770.5 C 3500.15,1771.11 3506.82,1771.61 3513.5,1772C 3514.74,1772.23 3515.74,1772.73 3516.5,1773.5C 3508.45,1773.31 3500.78,1772.31 3493.5,1770.5 Z"/></g>
<g><path style="opacity:1" fill="#51514f" d="M 3553.5,1771.5 C 3560.68,1771.77 3567.68,1772.43 3574.5,1773.5C 3567.83,1773.67 3561.16,1773.5 3554.5,1773C 3553.94,1772.62 3553.61,1772.12 3553.5,1771.5 Z"/></g>
<g><path style="opacity:1" fill="#111213" d="M 3534.5,1780.5 C 3537.38,1780.73 3540.21,1780.73 3543,1780.5C 3544.57,1782.17 3546.23,1782.5 3548,1781.5C 3550.08,1782.02 3552.08,1782.68 3554,1783.5C 3555.87,1782.91 3557.54,1783.58 3559,1785.5C 3559.33,1785.17 3559.67,1784.83 3560,1784.5C 3561.31,1786.98 3563.14,1788.98 3565.5,1790.5C 3564.97,1791.19 3564.31,1791.69 3563.5,1792C 3564.67,1792.5 3565.5,1793.33 3566,1794.5C 3567.1,1802.22 3565.94,1809.55 3562.5,1816.5C 3552.57,1821.35 3542.24,1822.52 3531.5,1820C 3530.67,1819.17 3529.83,1818.33 3529,1817.5C 3526.01,1807.63 3525.68,1797.63 3528,1787.5C 3529.05,1783.96 3531.21,1781.63 3534.5,1780.5 Z"/></g>
<g><path style="opacity:1" fill="#919191" d="M 3454.5,1779.5 C 3454.3,1786.03 3453.64,1792.36 3452.5,1798.5C 3452.16,1791.92 3452.82,1785.58 3454.5,1779.5 Z"/></g>
<g><path style="opacity:1" fill="#72736f" d="M 2526.5,1804.5 C 2526.43,1807.43 2525.77,1810.09 2524.5,1812.5C 2524.29,1809.5 2524.96,1806.84 2526.5,1804.5 Z"/></g>
<g><path style="opacity:1" fill="#f7f6f3" d="M 3479.5,1773.5 C 3484.72,1774.17 3489.89,1775.17 3495,1776.5C 3495.74,1775.43 3496.74,1774.76 3498,1774.5C 3502.16,1775.03 3505.99,1776.36 3509.5,1778.5C 3511.3,1780.13 3512.46,1782.13 3513,1784.5C 3512.94,1792.16 3513.78,1799.66 3515.5,1807C 3514.59,1809.31 3513.09,1811.15 3511,1812.5C 3510.16,1821.19 3509.16,1829.85 3508,1838.5C 3507,1840.5 3506,1842.5 3505,1844.5C 3498.53,1848.49 3491.69,1851.49 3484.5,1853.5C 3483.17,1849.5 3481.83,1849.5 3480.5,1853.5C 3478.95,1852.32 3477.29,1851.32 3475.5,1850.5C 3475.71,1849.91 3476.04,1849.41 3476.5,1849C 3475.1,1848.41 3473.77,1848.57 3472.5,1849.5C 3470.77,1846.35 3468.43,1844.68 3465.5,1844.5C 3466.81,1843.11 3466.48,1842.11 3464.5,1841.5C 3462.58,1836.38 3461.92,1831.22 3462.5,1826C 3460.91,1814.86 3459.58,1803.86 3458.5,1793C 3459,1780.83 3465.34,1774.83 3477.5,1775C 3478.42,1774.72 3479.08,1774.22 3479.5,1773.5 Z"/></g>
<g><path style="opacity:1" fill="#e8e6e2" d="M 3472.5,1779.5 C 3479.84,1779.33 3487.17,1779.5 3494.5,1780C 3498.29,1780.16 3501.95,1780.83 3505.5,1782C 3506.55,1784.26 3507.55,1786.93 3508.5,1790C 3508.38,1796.25 3507.05,1802.42 3504.5,1808.5C 3499.79,1809.46 3495.13,1809.8 3490.5,1809.5C 3485.62,1805.28 3480.28,1803.94 3474.5,1805.5C 3471.55,1802.39 3469.22,1798.89 3467.5,1795C 3468.13,1792.83 3467.46,1790.83 3465.5,1789C 3466.55,1784.67 3468.88,1781.5 3472.5,1779.5 Z"/></g>
<g><path style="opacity:1" fill="#b9b9b8" d="M 3574.5,1829.5 C 3573.91,1830.15 3573.24,1830.82 3572.5,1831.5C 3568.55,1832.49 3564.55,1832.82 3560.5,1832.5C 3565.2,1831.89 3569.87,1830.89 3574.5,1829.5 Z"/></g>
<g><path style="opacity:1" fill="#999a99" d="M 3526.5,1831.5 C 3537.78,1832.46 3549.12,1832.79 3560.5,1832.5C 3549.67,1833.66 3538.67,1833.83 3527.5,1833C 3526.94,1832.62 3526.61,1832.12 3526.5,1831.5 Z"/></g>
<g><path style="opacity:1" fill="#878784" d="M 3442.5,1831.5 C 3442.39,1832.12 3442.06,1832.62 3441.5,1833C 3427.49,1833.63 3413.49,1833.97 3399.5,1834C 3398.58,1833.72 3397.92,1833.22 3397.5,1832.5C 3412.51,1833.05 3427.51,1832.72 3442.5,1831.5 Z"/></g>
<g><path style="opacity:1" fill="#636766" d="M 2518.5,1834.5 C 2518.57,1836.03 2517.91,1837.03 2516.5,1837.5C 2516.43,1835.97 2517.09,1834.97 2518.5,1834.5 Z"/></g>
<g><path style="opacity:1" fill="#4c4d4c" d="M 2516.5,1837.5 C 2516.39,1840.9 2515.06,1843.57 2512.5,1845.5C 2513.47,1842.56 2514.81,1839.9 2516.5,1837.5 Z"/></g>
<g><path style="opacity:1" fill="#888b88" d="M 2059.5,1837.5 C 2059.28,1841.16 2058.28,1844.5 2056.5,1847.5C 2056.72,1843.84 2057.72,1840.5 2059.5,1837.5 Z"/></g>
<g><path style="opacity:1" fill="#b5b7b9" d="M 2054.5,1860.5 C 2053.84,1863.48 2053.17,1866.48 2052.5,1869.5C 2052.13,1871.18 2051.13,1872.18 2049.5,1872.5C 2051.12,1869.05 2052.28,1865.38 2053,1861.5C 2053.38,1860.94 2053.88,1860.61 2054.5,1860.5 Z"/></g>
<g><path style="opacity:1" fill="#a7a7ab" d="M 2441.5,1886.5 C 2439.05,1887.47 2436.39,1887.81 2433.5,1887.5C 2325.49,1887.18 2217.49,1887.52 2109.5,1888.5C 2109.61,1887.88 2109.94,1887.38 2110.5,1887C 2220.83,1886.5 2331.17,1886.33 2441.5,1886.5 Z"/></g>
<g><path style="opacity:1" fill="#242329" d="M 2433.5,1887.5 C 2325.33,1888.2 2217,1888.87 2108.5,1889.5C 2108.5,1888.83 2108.83,1888.5 2109.5,1888.5C 2217.49,1887.52 2325.49,1887.18 2433.5,1887.5 Z"/></g>
<g><path style="opacity:1" fill="#777878" d="M 2095.5,1892.5 C 2093.49,1893.92 2091.15,1894.59 2088.5,1894.5C 2090.51,1893.08 2092.85,1892.41 2095.5,1892.5 Z"/></g>
<g><path style="opacity:1" fill="#dfe0df" d="M 2037.5,1889.5 C 2037,1891.48 2036.5,1893.48 2036,1895.5C 2034.98,1896.63 2034.32,1896.3 2034,1894.5C 2032.8,1896.91 2031.13,1898.91 2029,1900.5C 2028.73,1902.1 2028.23,1903.6 2027.5,1905C 2025.37,1906.59 2023.2,1908.09 2021,1909.5C 2020.69,1908.69 2020.19,1908.03 2019.5,1907.5C 2018.58,1908.13 2017.58,1908.46 2016.5,1908.5C 2020.1,1905.69 2023.76,1902.85 2027.5,1900C 2030.73,1896.33 2034.07,1892.83 2037.5,1889.5 Z"/></g>
<g><path style="opacity:1" fill="#030303" d="M 3452.5,1911.5 C 3452.91,1916.34 3453.58,1921.01 3454.5,1925.5C 3455.01,1956.85 3455.84,1988.18 3457,2019.5C 3458.47,2021.01 3460.31,2021.67 3462.5,2021.5C 3479.12,2019.9 3495.79,2019.07 3512.5,2019C 3513.67,2018.5 3514.5,2017.67 3515,2016.5C 3515.5,2013.18 3515.67,2009.85 3515.5,2006.5C 3516.12,2006.39 3516.62,2006.06 3517,2005.5C 3517.83,1991.66 3517.66,1977.99 3516.5,1964.5C 3516.5,1963.5 3516.5,1962.5 3516.5,1961.5C 3516.23,1945.14 3516.56,1928.81 3517.5,1912.5C 3518.5,1912.17 3519.17,1911.5 3519.5,1910.5C 3536.14,1909.56 3552.81,1909.23 3569.5,1909.5C 3571.29,1910.39 3573.12,1911.39 3575,1912.5C 3575.67,1945.83 3575.67,1979.17 3575,2012.5C 3572.2,2015.71 3568.7,2017.71 3564.5,2018.5C 3557.2,2019.5 3549.86,2020.33 3542.5,2021C 3541.58,2021.28 3540.92,2021.78 3540.5,2022.5C 3531.49,2022.33 3522.49,2022.5 3513.5,2023C 3511.53,2027.93 3510.53,2033.09 3510.5,2038.5C 3509.78,2038.92 3509.28,2039.58 3509,2040.5C 3508.33,2050.5 3508.33,2060.5 3509,2070.5C 3509.21,2072.06 3509.71,2073.39 3510.5,2074.5C 3510.93,2077.15 3512.26,2079.15 3514.5,2080.5C 3514.92,2081.22 3515.58,2081.72 3516.5,2082C 3532.14,2083.46 3547.8,2084.29 3563.5,2084.5C 3568.26,2085.14 3572.09,2087.47 3575,2091.5C 3575.5,2098.49 3575.67,2105.49 3575.5,2112.5C 3575.11,2126.37 3575.78,2140.04 3577.5,2153.5C 3578.1,2167.94 3577.27,2182.27 3575,2196.5C 3570.55,2202.09 3564.72,2205.25 3557.5,2206C 3545.17,2206.67 3532.83,2206.67 3520.5,2206C 3519.78,2184.19 3518.78,2162.35 3517.5,2140.5C 3517.67,2134.16 3517.5,2127.82 3517,2121.5C 3516.62,2120.94 3516.12,2120.61 3515.5,2120.5C 3515.67,2109.16 3515.5,2097.83 3515,2086.5C 3513.27,2084.55 3511.1,2083.55 3508.5,2083.5C 3508.08,2082.78 3507.42,2082.28 3506.5,2082C 3495.66,2081.17 3484.99,2081.34 3474.5,2082.5C 3469.57,2082.86 3464.9,2083.86 3460.5,2085.5C 3459.22,2085.78 3458.22,2086.45 3457.5,2087.5C 3456.73,2088.26 3456.23,2089.26 3456,2090.5C 3455.83,2127.17 3455.33,2163.84 3454.5,2200.5C 3452.08,2200.91 3450.08,2201.91 3448.5,2203.5C 3441.5,2203.5 3434.5,2203.5 3427.5,2203.5C 3421.58,2203.22 3415.92,2203.88 3410.5,2205.5C 3405.82,2205.67 3401.15,2205.5 3396.5,2205C 3395.33,2203.83 3394.17,2202.67 3393,2201.5C 3392.33,2104.17 3392.33,2006.83 3393,1909.5C 3394.44,1908.28 3396.1,1907.61 3398,1907.5C 3415.15,1908.3 3432.31,1908.8 3449.5,1909C 3450.57,1909.85 3451.57,1910.69 3452.5,1911.5 Z"/></g>
<g><path style="opacity:1" fill="#7d7d7d" d="M 3569.5,1909.5 C 3552.81,1909.23 3536.14,1909.56 3519.5,1910.5C 3519.92,1909.78 3520.58,1909.28 3521.5,1909C 3537.67,1908.17 3553.67,1908.34 3569.5,1909.5 Z"/></g>
<g><path style="opacity:1" fill="#636364" d="M 2053.5,1914.5 C 2053.57,1916.03 2052.91,1917.03 2051.5,1917.5C 2051.43,1915.97 2052.09,1914.97 2053.5,1914.5 Z"/></g>
<g><path style="opacity:1" fill="#545554" d="M 3517.5,1912.5 C 3516.56,1928.81 3516.23,1945.14 3516.5,1961.5C 3515.34,1946.34 3515.17,1931.01 3516,1915.5C 3516.23,1914.26 3516.73,1913.26 3517.5,1912.5 Z"/></g>
<g><path style="opacity:1" fill="#f7f7f5" d="M 3478.5,1909.5 C 3481.52,1909.34 3484.52,1909.5 3487.5,1910C 3491.02,1911.67 3494.69,1912.84 3498.5,1913.5C 3499.7,1921.23 3501.7,1928.73 3504.5,1936C 3507.48,1958.18 3507.65,1980.34 3505,2002.5C 3503.74,2005.43 3501.57,2007.26 3498.5,2008C 3492.15,2008.35 3485.82,2008.85 3479.5,2009.5C 3477.08,2009.45 3475.24,2008.45 3474,2006.5C 3473.67,2007.17 3473.33,2007.83 3473,2008.5C 3469.61,2006.77 3467.27,2004.11 3466,2000.5C 3465.6,1975.75 3466.93,1951.08 3470,1926.5C 3470.8,1923.13 3471.97,1919.97 3473.5,1917C 3473.04,1916.59 3472.71,1916.09 3472.5,1915.5C 3474.52,1913.48 3476.52,1911.48 3478.5,1909.5 Z"/></g>
<g><path style="opacity:1" fill="#5f5f60" d="M 3452.5,1911.5 C 3453.22,1911.92 3453.72,1912.58 3454,1913.5C 3454.5,1917.49 3454.67,1921.49 3454.5,1925.5C 3453.58,1921.01 3452.91,1916.34 3452.5,1911.5 Z"/></g>
<g><path style="opacity:1" fill="#a09d98" d="M 1980.5,1924.5 C 1977.5,1926.28 1974.16,1927.28 1970.5,1927.5C 1973.5,1925.72 1976.84,1924.72 1980.5,1924.5 Z"/></g>
<g><path style="opacity:1" fill="#c7c8be" d="M 1168.5,1928.5 C 1434,1927.5 1699.67,1927.17 1965.5,1927.5C 1872.84,1928.83 1779.84,1929.5 1686.5,1929.5C 1513.83,1929.21 1341.17,1928.88 1168.5,1928.5 Z"/></g>
<g><path style="opacity:1" fill="#747474" d="M 1160.5,1928.5 C 1158.49,1929.92 1156.15,1930.59 1153.5,1930.5C 1155.51,1929.08 1157.85,1928.41 1160.5,1928.5 Z"/></g>
<g><path style="opacity:1" fill="#9c9c99" d="M 1152.5,1930.5 C 1149.5,1932.28 1146.16,1933.28 1142.5,1933.5C 1145.5,1931.72 1148.84,1930.72 1152.5,1930.5 Z"/></g>
<g><path style="opacity:1" fill="#545651" d="M 2038.5,1933.5 C 2038.25,1935.97 2037.25,1937.97 2035.5,1939.5C 2035.75,1937.03 2036.75,1935.03 2038.5,1933.5 Z"/></g>
<g><path style="opacity:1" fill="#7c7d76" d="M 2035.5,1939.5 C 2035.57,1941.03 2034.91,1942.03 2033.5,1942.5C 2033.43,1940.97 2034.09,1939.97 2035.5,1939.5 Z"/></g>
<g><path style="opacity:1" fill="#e1e1e4" d="M 1136.5,1936.5 C 1136.76,1937.98 1136.43,1939.31 1135.5,1940.5C 1134.19,1939.54 1132.85,1939.71 1131.5,1941C 1130.37,1942.02 1130.7,1942.68 1132.5,1943C 1128.84,1945.66 1125.51,1948.66 1122.5,1952C 1119.49,1952.53 1116.83,1953.7 1114.5,1955.5C 1119.94,1950.56 1125.27,1945.4 1130.5,1940C 1132.4,1938.58 1134.4,1937.41 1136.5,1936.5 Z"/></g>
<g><path style="opacity:1" fill="#4b4c45" d="M 2029.5,1952.5 C 2029.74,1954.9 2029.07,1956.9 2027.5,1958.5C 2027.26,1956.1 2027.93,1954.1 2029.5,1952.5 Z"/></g>
<g><path style="opacity:1" fill="#a2a9a6" d="M 1097.5,1978.5 C 1097.31,1981.86 1096.31,1984.86 1094.5,1987.5C 1094.53,1984.08 1095.53,1981.08 1097.5,1978.5 Z"/></g>
<g><path style="opacity:1" fill="#7c807f" d="M 1093.5,1989.5 C 1093.33,1991.86 1092.99,1994.19 1092.5,1996.5C 1092.17,1996.5 1091.83,1996.5 1091.5,1996.5C 1091.41,1993.85 1092.08,1991.51 1093.5,1989.5 Z"/></g>
<g><path style="opacity:1" fill="#676667" d="M 3516.5,1964.5 C 3517.66,1977.99 3517.83,1991.66 3517,2005.5C 3516.62,2006.06 3516.12,2006.39 3515.5,2006.5C 3516.41,1992.53 3516.74,1978.53 3516.5,1964.5 Z"/></g>
<g><path style="opacity:1" fill="#a9abab" d="M 1091.5,1996.5 C 1091.83,1996.5 1092.17,1996.5 1092.5,1996.5C 1091.85,2005.68 1090.85,2014.68 1089.5,2023.5C 1089.17,2014.4 1089.84,2005.4 1091.5,1996.5 Z"/></g>
<g><path style="opacity:1" fill="#555351" d="M 2022.5,1979.5 C 2021.52,2037.81 2021.18,2096.14 2021.5,2154.5C 2021.17,2154.5 2020.83,2154.5 2020.5,2154.5C 2020.33,2096.83 2020.5,2039.17 2021,1981.5C 2021.28,1980.58 2021.78,1979.92 2022.5,1979.5 Z"/></g>
<g><path style="opacity:1" fill="#babbb8" d="M 3564.5,2018.5 C 3564.08,2019.22 3563.42,2019.72 3562.5,2020C 3555.17,2020.98 3547.84,2021.82 3540.5,2022.5C 3540.92,2021.78 3541.58,2021.28 3542.5,2021C 3549.86,2020.33 3557.2,2019.5 3564.5,2018.5 Z"/></g>
<g><path style="opacity:1" fill="#898988" d="M 3510.5,2038.5 C 3509.19,2050.5 3509.19,2062.5 3510.5,2074.5C 3509.71,2073.39 3509.21,2072.06 3509,2070.5C 3508.33,2060.5 3508.33,2050.5 3509,2040.5C 3509.28,2039.58 3509.78,2038.92 3510.5,2038.5 Z"/></g>
<g><path style="opacity:1" fill="#454746" d="M 3474.5,2082.5 C 3484.99,2081.34 3495.66,2081.17 3506.5,2082C 3507.42,2082.28 3508.08,2082.78 3508.5,2083.5C 3507.17,2083.5 3505.83,2083.5 3504.5,2083.5C 3494.68,2082.51 3484.68,2082.17 3474.5,2082.5 Z"/></g>
<g><path style="opacity:1" fill="#d1d3d2" d="M 3474.5,2082.5 C 3484.68,2082.17 3494.68,2082.51 3504.5,2083.5C 3489.78,2083.3 3475.12,2083.96 3460.5,2085.5C 3464.9,2083.86 3469.57,2082.86 3474.5,2082.5 Z"/></g>
<g><path style="opacity:1" fill="#dbdcda" d="M 3514.5,2080.5 C 3528.79,2081.85 3543.12,2082.69 3557.5,2083C 3559.71,2083.19 3561.71,2083.69 3563.5,2084.5C 3547.8,2084.29 3532.14,2083.46 3516.5,2082C 3515.58,2081.72 3514.92,2081.22 3514.5,2080.5 Z"/></g>
<g><path style="opacity:1" fill="#f7f7f5" d="M 3474.5,2091.5 C 3481.01,2091.6 3487.35,2091.6 3493.5,2091.5C 3495.38,2092.09 3497.22,2092.76 3499,2093.5C 3499.33,2093.17 3499.67,2092.83 3500,2092.5C 3502.55,2095.04 3504.21,2098.04 3505,2101.5C 3505.94,2118.87 3506.77,2136.2 3507.5,2153.5C 3506.74,2164.32 3506.07,2175.15 3505.5,2186C 3505.27,2189.03 3504.44,2191.87 3503,2194.5C 3500.2,2195.49 3497.36,2196.49 3494.5,2197.5C 3490.42,2196.53 3486.59,2195.2 3483,2193.5C 3480.63,2195.94 3478.46,2195.61 3476.5,2192.5C 3477.85,2191.32 3477.69,2190.32 3476,2189.5C 3474.25,2191.14 3473.09,2193.14 3472.5,2195.5C 3472.17,2195.17 3471.83,2194.83 3471.5,2194.5C 3471.27,2190.92 3471.27,2187.26 3471.5,2183.5C 3469.46,2176.38 3467.79,2169.22 3466.5,2162C 3467.14,2159.76 3467.47,2157.42 3467.5,2155C 3466.8,2142.67 3466.14,2130.34 3465.5,2118C 3465.66,2112.23 3466.33,2106.56 3467.5,2101C 3467.17,2100.67 3466.83,2100.33 3466.5,2100C 3468.04,2098.42 3469.21,2096.59 3470,2094.5C 3471.65,2093.6 3473.15,2092.6 3474.5,2091.5 Z"/></g>
<g><path style="opacity:1" fill="#090909" d="M 3541.5,2095.5 C 3543.71,2096.61 3545.88,2096.61 3548,2095.5C 3549.08,2097.39 3550.41,2097.73 3552,2096.5C 3552.32,2098.3 3552.98,2098.63 3554,2097.5C 3556.63,2099.55 3558.96,2102.55 3561,2106.5C 3561.29,2114.85 3561.79,2123.18 3562.5,2131.5C 3561.96,2136.35 3561.29,2141.19 3560.5,2146C 3561.61,2156.48 3561.77,2166.98 3561,2177.5C 3558.93,2183.73 3554.77,2187.73 3548.5,2189.5C 3545.17,2188.83 3541.83,2188.17 3538.5,2187.5C 3537.04,2185 3535.87,2182.33 3535,2179.5C 3532.2,2152.57 3530.7,2125.57 3530.5,2098.5C 3534.49,2098.24 3538.16,2097.24 3541.5,2095.5 Z"/></g>
<g><path style="opacity:1" fill="#4b4a4c" d="M 3515.5,2120.5 C 3516.12,2120.61 3516.62,2120.94 3517,2121.5C 3517.5,2127.82 3517.67,2134.16 3517.5,2140.5C 3516.4,2134.02 3515.74,2127.35 3515.5,2120.5 Z"/></g>
<g><path style="opacity:1" fill="#aaacac" d="M 3575.5,2112.5 C 3576.55,2125.99 3577.21,2139.66 3577.5,2153.5C 3575.78,2140.04 3575.11,2126.37 3575.5,2112.5 Z"/></g>
<g><path style="opacity:1" fill="#a4a5a7" d="M 3457.5,2087.5 C 3456.86,2125.48 3456.19,2163.48 3455.5,2201.5C 3453.2,2202.32 3450.87,2202.99 3448.5,2203.5C 3450.08,2201.91 3452.08,2200.91 3454.5,2200.5C 3455.33,2163.84 3455.83,2127.17 3456,2090.5C 3456.23,2089.26 3456.73,2088.26 3457.5,2087.5 Z"/></g>
<g><path style="opacity:1" fill="#acacad" d="M 3427.5,2203.5 C 3422.06,2204.88 3416.39,2205.55 3410.5,2205.5C 3415.92,2203.88 3421.58,2203.22 3427.5,2203.5 Z"/></g>
<g><path style="opacity:1" fill="#848080" d="M 2020.5,2154.5 C 2020.83,2154.5 2021.17,2154.5 2021.5,2154.5C 2021.99,2182.16 2022.32,2209.83 2022.5,2237.5C 2022.67,2264.68 2022,2291.68 2020.5,2318.5C 2021.77,2263.83 2021.77,2209.17 2020.5,2154.5 Z"/></g>
<g><path style="opacity:1" fill="#030303" d="M 3579.5,2349.5 C 3580.48,2389.8 3580.82,2430.14 3580.5,2470.5C 3580.83,2484.5 3581.17,2498.5 3581.5,2512.5C 3580.94,2513.79 3579.94,2514.62 3578.5,2515C 3561.51,2516.49 3544.51,2517.82 3527.5,2519C 3522.9,2518.69 3519.07,2520.19 3516,2523.5C 3515.48,2532.17 3514.98,2540.84 3514.5,2549.5C 3512.87,2555.93 3512.21,2562.59 3512.5,2569.5C 3511.91,2571.35 3511.24,2573.19 3510.5,2575C 3507.58,2577.45 3504.24,2578.95 3500.5,2579.5C 3488.86,2580.41 3477.2,2580.75 3465.5,2580.5C 3462.53,2579.53 3460.53,2577.53 3459.5,2574.5C 3458.28,2559.86 3458.28,2545.2 3459.5,2530.5C 3460.01,2526.99 3459.34,2523.83 3457.5,2521C 3453.16,2519.98 3448.83,2519.15 3444.5,2518.5C 3440.71,2517.38 3436.71,2516.72 3432.5,2516.5C 3421.68,2515.18 3410.84,2515.18 3400,2516.5C 3396.8,2516.85 3394.13,2515.85 3392,2513.5C 3392.3,2459.19 3392.63,2404.85 3393,2350.5C 3394.08,2347.92 3395.91,2346.25 3398.5,2345.5C 3410.84,2345.67 3423.17,2345.5 3435.5,2345C 3436.74,2344.77 3437.74,2344.27 3438.5,2343.5C 3451.49,2342.15 3457.15,2334.82 3455.5,2321.5C 3457.26,2312.73 3457.93,2303.73 3457.5,2294.5C 3458.63,2288.54 3462.3,2285.04 3468.5,2284C 3481.53,2283.2 3494.53,2283.53 3507.5,2285C 3510.67,2286.83 3513.17,2289.33 3515,2292.5C 3517.84,2308.36 3519.5,2324.36 3520,2340.5C 3520.37,2341.42 3520.87,2342.25 3521.5,2343C 3540.08,2344.31 3558.74,2344.97 3577.5,2345C 3578.58,2346.33 3579.25,2347.83 3579.5,2349.5 Z"/></g>
<g><path style="opacity:1" fill="#0e0f0f" d="M 3479.5,2290.5 C 3486.39,2290.51 3493.39,2290.67 3500.5,2291C 3502.08,2291.71 3503.58,2292.54 3505,2293.5C 3507.57,2297.46 3509.07,2301.8 3509.5,2306.5C 3508.82,2309.82 3508.82,2312.99 3509.5,2316C 3508.87,2320.46 3506.37,2322.96 3502,2323.5C 3491.41,2322.56 3481.08,2320.89 3471,2318.5C 3469.67,2316.5 3468.33,2314.5 3467,2312.5C 3466.1,2309.97 3466.6,2307.81 3468.5,2306C 3465.68,2301.24 3466.35,2296.91 3470.5,2293C 3473.74,2292.59 3476.74,2291.76 3479.5,2290.5 Z"/></g>
<g><path style="opacity:1" fill="#616261" d="M 3457.5,2294.5 C 3457.93,2303.73 3457.26,2312.73 3455.5,2321.5C 3455.84,2312.33 3456.51,2303.33 3457.5,2294.5 Z"/></g>
<g><path style="opacity:1" fill="#7b7c79" d="M 3497.5,2330.5 C 3487.13,2330.27 3476.8,2330.6 3466.5,2331.5C 3467.26,2330.73 3468.26,2330.23 3469.5,2330C 3479.01,2329.18 3488.34,2329.34 3497.5,2330.5 Z"/></g>
<g><path style="opacity:1" fill="#fafaf8" d="M 3497.5,2330.5 C 3504.08,2332.32 3509.91,2335.66 3515,2340.5C 3515.53,2352.84 3516.03,2365.17 3516.5,2377.5C 3517.4,2400.49 3517.73,2423.49 3517.5,2446.5C 3517.67,2465.84 3517.5,2485.17 3517,2504.5C 3515.84,2508.39 3514.84,2512.39 3514,2516.5C 3512.32,2518.67 3510.16,2520 3507.5,2520.5C 3501.48,2520.41 3495.48,2520.07 3489.5,2519.5C 3479.42,2519.92 3469.42,2519.42 3459.5,2518C 3457.6,2516.27 3455.93,2514.44 3454.5,2512.5C 3453.19,2462.84 3453.19,2413.18 3454.5,2363.5C 3454.83,2360.17 3455.17,2356.83 3455.5,2353.5C 3457.05,2349.43 3457.72,2345.1 3457.5,2340.5C 3458.08,2334.97 3461.08,2331.97 3466.5,2331.5C 3476.8,2330.6 3487.13,2330.27 3497.5,2330.5 Z"/></g>
<g><path style="opacity:1" fill="#4c4b48" d="M 2018.5,2331.5 C 2018.43,2334.31 2017.76,2336.98 2016.5,2339.5C 2016.13,2341.18 2015.13,2342.18 2013.5,2342.5C 2015.02,2338.73 2016.69,2335.06 2018.5,2331.5 Z"/></g>
<g><path style="opacity:1" fill="#494b4b" d="M 1087.5,2334.5 C 1087.24,2340.69 1086.58,2346.69 1085.5,2352.5C 1085.18,2346.25 1085.85,2340.25 1087.5,2334.5 Z"/></g>
<g><path style="opacity:1" fill="#5b5a5a" d="M 3438.5,2343.5 C 3437.74,2344.27 3436.74,2344.77 3435.5,2345C 3423.17,2345.5 3410.84,2345.67 3398.5,2345.5C 3411.68,2344.76 3425.02,2344.09 3438.5,2343.5 Z"/></g>
<g><path style="opacity:1" fill="#abadab" d="M 3457.5,2340.5 C 3457.72,2345.1 3457.05,2349.43 3455.5,2353.5C 3455.28,2348.9 3455.95,2344.57 3457.5,2340.5 Z"/></g>
<g><path style="opacity:1" fill="#f5f5f3" d="M 3476.5,2342.5 C 3479.34,2342.73 3482.34,2342.9 3485.5,2343C 3487.4,2343.2 3488.9,2344.03 3490,2345.5C 3491.05,2344.48 3492.22,2344.32 3493.5,2345C 3494.99,2346.72 3496.82,2347.88 3499,2348.5C 3501.35,2352.12 3502.69,2355.79 3503,2359.5C 3503.22,2373.19 3503.72,2386.85 3504.5,2400.5C 3503.26,2403.36 3503.42,2406.02 3505,2408.5C 3505.88,2423.24 3505.38,2437.91 3503.5,2452.5C 3505.02,2458.94 3504.68,2465.27 3502.5,2471.5C 3504.06,2474.39 3503.73,2477.05 3501.5,2479.5C 3503.33,2484.05 3502.66,2488.05 3499.5,2491.5C 3500.17,2492.83 3500.83,2494.17 3501.5,2495.5C 3500.96,2498.61 3499.79,2501.61 3498,2504.5C 3489.01,2504.12 3479.85,2503.28 3470.5,2502C 3468.06,2499.29 3466.56,2496.13 3466,2492.5C 3464.67,2480.94 3464.5,2469.44 3465.5,2458C 3464.57,2456.81 3463.9,2455.47 3463.5,2454C 3464.16,2427.51 3464.99,2401.01 3466,2374.5C 3467.2,2366.15 3468.54,2357.81 3470,2349.5C 3471.69,2346.64 3473.86,2344.31 3476.5,2342.5 Z"/></g>
<g><path style="opacity:1" fill="#a4a6a3" d="M 1085.5,2352.5 C 1085.66,2355.19 1085.5,2357.85 1085,2360.5C 1084.62,2361.06 1084.12,2361.39 1083.5,2361.5C 1083.68,2358.27 1084.34,2355.27 1085.5,2352.5 Z"/></g>
<g><path style="opacity:1" fill="#a8acaf" d="M 1082.5,2369.5 C 1082.55,2374.04 1080.88,2377.71 1077.5,2380.5C 1078.98,2376.71 1080.65,2373.04 1082.5,2369.5 Z"/></g>
<g><path style="opacity:1" fill="#5c5e5d" d="M 1960.5,2387.5 C 1958.49,2389.07 1956.16,2390.07 1953.5,2390.5C 1955.32,2388.55 1957.65,2387.55 1960.5,2387.5 Z"/></g>
<g><path style="opacity:1" fill="#a3a3a4" d="M 3454.5,2363.5 C 3453.19,2413.18 3453.19,2462.84 3454.5,2512.5C 3453.73,2511.74 3453.23,2510.74 3453,2509.5C 3452.33,2462.5 3452.33,2415.5 3453,2368.5C 3453.2,2366.62 3453.7,2364.95 3454.5,2363.5 Z"/></g>
<g><path style="opacity:1" fill="#585c63" d="M 1161.5,2395.5 C 1150.03,2396.93 1138.36,2397.6 1126.5,2397.5C 1137.97,2396.07 1149.64,2395.4 1161.5,2395.5 Z"/></g>
<g><path style="opacity:1" fill="#4d4a4e" d="M 1116.5,2398.5 C 1113.86,2400.31 1110.86,2401.31 1107.5,2401.5C 1110.08,2399.53 1113.08,2398.53 1116.5,2398.5 Z"/></g>
<g><path style="opacity:1" fill="#535357" d="M 1105.5,2402.5 C 1103.78,2404.22 1101.78,2405.55 1099.5,2406.5C 1100.71,2403.96 1102.71,2402.62 1105.5,2402.5 Z"/></g>
<g><path style="opacity:1" fill="#525252" d="M 3516.5,2377.5 C 3517.31,2379.63 3517.81,2381.96 3518,2384.5C 3518.83,2405.34 3518.66,2426 3517.5,2446.5C 3517.73,2423.49 3517.4,2400.49 3516.5,2377.5 Z"/></g>
<g><path style="opacity:1" fill="#4d4949" d="M 1087.5,2416.5 C 1086.09,2418.91 1084.09,2420.58 1081.5,2421.5C 1082.91,2419.09 1084.91,2417.42 1087.5,2416.5 Z"/></g>
<g><path style="opacity:1" fill="#92908b" d="M 1034.5,2419.5 C 1032.97,2421.25 1030.97,2422.25 1028.5,2422.5C 1030.03,2420.75 1032.03,2419.75 1034.5,2419.5 Z"/></g>
<g><path style="opacity:1" fill="#565150" d="M 1081.5,2421.5 C 1080.92,2423.75 1079.59,2425.42 1077.5,2426.5C 1078.08,2424.25 1079.41,2422.58 1081.5,2421.5 Z"/></g>
<g><path style="opacity:1" fill="#b0aaa6" d="M 1025.5,2423.5 C 1021.46,2425.24 1017.12,2426.24 1012.5,2426.5C 1012.92,2425.78 1013.58,2425.28 1014.5,2425C 1018.17,2424.45 1021.84,2423.95 1025.5,2423.5 Z"/></g>
<g><path style="opacity:1" fill="#626164" d="M 1074.5,2429.5 C 1074.57,2431.03 1073.91,2432.03 1072.5,2432.5C 1072.43,2430.97 1073.09,2429.97 1074.5,2429.5 Z"/></g>
<g><path style="opacity:1" fill="#9d9f9b" d="M 643.5,2435.5 C 641.967,2437.25 639.967,2438.25 637.5,2438.5C 639.033,2436.75 641.033,2435.75 643.5,2435.5 Z"/></g>
<g><path style="opacity:1" fill="#a1a2a2" d="M 3579.5,2349.5 C 3580.22,2349.92 3580.72,2350.58 3581,2351.5C 3581.5,2391.17 3581.67,2430.83 3581.5,2470.5C 3581.17,2470.5 3580.83,2470.5 3580.5,2470.5C 3580.82,2430.14 3580.48,2389.8 3579.5,2349.5 Z"/></g>
<g><path style="opacity:1" fill="#74726e" d="M 1059.5,2453.5 C 1058.92,2456.95 1057.58,2459.95 1055.5,2462.5C 1056.08,2459.05 1057.42,2456.05 1059.5,2453.5 Z"/></g>
<g><path style="opacity:1" fill="#7b7a7a" d="M 1054.5,2466.5 C 1054.83,2469.23 1054.16,2471.56 1052.5,2473.5C 1052.41,2470.85 1053.08,2468.51 1054.5,2466.5 Z"/></g>
<g><path style="opacity:1" fill="#abaeae" d="M 591.5,2490.5 C 591.414,2491.5 591.748,2492.33 592.5,2493C 590.895,2494.68 589.562,2496.52 588.5,2498.5C 588.415,2495.35 589.415,2492.68 591.5,2490.5 Z"/></g>
<g><path style="opacity:1" fill="#5e5e60" d="M 3580.5,2470.5 C 3580.83,2470.5 3581.17,2470.5 3581.5,2470.5C 3582.61,2484.66 3582.61,2498.66 3581.5,2512.5C 3581.17,2498.5 3580.83,2484.5 3580.5,2470.5 Z"/></g>
<g><path style="opacity:1" fill="#656665" d="M 3729.5,2402.5 C 3728.72,2508.16 3728.38,2613.83 3728.5,2719.5C 3728.17,2719.5 3727.83,2719.5 3727.5,2719.5C 3727.33,2638.5 3727.5,2557.5 3728,2476.5C 3728.17,2451.66 3728.67,2427 3729.5,2402.5 Z"/></g>
<g><path style="opacity:1" fill="#6a6a68" d="M 3432.5,2516.5 C 3436.71,2516.72 3440.71,2517.38 3444.5,2518.5C 3440.21,2518.8 3436.21,2518.14 3432.5,2516.5 Z"/></g>
<g><path style="opacity:1" fill="#50504e" d="M 3489.5,2519.5 C 3495.48,2520.07 3501.48,2520.41 3507.5,2520.5C 3505.53,2521.16 3503.36,2521.5 3501,2521.5C 3496.91,2521.57 3493.07,2520.9 3489.5,2519.5 Z"/></g>
<g><path style="opacity:1" fill="#141414" d="M 3480.5,2526.5 C 3486.91,2526.18 3493.24,2526.68 3499.5,2528C 3502.4,2529.63 3503.9,2532.13 3504,2535.5C 3505.75,2546.77 3503.59,2557.11 3497.5,2566.5C 3494.39,2568.76 3490.89,2570.09 3487,2570.5C 3482.79,2570.64 3478.29,2570.14 3473.5,2569C 3471.19,2567.89 3469.69,2566.06 3469,2563.5C 3468.82,2555.92 3468.32,2548.42 3467.5,2541C 3468.28,2538.26 3468.78,2535.43 3469,2532.5C 3469.47,2531.07 3470.3,2529.9 3471.5,2529C 3474.63,2528.16 3477.63,2527.33 3480.5,2526.5 Z"/></g>
<g><path style="opacity:1" fill="#1c1c1c" d="M 3482.5,2528.5 C 3487.23,2528.22 3491.9,2528.56 3496.5,2529.5C 3502.21,2537.89 3502.37,2546.55 3497,2555.5C 3494.53,2557.73 3492.2,2557.73 3490,2555.5C 3486.67,2556.38 3484.34,2558.38 3483,2561.5C 3481.45,2557.61 3478.78,2556.61 3475,2558.5C 3473.94,2558.37 3473.11,2557.87 3472.5,2557C 3472.43,2551.37 3472.59,2545.54 3473,2539.5C 3476.66,2536.13 3479.82,2532.47 3482.5,2528.5 Z"/></g>
<g><path style="opacity:1" fill="#a1a19f" d="M 3459.5,2530.5 C 3458.28,2545.2 3458.28,2559.86 3459.5,2574.5C 3458.88,2574.39 3458.38,2574.06 3458,2573.5C 3457.33,2559.5 3457.33,2545.5 3458,2531.5C 3458.38,2530.94 3458.88,2530.61 3459.5,2530.5 Z"/></g>
<g><path style="opacity:1" fill="#8d8c8c" d="M 3514.5,2549.5 C 3514.67,2554.84 3514.5,2560.18 3514,2565.5C 3513.79,2567.06 3513.29,2568.39 3512.5,2569.5C 3512.21,2562.59 3512.87,2555.93 3514.5,2549.5 Z"/></g>
<g><path style="opacity:1" fill="#c6c5c6" d="M 1052.5,2473.5 C 1052.5,2600.17 1052.5,2726.83 1052.5,2853.5C 1051.69,2851.71 1051.19,2849.71 1051,2847.5C 1050.33,2723.5 1050.33,2599.5 1051,2475.5C 1051.28,2474.58 1051.78,2473.92 1052.5,2473.5 Z"/></g>
<g><path style="opacity:1" fill="#90918e" d="M 3500.5,2579.5 C 3500.08,2580.22 3499.42,2580.72 3498.5,2581C 3487.33,2581.83 3476.33,2581.66 3465.5,2580.5C 3477.2,2580.75 3488.86,2580.41 3500.5,2579.5 Z"/></g>
<g><path style="opacity:1" fill="#a7a4a5" d="M 588.5,2498.5 C 588.766,2502.6 588.266,2506.6 587,2510.5C 586.5,2613.83 586.333,2717.17 586.5,2820.5C 585.334,2716.67 585.167,2612.67 586,2508.5C 586.996,2505.09 587.829,2501.76 588.5,2498.5 Z"/></g>
<g><path style="opacity:1" fill="#282929" d="M 3473.5,2656.5 C 3477.65,2655.83 3481.99,2655.5 3486.5,2655.5C 3493.07,2655.32 3499.41,2655.99 3505.5,2657.5C 3494.85,2656.69 3484.19,2656.35 3473.5,2656.5 Z"/></g>
<g><path style="opacity:1" fill="#686968" d="M 3471.5,2656.5 C 3469.7,2657.46 3467.7,2658.12 3465.5,2658.5C 3466.99,2656.72 3468.99,2656.05 3471.5,2656.5 Z"/></g>
<g><path style="opacity:1" fill="#020202" d="M 3471.5,2656.5 C 3472.17,2656.5 3472.83,2656.5 3473.5,2656.5C 3484.19,2656.35 3494.85,2656.69 3505.5,2657.5C 3510.07,2658.9 3513.23,2661.9 3515,2666.5C 3515.17,2676.68 3515.67,2686.68 3516.5,2696.5C 3516.34,2699.19 3516.5,2701.85 3517,2704.5C 3517.38,2705.06 3517.88,2705.39 3518.5,2705.5C 3518.24,2710.22 3519.9,2713.89 3523.5,2716.5C 3524.95,2717.3 3526.62,2717.8 3528.5,2718C 3537.16,2718.5 3545.83,2718.67 3554.5,2718.5C 3562.15,2719.15 3569.81,2719.65 3577.5,2720C 3578.13,2720.75 3578.63,2721.58 3579,2722.5C 3579.67,2799.17 3579.67,2875.83 3579,2952.5C 3577.83,2953.89 3576.33,2954.73 3574.5,2955C 3555.76,2955.82 3537.09,2955.65 3518.5,2954.5C 3518.93,2943.17 3519.27,2931.84 3519.5,2920.5C 3518.76,2864.84 3518.26,2809.17 3518,2753.5C 3517.85,2746.93 3517.02,2740.6 3515.5,2734.5C 3515.67,2728.49 3515.5,2722.49 3515,2716.5C 3513.18,2715.67 3511.35,2714.84 3509.5,2714C 3493.5,2713.33 3477.5,2713.33 3461.5,2714C 3456.43,2717.01 3454.1,2721.51 3454.5,2727.5C 3453.78,2727.92 3453.28,2728.58 3453,2729.5C 3452.5,2803.17 3452.33,2876.83 3452.5,2950.5C 3451,2951.75 3449.33,2952.75 3447.5,2953.5C 3430.16,2953.7 3412.83,2954.03 3395.5,2954.5C 3394.54,2954.05 3393.71,2953.38 3393,2952.5C 3392.33,2878.17 3392.33,2803.83 3393,2729.5C 3394.62,2721.09 3399.79,2717.75 3408.5,2719.5C 3418.36,2719.44 3428.03,2718.78 3437.5,2717.5C 3439.53,2717.66 3441.53,2717.5 3443.5,2717C 3444.06,2716.62 3444.39,2716.12 3444.5,2715.5C 3449.69,2715.38 3453.52,2713.04 3456,2708.5C 3456.33,2693.17 3456.67,2677.83 3457,2662.5C 3459.23,2659.92 3462.06,2658.59 3465.5,2658.5C 3467.7,2658.12 3469.7,2657.46 3471.5,2656.5 Z"/></g>
<g><path style="opacity:1" fill="#101010" d="M 3475.5,2662.5 C 3484.51,2662.33 3493.51,2662.5 3502.5,2663C 3504.16,2665.07 3505.66,2667.24 3507,2669.5C 3508.45,2679.13 3508.79,2688.79 3508,2698.5C 3508.19,2704.65 3505.19,2707.98 3499,2708.5C 3495.87,2707.57 3492.54,2707.57 3489,2708.5C 3484.25,2707.69 3479.42,2707.19 3474.5,2707C 3466.98,2704.69 3463.98,2699.53 3465.5,2691.5C 3465.89,2684.83 3466.39,2678.16 3467,2671.5C 3468.7,2667.31 3471.53,2664.31 3475.5,2662.5 Z"/></g>
<g><path style="opacity:1" fill="#1d1e1d" d="M 3493.5,2663.5 C 3495.92,2663.19 3498.26,2663.53 3500.5,2664.5C 3501.73,2667.52 3502.9,2670.52 3504,2673.5C 3506,2679.29 3505.5,2684.79 3502.5,2690C 3503.86,2691.94 3503.53,2693.6 3501.5,2695C 3501.96,2695.41 3502.29,2695.91 3502.5,2696.5C 3500.61,2697.42 3499.11,2698.76 3498,2700.5C 3497.67,2700.17 3497.33,2699.83 3497,2699.5C 3495.99,2700.66 3494.66,2701.32 3493,2701.5C 3489.75,2700.41 3486.75,2700.41 3484,2701.5C 3480.1,2700.46 3476.77,2698.46 3474,2695.5C 3473.17,2689.8 3473.34,2684.14 3474.5,2678.5C 3476.06,2676.04 3478.06,2674.04 3480.5,2672.5C 3481.05,2670.67 3481.89,2669 3483,2667.5C 3483.33,2668.17 3483.67,2668.83 3484,2669.5C 3486.19,2665.83 3489.36,2663.83 3493.5,2663.5 Z"/></g>
<g><path style="opacity:1" fill="#aaabaa" d="M 3516.5,2696.5 C 3517.47,2699.31 3518.14,2702.31 3518.5,2705.5C 3517.88,2705.39 3517.38,2705.06 3517,2704.5C 3516.5,2701.85 3516.34,2699.19 3516.5,2696.5 Z"/></g>
<g><path style="opacity:1" fill="#4e4d4b" d="M 3444.5,2715.5 C 3444.39,2716.12 3444.06,2716.62 3443.5,2717C 3441.53,2717.5 3439.53,2717.66 3437.5,2717.5C 3439.66,2716.59 3441.99,2715.93 3444.5,2715.5 Z"/></g>
<g><path style="opacity:1" fill="#9c9f9e" d="M 3437.5,2717.5 C 3428.03,2718.78 3418.36,2719.44 3408.5,2719.5C 3417.95,2717.81 3427.61,2717.14 3437.5,2717.5 Z"/></g>
<g><path style="opacity:1" fill="#6b6c6c" d="M 3523.5,2716.5 C 3534,2716.94 3544.33,2717.61 3554.5,2718.5C 3545.83,2718.67 3537.16,2718.5 3528.5,2718C 3526.62,2717.8 3524.95,2717.3 3523.5,2716.5 Z"/></g>
<g><path style="opacity:1" fill="#f7f7f5" d="M 3479.5,2721.5 C 3480.92,2721.75 3481.92,2722.58 3482.5,2724C 3487.17,2724.33 3491.83,2724.67 3496.5,2725C 3501.78,2727.89 3503.78,2732.23 3502.5,2738C 3503.07,2739.21 3503.74,2740.37 3504.5,2741.5C 3505.25,2747.5 3505.92,2753.5 3506.5,2759.5C 3506.44,2775.83 3506.44,2792.16 3506.5,2808.5C 3505.92,2817.41 3504.92,2826.24 3503.5,2835C 3503.99,2843.37 3503.99,2851.7 3503.5,2860C 3502.75,2861.73 3502.25,2863.57 3502,2865.5C 3501,2862.97 3500.17,2862.97 3499.5,2865.5C 3500.28,2866.95 3500.95,2868.45 3501.5,2870C 3500.94,2873.47 3500.61,2876.97 3500.5,2880.5C 3501.03,2893.02 3501.7,2905.52 3502.5,2918C 3502.1,2920.9 3501.43,2923.73 3500.5,2926.5C 3498.85,2925.22 3497.69,2923.55 3497,2921.5C 3496.43,2926.69 3493.93,2929.85 3489.5,2931C 3490.17,2931.33 3490.83,2931.67 3491.5,2932C 3490.21,2932.49 3488.87,2932.66 3487.5,2932.5C 3486.46,2937.06 3483.96,2940.73 3480,2943.5C 3479.51,2944.79 3479.34,2946.13 3479.5,2947.5C 3476.91,2947.4 3474.58,2948.06 3472.5,2949.5C 3471.83,2949.17 3471.17,2948.83 3470.5,2948.5C 3469.33,2944.3 3468.33,2940.14 3467.5,2936C 3468.43,2917.33 3468.6,2898.5 3468,2879.5C 3466.11,2857.18 3464.94,2834.84 3464.5,2812.5C 3464.36,2787.34 3464.52,2762.01 3465,2736.5C 3465.85,2731.64 3468.35,2727.8 3472.5,2725C 3475.4,2724.56 3477.73,2723.4 3479.5,2721.5 Z"/></g>
<g><path style="opacity:1" fill="#818181" d="M 3515.5,2734.5 C 3517.02,2740.6 3517.85,2746.93 3518,2753.5C 3518.26,2809.17 3518.76,2864.84 3519.5,2920.5C 3519.27,2931.84 3518.93,2943.17 3518.5,2954.5C 3517.67,2888.67 3517.17,2822.67 3517,2756.5C 3516.45,2749.16 3515.95,2741.83 3515.5,2734.5 Z"/></g>
<g><path style="opacity:1" fill="#a8a7a8" d="M 3454.5,2727.5 C 3453.85,2801.98 3453.18,2876.31 3452.5,2950.5C 3452.33,2876.83 3452.5,2803.17 3453,2729.5C 3453.28,2728.58 3453.78,2727.92 3454.5,2727.5 Z"/></g>
<g><path style="opacity:1" fill="#353333" d="M 587.5,2827.5 C 589.204,2830.26 590.537,2833.26 591.5,2836.5C 590.087,2835.23 588.754,2834.57 587.5,2834.5C 588.053,2832.27 588.053,2829.94 587.5,2827.5 Z"/></g>
<g><path style="opacity:1" fill="#82817c" d="M 1054.5,2859.5 C 1055.54,2860.93 1056.2,2862.6 1056.5,2864.5C 1054.79,2863.36 1054.12,2861.7 1054.5,2859.5 Z"/></g>
<g><path style="opacity:1" fill="#b2b1aa" d="M 1056.5,2865.5 C 1058.54,2868.61 1060.21,2871.95 1061.5,2875.5C 1058.26,2873.02 1056.59,2869.68 1056.5,2865.5 Z"/></g>
<g><path style="opacity:1" fill="#a7a4a2" d="M 614.5,2871.5 C 616.749,2872.08 618.415,2873.41 619.5,2875.5C 617.251,2874.92 615.585,2873.59 614.5,2871.5 Z"/></g>
<g><path style="opacity:1" fill="#92969c" d="M 1005.5,2895.5 C 890.333,2896.36 775.333,2896.36 660.5,2895.5C 775.667,2894.95 890.667,2894.95 1005.5,2895.5 Z"/></g>
<g><path style="opacity:1" fill="#908f92" d="M 1007.5,2895.5 C 1012.53,2895.92 1017.2,2897.25 1021.5,2899.5C 1016.56,2898.77 1011.89,2897.44 1007.5,2895.5 Z"/></g>
<g><path style="opacity:1" fill="#818482" d="M 1021.5,2899.5 C 1023.97,2899.75 1025.97,2900.75 1027.5,2902.5C 1025.03,2902.25 1023.03,2901.25 1021.5,2899.5 Z"/></g>
<g><path style="opacity:1" fill="#a4a3a1" d="M 1057.5,2920.5 C 1060.17,2921.17 1061.83,2922.83 1062.5,2925.5C 1060.5,2924.17 1058.83,2922.5 1057.5,2920.5 Z"/></g>
<g><path style="opacity:1" fill="#777271" d="M 1108.5,2923.5 C 1110.15,2923.66 1111.49,2924.33 1112.5,2925.5C 1110.62,2925.77 1109.29,2925.1 1108.5,2923.5 Z"/></g>
<g><path style="opacity:1" fill="#484b4b" d="M 1112.5,2925.5 C 1114.9,2925.26 1116.9,2925.93 1118.5,2927.5C 1116.1,2927.74 1114.1,2927.07 1112.5,2925.5 Z"/></g>
<g><path style="opacity:1" fill="#272722" d="M 1125.5,2929.5 C 1137.94,2930.85 1150.27,2931.85 1162.5,2932.5C 1153.83,2932.5 1145.17,2932.5 1136.5,2932.5C 1132.77,2931.78 1129.1,2930.78 1125.5,2929.5 Z"/></g>
<g><path style="opacity:1" fill="#121212" d="M 3727.5,2719.5 C 3727.83,2719.5 3728.17,2719.5 3728.5,2719.5C 3728.67,2916.17 3728.5,3112.83 3728,3309.5C 3727.77,3310.74 3727.27,3311.74 3726.5,3312.5C 3727.43,3264.84 3727.77,3217.18 3727.5,3169.5C 3727.5,3037.17 3727.5,2904.83 3727.5,2772.5C 3727.5,2754.83 3727.5,2737.17 3727.5,2719.5 Z"/></g>
<g><path style="opacity:1" fill="#b0adaa" d="M 1136.5,2932.5 C 1145.17,2932.5 1153.83,2932.5 1162.5,2932.5C 1575,2932.17 1987.33,2932.5 2399.5,2933.5C 2055,2933.17 1710.67,2933.5 1366.5,2934.5C 1308.5,2934.67 1250.5,2934.5 1192.5,2934C 1173.66,2933.83 1155,2933.33 1136.5,2932.5 Z"/></g>
<g><path style="opacity:1" fill="#f9f6f1" d="M 1366.5,2934.5 C 1710.67,2933.5 2055,2933.17 2399.5,2933.5C 2401.83,2933.5 2404.17,2933.5 2406.5,2933.5C 2406.5,2933.83 2406.5,2934.17 2406.5,2934.5C 2397.49,2934.33 2388.49,2934.5 2379.5,2935C 2378.23,2935.31 2377.07,2935.81 2376,2936.5C 2338.71,2935.52 2303.04,2935.52 2269,2936.5C 2263.71,2935.79 2258.38,2935.12 2253,2934.5C 2195.22,2935.7 2136.39,2935.7 2076.5,2934.5C 2059.01,2935.23 2041.68,2935.89 2024.5,2936.5C 2021.96,2935.88 2019.46,2935.22 2017,2934.5C 1800.24,2934.52 1583.41,2934.52 1366.5,2934.5 Z"/></g>
<g><path style="opacity:1" fill="#cccbc8" d="M 2406.5,2934.5 C 2406.5,2934.17 2406.5,2933.83 2406.5,2933.5C 2421.85,2934 2437.18,2934.83 2452.5,2936C 2456.8,2936.08 2460.8,2936.91 2464.5,2938.5C 2445.17,2937.12 2425.83,2935.78 2406.5,2934.5 Z"/></g>
<g><path style="opacity:1" fill="#595a5a" d="M 3447.5,2953.5 C 3430.18,2955.22 3412.85,2955.55 3395.5,2954.5C 3412.83,2954.03 3430.16,2953.7 3447.5,2953.5 Z"/></g>
<g><path style="opacity:1" fill="#59595a" d="M 1080.5,2954.5 C 1082.47,2957.08 1083.47,2960.08 1083.5,2963.5C 1081.69,2960.86 1080.69,2957.86 1080.5,2954.5 Z"/></g>
<g><path style="opacity:1" fill="#7c7a76" d="M 1083.5,2964.5 C 1085.34,2968.16 1086.34,2972.16 1086.5,2976.5C 1084.66,2972.84 1083.66,2968.84 1083.5,2964.5 Z"/></g>
<g><path style="opacity:1" fill="#c1c1c0" d="M 3727.5,2772.5 C 3727.5,2904.83 3727.5,3037.17 3727.5,3169.5C 3726.68,3165.69 3726.18,3161.69 3726,3157.5C 3725.33,3042.17 3725.33,2926.83 3726,2811.5C 3726.17,2798.33 3726.67,2785.33 3727.5,2772.5 Z"/></g>
<g><path style="opacity:1" fill="#abaca8" d="M 2521.5,2993.5 C 2523.07,2995.1 2523.74,2997.1 2523.5,2999.5C 2521.93,2997.9 2521.26,2995.9 2521.5,2993.5 Z"/></g>
<g><path style="opacity:1" fill="#020302" d="M 3515.5,3057.5 C 3515.79,3065.73 3516.79,3073.73 3518.5,3081.5C 3518.89,3084.84 3519.39,3088.17 3520,3091.5C 3520.38,3092.06 3520.88,3092.39 3521.5,3092.5C 3538.01,3093.31 3554.67,3093.98 3571.5,3094.5C 3574.28,3095.09 3576.61,3096.42 3578.5,3098.5C 3579.5,3173.43 3579.83,3248.43 3579.5,3323.5C 3579.76,3324.98 3579.43,3326.31 3578.5,3327.5C 3576.66,3328.03 3575,3328.69 3573.5,3329.5C 3555.83,3329.5 3538.17,3329.5 3520.5,3329.5C 3520.67,3289.5 3520.5,3249.5 3520,3209.5C 3519.62,3208.94 3519.12,3208.61 3518.5,3208.5C 3518.5,3193.17 3518.5,3177.83 3518.5,3162.5C 3515.71,3162.45 3513.87,3163.79 3513,3166.5C 3512.18,3179.49 3511.52,3192.49 3511,3205.5C 3508.83,3210.03 3506.66,3214.53 3504.5,3219C 3490.55,3221.92 3476.55,3221.92 3462.5,3219C 3461.67,3218.17 3460.83,3217.33 3460,3216.5C 3459.06,3212.39 3458.22,3208.39 3457.5,3204.5C 3457.5,3188.17 3457.5,3171.83 3457.5,3155.5C 3460.39,3155.81 3463.05,3155.47 3465.5,3154.5C 3481.19,3154.21 3496.86,3154.55 3512.5,3155.5C 3514.35,3155.66 3515.69,3154.99 3516.5,3153.5C 3517.17,3153.5 3517.5,3153.17 3517.5,3152.5C 3518.94,3149.45 3519.6,3146.12 3519.5,3142.5C 3519.06,3134.66 3518.4,3126.99 3517.5,3119.5C 3516.7,3112.18 3515.86,3104.84 3515,3097.5C 3513.99,3095.74 3512.49,3094.57 3510.5,3094C 3497.17,3093.5 3483.84,3093.33 3470.5,3093.5C 3467.48,3093.34 3464.48,3093.5 3461.5,3094C 3460.94,3094.38 3460.61,3094.88 3460.5,3095.5C 3458.63,3095.86 3457.13,3096.86 3456,3098.5C 3454.41,3100.93 3453.58,3103.59 3453.5,3106.5C 3452.78,3124.69 3452.11,3143.02 3451.5,3161.5C 3451.28,3215.82 3451.28,3270.15 3451.5,3324.5C 3451.66,3327.34 3450.32,3329.01 3447.5,3329.5C 3430.12,3329.81 3412.79,3329.47 3395.5,3328.5C 3394.54,3328.05 3393.71,3327.38 3393,3326.5C 3392.33,3250.17 3392.33,3173.83 3393,3097.5C 3393.47,3096.07 3394.3,3094.9 3395.5,3094C 3414.54,3093.77 3433.54,3092.77 3452.5,3091C 3454.59,3090.33 3456.26,3089.16 3457.5,3087.5C 3458.19,3070.96 3458.86,3054.29 3459.5,3037.5C 3460.06,3036.21 3461.06,3035.38 3462.5,3035C 3478.9,3034.04 3495.23,3034.38 3511.5,3036C 3512.74,3038.12 3513.91,3040.28 3515,3042.5C 3515.5,3047.49 3515.67,3052.49 3515.5,3057.5 Z"/></g>
<g><path style="opacity:1" fill="#a6a7a6" d="M 3515.5,3057.5 C 3516.22,3057.92 3516.72,3058.58 3517,3059.5C 3517.55,3066.84 3518.05,3074.17 3518.5,3081.5C 3516.79,3073.73 3515.79,3065.73 3515.5,3057.5 Z"/></g>
<g><path style="opacity:1" fill="#b6b6b4" d="M 3459.5,3037.5 C 3458.86,3054.29 3458.19,3070.96 3457.5,3087.5C 3457.33,3071.16 3457.5,3054.83 3458,3038.5C 3458.38,3037.94 3458.88,3037.61 3459.5,3037.5 Z"/></g>
<g><path style="opacity:1" fill="#b2b3b3" d="M 3521.5,3092.5 C 3536.5,3092.33 3551.5,3092.5 3566.5,3093C 3568.38,3093.2 3570.05,3093.7 3571.5,3094.5C 3554.67,3093.98 3538.01,3093.31 3521.5,3092.5 Z"/></g>
<g><path style="opacity:1" fill="#6b6c69" d="M 3470.5,3093.5 C 3467.32,3094.32 3463.98,3094.99 3460.5,3095.5C 3460.61,3094.88 3460.94,3094.38 3461.5,3094C 3464.48,3093.5 3467.48,3093.34 3470.5,3093.5 Z"/></g>
<g><path style="opacity:1" fill="#eaeae5" d="M 3471.5,3102.5 C 3480.84,3102.33 3490.17,3102.5 3499.5,3103C 3501.52,3103.45 3503.35,3104.28 3505,3105.5C 3507.34,3113.06 3508.84,3120.56 3509.5,3128C 3509.26,3133.03 3507.93,3137.69 3505.5,3142C 3503.91,3142.86 3502.25,3143.53 3500.5,3144C 3491.99,3144.31 3483.49,3144.81 3475,3145.5C 3465.87,3146.54 3460.87,3142.54 3460,3133.5C 3459.33,3127.17 3459.33,3120.83 3460,3114.5C 3461.38,3108.03 3465.21,3104.03 3471.5,3102.5 Z"/></g>
<g><path style="opacity:1" fill="#a4a4a3" d="M 3453.5,3106.5 C 3453.83,3125.01 3453.5,3143.34 3452.5,3161.5C 3452.17,3161.5 3451.83,3161.5 3451.5,3161.5C 3452.11,3143.02 3452.78,3124.69 3453.5,3106.5 Z"/></g>
<g><path style="opacity:1" fill="#d7d8d8" d="M 3578.5,3098.5 C 3579.83,3135.66 3580.5,3173.16 3580.5,3211C 3580.5,3248.67 3580.17,3286.17 3579.5,3323.5C 3579.83,3248.43 3579.5,3173.43 3578.5,3098.5 Z"/></g>
<g><path style="opacity:1" fill="#aeaeac" d="M 3517.5,3119.5 C 3518.4,3126.99 3519.06,3134.66 3519.5,3142.5C 3519.6,3146.12 3518.94,3149.45 3517.5,3152.5C 3517.5,3141.5 3517.5,3130.5 3517.5,3119.5 Z"/></g>
<g><path style="opacity:1" fill="#bbbdb7" d="M 3456.5,3154.5 C 3476.33,3153.5 3496.33,3153.17 3516.5,3153.5C 3515.69,3154.99 3514.35,3155.66 3512.5,3155.5C 3496.86,3154.55 3481.19,3154.21 3465.5,3154.5C 3462.5,3154.5 3459.5,3154.5 3456.5,3154.5 Z"/></g>
<g><path style="opacity:1" fill="#747675" d="M 3456.5,3154.5 C 3459.5,3154.5 3462.5,3154.5 3465.5,3154.5C 3463.05,3155.47 3460.39,3155.81 3457.5,3155.5C 3457.5,3171.83 3457.5,3188.17 3457.5,3204.5C 3456.5,3188.01 3456.17,3171.34 3456.5,3154.5 Z"/></g>
<g><path style="opacity:1" fill="#cfd0d1" d="M 3451.5,3161.5 C 3451.83,3161.5 3452.17,3161.5 3452.5,3161.5C 3452.83,3216 3452.5,3270.34 3451.5,3324.5C 3451.28,3270.15 3451.28,3215.82 3451.5,3161.5 Z"/></g>
<g><path style="opacity:1" fill="#242525" d="M 3518.5,3208.5 C 3519.12,3208.61 3519.62,3208.94 3520,3209.5C 3520.5,3249.5 3520.67,3289.5 3520.5,3329.5C 3538.17,3329.5 3555.83,3329.5 3573.5,3329.5C 3555.67,3330.5 3537.67,3330.83 3519.5,3330.5C 3519.81,3289.81 3519.48,3249.14 3518.5,3208.5 Z"/></g>
<g><path style="opacity:1" fill="#f7f7f6" d="M 3474.5,3226.5 C 3477.86,3227.46 3481.19,3228.46 3484.5,3229.5C 3486.69,3229.41 3488.69,3228.74 3490.5,3227.5C 3492.28,3227.57 3494.11,3227.9 3496,3228.5C 3500.96,3225.35 3505.3,3226.02 3509,3230.5C 3509.84,3234.37 3510.67,3238.21 3511.5,3242C 3510.83,3244 3510.17,3246 3509.5,3248C 3510.05,3267.86 3510.38,3287.7 3510.5,3307.5C 3510.76,3316.54 3507.43,3323.88 3500.5,3329.5C 3496.77,3329.87 3493.77,3331.53 3491.5,3334.5C 3484.66,3336.31 3478,3336.31 3471.5,3334.5C 3473.08,3333.7 3474.74,3333.2 3476.5,3333C 3473.99,3332.91 3471.83,3332.07 3470,3330.5C 3469.59,3330.96 3469.09,3331.29 3468.5,3331.5C 3467.98,3326.93 3466.32,3322.93 3463.5,3319.5C 3463.82,3318.35 3464.48,3317.52 3465.5,3317C 3463.13,3312.71 3462.46,3308.21 3463.5,3303.5C 3463.1,3301.8 3462.6,3300.14 3462,3298.5C 3461.21,3277.65 3460.88,3256.99 3461,3236.5C 3461.1,3233.13 3462.6,3230.63 3465.5,3229C 3468.58,3228.03 3471.58,3227.19 3474.5,3226.5 Z"/></g>
<g><path style="opacity:1" fill="#f2f2f0" d="M 3468.5,3232.5 C 3480.16,3233.33 3491.82,3233.5 3503.5,3233C 3504.33,3233.91 3505.33,3234.58 3506.5,3235C 3506.17,3235.33 3505.83,3235.67 3505.5,3236C 3507.97,3240.22 3507.97,3244.39 3505.5,3248.5C 3505.97,3261.14 3506.3,3273.81 3506.5,3286.5C 3505.82,3293.26 3504.66,3299.93 3503,3306.5C 3501.94,3307.9 3500.61,3308.9 3499,3309.5C 3496.14,3308.74 3493.31,3307.91 3490.5,3307C 3490.96,3306.59 3491.29,3306.09 3491.5,3305.5C 3490.17,3304.83 3488.83,3304.17 3487.5,3303.5C 3482.23,3302.89 3477.23,3301.56 3472.5,3299.5C 3465.78,3281.49 3462.78,3262.82 3463.5,3243.5C 3464.21,3241.22 3464.71,3238.89 3465,3236.5C 3465.69,3234.65 3466.86,3233.32 3468.5,3232.5 Z"/></g>
<g><path style="opacity:1" fill="#7c7b7c" d="M 3256.5,3291.5 C 3258.24,3298.59 3258.91,3305.92 3258.5,3313.5C 3258.17,3313.5 3257.83,3313.5 3257.5,3313.5C 3257.45,3306.15 3257.12,3298.82 3256.5,3291.5 Z"/></g>
<g><path style="opacity:1" fill="#39383d" d="M 1089.5,3308.5 C 1091,3314.61 1091.66,3320.94 1091.5,3327.5C 1090.25,3321.37 1089.59,3315.04 1089.5,3308.5 Z"/></g>
<g><path style="opacity:1" fill="#2f2f2a" d="M 2529.5,3300.5 C 2529.61,3307.9 2528.94,3315.24 2527.5,3322.5C 2526.82,3323.24 2526.15,3323.91 2525.5,3324.5C 2526.68,3316.35 2528.01,3308.35 2529.5,3300.5 Z"/></g>
<g><path style="opacity:1" fill="#323332" d="M 3257.5,3313.5 C 3257.83,3313.5 3258.17,3313.5 3258.5,3313.5C 3259.11,3319.82 3259.44,3326.15 3259.5,3332.5C 3258.36,3326.36 3257.7,3320.03 3257.5,3313.5 Z"/></g>
<g><path style="opacity:1" fill="#424243" d="M 3395.5,3328.5 C 3412.79,3329.47 3430.12,3329.81 3447.5,3329.5C 3430.67,3330.66 3413.67,3330.83 3396.5,3330C 3395.94,3329.62 3395.61,3329.12 3395.5,3328.5 Z"/></g>
<g><path style="opacity:1" fill="#858484" d="M 1099.5,3349.5 C 1100.91,3349.97 1101.57,3350.97 1101.5,3352.5C 1100.09,3352.03 1099.43,3351.03 1099.5,3349.5 Z"/></g>
<g><path style="opacity:1" fill="#4a4c4d" d="M 2514.5,3352.5 C 2514.3,3356.13 2512.63,3358.8 2509.5,3360.5C 2511.17,3357.79 2512.84,3355.12 2514.5,3352.5 Z"/></g>
<g><path style="opacity:1" fill="#646461" d="M 1142.5,3391.5 C 1144.03,3391.43 1145.03,3392.09 1145.5,3393.5C 1143.97,3393.57 1142.97,3392.91 1142.5,3391.5 Z"/></g>
<g><path style="opacity:1" fill="#848287" d="M 1152.5,3395.5 C 1155.15,3395.41 1157.49,3396.08 1159.5,3397.5C 1156.85,3397.59 1154.51,3396.92 1152.5,3395.5 Z"/></g>
<g><path style="opacity:1" fill="#b6b4b7" d="M 1160.5,3397.5 C 1169.72,3397.24 1178.72,3397.9 1187.5,3399.5C 1184.83,3399.5 1182.17,3399.5 1179.5,3399.5C 1172.95,3399.55 1166.62,3398.88 1160.5,3397.5 Z"/></g>
<g><path style="opacity:1" fill="#999c9b" d="M 3328.5,3397.5 C 3331.52,3397.34 3334.52,3397.5 3337.5,3398C 3338.42,3398.28 3339.08,3398.78 3339.5,3399.5C 3335.64,3399.19 3331.97,3398.52 3328.5,3397.5 Z"/></g>
<g><path style="opacity:1" fill="#e1e1e1" d="M 3664.5,3396.5 C 3661.13,3398.06 3657.47,3398.89 3653.5,3399C 3638.83,3399.39 3624.16,3399.89 3609.5,3400.5C 3607.5,3400.5 3605.5,3400.5 3603.5,3400.5C 3604.95,3399.7 3606.62,3399.2 3608.5,3399C 3627.23,3398.98 3645.89,3398.15 3664.5,3396.5 Z"/></g>
<g><path style="opacity:1" fill="#a7abb1" d="M 2442.5,3398.5 C 2419.67,3399.5 2396.67,3399.83 2373.5,3399.5C 2019.17,3399.26 1664.83,3399.59 1310.5,3400.5C 1270.33,3400.83 1230.33,3400.5 1190.5,3399.5C 1607.83,3398.65 2025.17,3398.32 2442.5,3398.5 Z"/></g>
<g><path style="opacity:1" fill="#53575e" d="M 1179.5,3399.5 C 1182.17,3399.5 1184.83,3399.5 1187.5,3399.5C 1188.5,3399.5 1189.5,3399.5 1190.5,3399.5C 1230.33,3400.5 1270.33,3400.83 1310.5,3400.5C 1310.5,3400.83 1310.5,3401.17 1310.5,3401.5C 1270.17,3401.67 1229.83,3401.5 1189.5,3401C 1185.97,3400.82 1182.64,3400.32 1179.5,3399.5 Z"/></g>
<g><path style="opacity:1" fill="#1c1d24" d="M 2373.5,3399.5 C 2019.33,3401.21 1665,3401.87 1310.5,3401.5C 1310.5,3401.17 1310.5,3400.83 1310.5,3400.5C 1664.83,3399.59 2019.17,3399.26 2373.5,3399.5 Z"/></g>
<g><path style="opacity:1" fill="#696969" d="M 3344.5,3399.5 C 3430.82,3400.48 3517.15,3400.81 3603.5,3400.5C 3605.5,3400.5 3607.5,3400.5 3609.5,3400.5C 3522,3401.67 3434.33,3401.83 3346.5,3401C 3345.58,3400.72 3344.92,3400.22 3344.5,3399.5 Z"/></g>
</svg>
