<svg version="1.1" id="Layer_1" xmlns="http://www.w3.org/2000/svg" xmlns:xlink="http://www.w3.org/1999/xlink" x="0px" y="0px"
	 width="100%" viewBox="0 0 4320 4320" enable-background="new 0 0 4320 4320" xml:space="preserve">
<path fill="#000000" opacity="1.000000" stroke="none" 
	d="
M2852.000000,4324.000000 
	C1901.442749,4324.000000 952.885620,4324.000000 4.164207,4324.000000 
	C4.164207,2884.275635 4.164207,1444.551270 4.164207,4.413459 
	C1443.558105,4.413459 2883.116455,4.413459 4323.337402,4.413459 
	C4323.337402,1443.999756 4323.337402,2883.999756 4323.337402,4324.000000 
	C3833.882812,4324.000000 3343.941406,4324.000000 2852.000000,4324.000000 
M3737.013672,2669.655762 
	C3736.689697,2663.765137 3736.365723,2657.874512 3736.950928,2648.332275 
	C3737.207275,2581.026123 3737.617920,2513.720215 3737.693115,2446.413818 
	C3738.038086,2137.177979 3738.171387,1827.942017 3738.857422,1518.707153 
	C3738.900146,1499.437866 3733.530273,1483.229614 3721.311768,1469.248413 
	C3713.019287,1459.759644 3704.001465,1450.641235 3694.111572,1442.882690 
	C3683.018799,1434.179932 3669.746826,1428.923950 3655.463867,1428.316528 
	C3623.544922,1426.958862 3591.603516,1425.547119 3559.664551,1425.370850 
	C3483.690430,1424.951538 3407.712646,1425.296753 3331.736572,1425.160278 
	C3322.440918,1425.143555 3313.059570,1424.678467 3303.873535,1423.348389 
	C3289.800049,1421.310547 3276.702393,1416.207031 3266.255371,1406.224609 
	C3247.852783,1388.640625 3234.276367,1368.634033 3236.190430,1341.498901 
	C3236.424316,1338.184570 3236.180420,1334.836914 3236.166016,1331.504639 
	C3235.745361,1234.204346 3235.407471,1136.903564 3234.804443,1039.604370 
	C3234.726318,1026.978882 3233.556641,1014.335449 3232.341064,1001.753540 
	C3231.837891,996.546265 3230.557129,991.184265 3228.467529,986.400330 
	C3219.696777,966.320190 3205.231934,950.914978 3187.619141,938.240845 
	C3173.274902,927.918884 3156.855957,926.437378 3139.957764,926.921936 
	C3139.291748,926.941040 3138.625000,926.918945 3137.958496,926.919128 
	C3047.322266,926.945557 2956.685791,926.933044 2866.049561,927.054443 
	C2856.067139,927.067810 2846.071777,927.645935 2836.107666,928.331055 
	C2826.590332,928.985535 2817.964600,932.380798 2810.331787,938.153137 
	C2805.548340,941.770691 2800.707764,945.324036 2796.073486,949.126160 
	C2778.139404,963.839905 2767.698486,982.212158 2767.816895,1006.027832 
	C2767.922607,1027.351196 2767.261230,1048.678345 2767.367676,1070.001709 
	C2767.777344,1151.961670 2764.235107,1233.909546 2767.320557,1315.897949 
	C2767.946777,1332.539185 2773.271484,1345.711060 2783.720459,1357.358032 
	C2794.007812,1368.824707 2806.277344,1378.049683 2820.199951,1384.822754 
	C2829.878174,1389.531250 2839.958008,1392.349243 2850.985596,1392.010742 
	C2862.963379,1391.642944 2874.970947,1392.402466 2886.965088,1392.379028 
	C2975.602539,1392.205566 3064.240234,1391.952393 3152.877686,1391.747314 
	C3161.540283,1391.727295 3170.223389,1391.505859 3178.863281,1391.983643 
	C3230.142578,1394.819092 3268.323730,1434.886475 3268.254883,1486.144165 
	C3268.190186,1534.125732 3267.574951,1582.106323 3267.331787,1630.088013 
	C3267.274414,1641.386230 3267.737549,1652.687256 3266.930420,1665.400269 
	C3267.204102,1667.632324 3267.477783,1669.864502 3266.643311,1675.307373 
	C3266.108887,1701.284180 3265.113037,1727.260986 3265.108398,1753.237915 
	C3265.018311,2257.622314 3265.001953,2762.006592 3265.183350,3266.391113 
	C3265.191650,3289.001953 3267.290771,3311.609375 3268.258301,3334.224854 
	C3268.613037,3342.518799 3270.777588,3350.447266 3276.318848,3356.322998 
	C3287.705078,3368.396240 3299.225586,3380.538330 3312.029297,3391.016846 
	C3322.326660,3399.444580 3334.864746,3404.531982 3348.794189,3405.018555 
	C3359.421143,3405.390137 3370.023926,3407.024658 3380.639893,3407.050293 
	C3453.265381,3407.225586 3525.891846,3407.266846 3598.517090,3407.019775 
	C3618.490234,3406.951660 3638.467285,3405.921631 3658.427734,3405.008789 
	C3668.478516,3404.549316 3678.001465,3402.124023 3686.939209,3396.927246 
	C3716.041260,3380.005615 3733.465088,3355.784668 3735.328369,3321.513672 
	C3735.689941,3314.863770 3735.837646,3308.196045 3735.870850,3301.535400 
	C3736.060303,3263.557129 3736.267090,3225.578857 3736.318359,3187.600586 
	C3736.544434,3020.363281 3736.726807,2853.125732 3736.875244,2685.888428 
	C3736.879150,2681.261719 3736.320068,2676.634766 3737.013672,2669.655762 
M2417.831055,2939.754883 
	C2394.512451,2939.558838 2371.193848,2939.192383 2347.875244,2939.192871 
	C2066.581299,2939.199951 1785.287476,2939.281982 1503.993530,2939.298828 
	C1393.343018,2939.305420 1282.692261,2939.239502 1172.041992,2939.068359 
	C1162.744141,2939.053955 1153.336304,2938.705566 1144.169556,2937.285645 
	C1097.106567,2929.996338 1060.803101,2887.320557 1060.785278,2839.737061 
	C1060.756226,2762.414551 1060.759766,2685.092285 1060.734863,2607.769775 
	C1060.723022,2571.108398 1060.941040,2534.443848 1060.546509,2497.786377 
	C1060.313965,2476.177979 1066.864746,2457.037354 1080.044800,2440.312500 
	C1086.597656,2431.997070 1094.223877,2424.424805 1102.002563,2417.203857 
	C1111.564453,2408.327881 1122.962158,2403.654297 1136.389648,2403.433838 
	C1163.703857,2402.985596 1191.007080,2401.213379 1218.316040,2401.185547 
	C1450.283203,2400.948975 1682.250854,2400.984863 1914.218262,2400.920410 
	C1921.547974,2400.918213 1928.911011,2401.117432 1936.201782,2400.525635 
	C1967.446411,2397.988525 1994.243652,2386.604248 2013.945557,2361.085938 
	C2022.696533,2349.751221 2029.023926,2337.692627 2029.323608,2322.941162 
	C2029.797241,2299.624268 2031.243042,2276.310547 2031.135376,2253.000732 
	C2030.771729,2174.348389 2029.760254,2095.698975 2029.378174,2017.046631 
	C2029.317017,2004.451660 2030.471680,1991.734009 2032.381958,1979.275024 
	C2034.936279,1962.614624 2041.817871,1947.365601 2051.495605,1933.589111 
	C2066.133789,1912.751587 2087.811523,1902.540283 2111.540527,1897.009888 
	C2124.362305,1894.021606 2137.948975,1893.361572 2151.197266,1893.308716 
	C2238.516357,1892.960327 2325.837402,1893.109253 2413.157715,1892.974609 
	C2428.482422,1892.950928 2443.804932,1892.298218 2459.130371,1892.036743 
	C2478.247070,1891.710327 2493.728516,1883.569458 2506.884033,1870.208496 
	C2516.369385,1860.575073 2523.624512,1849.569458 2528.292480,1836.835693 
	C2533.856934,1821.656738 2536.343506,1806.052612 2536.324707,1789.865967 
	C2536.222412,1701.879517 2536.326660,1613.892578 2536.346924,1525.905884 
	C2536.347656,1522.574219 2536.512939,1519.205322 2536.100342,1515.916626 
	C2531.568604,1479.801514 2515.010010,1451.933838 2481.174561,1435.851929 
	C2465.236084,1428.276245 2448.620605,1424.985596 2430.905762,1425.033203 
	C2331.586914,1425.300171 2232.267334,1425.178467 2132.947998,1425.162842 
	C2126.286133,1425.161743 2119.570312,1425.444092 2112.971191,1424.739014 
	C2080.539551,1421.273804 2056.861816,1405.055054 2043.289062,1375.185059 
	C2035.509766,1358.065063 2031.007690,1340.149414 2031.367920,1321.030762 
	C2031.907715,1292.376709 2031.903442,1263.709106 2031.846191,1235.047974 
	C2031.693115,1158.394165 2031.363525,1081.740967 2031.176758,1005.087280 
	C2031.153687,995.620789 2030.614624,985.933044 2025.337158,978.105469 
	C2005.731689,949.027100 1982.828613,925.771057 1943.466797,926.604187 
	C1891.497559,927.704224 1839.487427,926.871826 1787.494873,926.875061 
	C1425.545654,926.897583 1063.596436,926.915771 701.647156,926.971252 
	C690.988037,926.972900 680.318298,927.143677 669.672729,927.644958 
	C658.014526,928.193909 647.586670,932.426514 638.604248,939.843445 
	C632.960815,944.503357 627.623108,949.539246 622.229431,954.494751 
	C602.898804,972.254578 594.169922,994.242859 594.721863,1020.506653 
	C595.295959,1047.824585 594.932739,1075.162964 594.928894,1102.492432 
	C594.919678,1167.816528 595.177368,1233.142944 594.702820,1298.463745 
	C594.522034,1323.350708 602.769653,1343.995239 620.855957,1360.886597 
	C625.239197,1364.980225 629.428589,1369.286621 633.896240,1373.283813 
	C647.261658,1385.241577 662.493958,1392.173218 680.894836,1392.162964 
	C721.550537,1392.140625 762.206726,1392.929321 802.862305,1392.892334 
	C1188.139893,1392.542358 1573.417480,1392.087402 1958.694946,1391.676147 
	C1965.359619,1391.668945 1972.090454,1391.254150 1978.678345,1392.008667 
	C2013.656738,1396.014893 2043.452637,1408.195557 2056.986084,1444.259399 
	C2061.642334,1456.668213 2067.124023,1469.128906 2069.201904,1482.052612 
	C2071.824951,1498.367798 2072.162598,1515.184814 2072.077881,1531.778198 
	C2071.649414,1615.760132 2070.812988,1699.740234 2069.997559,1783.719727 
	C2069.829346,1801.044800 2069.867432,1818.422363 2068.495605,1835.671265 
	C2067.071533,1853.577271 2064.139160,1871.166626 2053.037354,1886.536377 
	C2030.218018,1918.127563 1999.326904,1933.467651 1960.791748,1933.511353 
	C1796.150146,1933.698486 1631.508057,1933.615112 1466.866455,1933.781616 
	C1373.550659,1933.875977 1280.233765,1934.645142 1186.920532,1934.276001 
	C1160.332275,1934.170898 1138.728516,1942.381348 1122.095215,1963.190186 
	C1121.680420,1963.709106 1121.190918,1964.168579 1120.731079,1964.650879 
	C1107.815674,1978.202759 1100.413086,1994.133667 1099.835205,2013.017944 
	C1099.325439,2029.671631 1098.374390,2046.324463 1098.360229,2062.978271 
	C1098.304199,2128.967285 1098.820801,2194.957764 1098.535767,2260.945068 
	C1098.411987,2289.586914 1097.354370,2318.250488 1095.773560,2346.851562 
	C1094.816528,2364.167969 1092.059692,2381.479004 1081.000977,2395.859863 
	C1065.292236,2416.287598 1044.971069,2429.242676 1019.006409,2432.203857 
	C1011.739563,2433.032715 1004.372131,2433.254395 997.049561,2433.274170 
	C948.390564,2433.405029 899.731201,2433.463867 851.072021,2433.432129 
	C798.414185,2433.397705 745.732056,2434.195068 693.105835,2432.853027 
	C645.297729,2431.634277 593.221313,2475.008789 594.355957,2532.046143 
	C596.224854,2625.996826 594.898499,2720.010010 595.063538,2813.996582 
	C595.075195,2820.612061 595.265625,2827.518555 597.089355,2833.790771 
	C607.039246,2868.011230 641.010559,2905.769531 684.704407,2902.346924 
	C688.677490,2902.035889 692.699829,2902.391113 696.699036,2902.371094 
	C758.020447,2902.066406 819.341858,2901.735352 880.663330,2901.442383 
	C920.656555,2901.251465 960.650452,2901.188965 1000.643127,2900.922852 
	C1029.898193,2900.728271 1053.314941,2913.872314 1073.244141,2933.671143 
	C1079.647339,2940.032471 1084.759521,2948.596924 1087.915161,2957.098877 
	C1092.034668,2968.198486 1094.981689,2980.120361 1096.000732,2991.898682 
	C1097.836426,3013.113525 1098.470947,3034.483154 1098.538452,3055.791260 
	C1098.777100,3131.113037 1098.498535,3206.436279 1098.582031,3281.758789 
	C1098.596802,3295.078613 1100.086792,3308.416016 1099.718994,3321.712891 
	C1098.703247,3358.433594 1138.252686,3404.765625 1181.940186,3404.783203 
	C1225.911011,3404.801025 1269.881836,3406.823242 1313.851562,3406.781250 
	C1625.806152,3406.481934 1937.760620,3405.934814 2249.714844,3405.326660 
	C2317.701416,3405.194092 2385.686523,3404.468018 2453.672852,3404.072510 
	C2481.440918,3403.911133 2501.826660,3390.493408 2517.092773,3368.422119 
	C2528.241943,3352.303467 2535.710693,3334.641602 2536.656494,3314.694824 
	C2537.287354,3301.390625 2538.592529,3288.090088 2538.583252,3274.788574 
	C2538.530518,3198.802002 2538.177734,3122.815186 2537.910156,3046.828613 
	C2537.895996,3042.831787 2537.706299,3038.835693 2537.632812,3034.838623 
	C2537.052490,3003.344238 2522.392090,2978.833008 2499.432373,2958.631348 
	C2489.783691,2950.141846 2478.828369,2943.931396 2465.579590,2942.976074 
	C2450.972900,2941.923096 2436.364502,2940.895752 2417.831055,2939.754883 
z"/>
<path fill="#FEFEFE" opacity="1.000000" stroke="none" 
	d="
M2419.793945,2939.806152 
	C2436.364502,2940.895752 2450.972900,2941.923096 2465.579590,2942.976074 
	C2478.828369,2943.931396 2489.783691,2950.141846 2499.432373,2958.631348 
	C2522.392090,2978.833008 2537.052490,3003.344238 2537.632812,3034.838623 
	C2537.706299,3038.835693 2537.895996,3042.831787 2537.910156,3046.828613 
	C2538.177734,3122.815186 2538.530518,3198.802002 2538.583252,3274.788574 
	C2538.592529,3288.090088 2537.287354,3301.390625 2536.656494,3314.694824 
	C2535.710693,3334.641602 2528.241943,3352.303467 2517.092773,3368.422119 
	C2501.826660,3390.493408 2481.440918,3403.911133 2453.672852,3404.072510 
	C2385.686523,3404.468018 2317.701416,3405.194092 2249.714844,3405.326660 
	C1937.760620,3405.934814 1625.806152,3406.481934 1313.851562,3406.781250 
	C1269.881836,3406.823242 1225.911011,3404.801025 1181.940186,3404.783203 
	C1138.252686,3404.765625 1098.703247,3358.433594 1099.718994,3321.712891 
	C1100.086792,3308.416016 1098.596802,3295.078613 1098.582031,3281.758789 
	C1098.498535,3206.436279 1098.777100,3131.113037 1098.538452,3055.791260 
	C1098.470947,3034.483154 1097.836426,3013.113525 1096.000732,2991.898682 
	C1094.981689,2980.120361 1092.034668,2968.198486 1087.915161,2957.098877 
	C1084.759521,2948.596924 1079.647339,2940.032471 1073.244141,2933.671143 
	C1053.314941,2913.872314 1029.898193,2900.728271 1000.643127,2900.922852 
	C960.650452,2901.188965 920.656555,2901.251465 880.663330,2901.442383 
	C819.341858,2901.735352 758.020447,2902.066406 696.699036,2902.371094 
	C692.699829,2902.391113 688.677490,2902.035889 684.704407,2902.346924 
	C641.010559,2905.769531 607.039246,2868.011230 597.089355,2833.790771 
	C595.265625,2827.518555 595.075195,2820.612061 595.063538,2813.996582 
	C594.898499,2720.010010 596.224854,2625.996826 594.355957,2532.046143 
	C593.221313,2475.008789 645.297729,2431.634277 693.105835,2432.853027 
	C745.732056,2434.195068 798.414185,2433.397705 851.072021,2433.432129 
	C899.731201,2433.463867 948.390564,2433.405029 997.049561,2433.274170 
	C1004.372131,2433.254395 1011.739563,2433.032715 1019.006409,2432.203857 
	C1044.971069,2429.242676 1065.292236,2416.287598 1081.000977,2395.859863 
	C1092.059692,2381.479004 1094.816528,2364.167969 1095.773560,2346.851562 
	C1097.354370,2318.250488 1098.411987,2289.586914 1098.535767,2260.945068 
	C1098.820801,2194.957764 1098.304199,2128.967285 1098.360229,2062.978271 
	C1098.374390,2046.324463 1099.325439,2029.671631 1099.835205,2013.017944 
	C1100.413086,1994.133667 1107.815674,1978.202759 1120.731079,1964.650879 
	C1121.190918,1964.168579 1121.680420,1963.709106 1122.095215,1963.190186 
	C1138.728516,1942.381348 1160.332275,1934.170898 1186.920532,1934.276001 
	C1280.233765,1934.645142 1373.550659,1933.875977 1466.866455,1933.781616 
	C1631.508057,1933.615112 1796.150146,1933.698486 1960.791748,1933.511353 
	C1999.326904,1933.467651 2030.218018,1918.127563 2053.037354,1886.536377 
	C2064.139160,1871.166626 2067.071533,1853.577271 2068.495605,1835.671265 
	C2069.867432,1818.422363 2069.829346,1801.044800 2069.997559,1783.719727 
	C2070.812988,1699.740234 2071.649414,1615.760132 2072.077881,1531.778198 
	C2072.162598,1515.184814 2071.824951,1498.367798 2069.201904,1482.052612 
	C2067.124023,1469.128906 2061.642334,1456.668213 2056.986084,1444.259399 
	C2043.452637,1408.195557 2013.656738,1396.014893 1978.678345,1392.008667 
	C1972.090454,1391.254150 1965.359619,1391.668945 1958.694946,1391.676147 
	C1573.417480,1392.087402 1188.139893,1392.542358 802.862305,1392.892334 
	C762.206726,1392.929321 721.550537,1392.140625 680.894836,1392.162964 
	C662.493958,1392.173218 647.261658,1385.241577 633.896240,1373.283813 
	C629.428589,1369.286621 625.239197,1364.980225 620.855957,1360.886597 
	C602.769653,1343.995239 594.522034,1323.350708 594.702820,1298.463745 
	C595.177368,1233.142944 594.919678,1167.816528 594.928894,1102.492432 
	C594.932739,1075.162964 595.295959,1047.824585 594.721863,1020.506653 
	C594.169922,994.242859 602.898804,972.254578 622.229431,954.494751 
	C627.623108,949.539246 632.960815,944.503357 638.604248,939.843445 
	C647.586670,932.426514 658.014526,928.193909 669.672729,927.644958 
	C680.318298,927.143677 690.988037,926.972900 701.647156,926.971252 
	C1063.596436,926.915771 1425.545654,926.897583 1787.494873,926.875061 
	C1839.487427,926.871826 1891.497559,927.704224 1943.466797,926.604187 
	C1982.828613,925.771057 2005.731689,949.027100 2025.337158,978.105469 
	C2030.614624,985.933044 2031.153687,995.620789 2031.176758,1005.087280 
	C2031.363525,1081.740967 2031.693115,1158.394165 2031.846191,1235.047974 
	C2031.903442,1263.709106 2031.907715,1292.376709 2031.367920,1321.030762 
	C2031.007690,1340.149414 2035.509766,1358.065063 2043.289062,1375.185059 
	C2056.861816,1405.055054 2080.539551,1421.273804 2112.971191,1424.739014 
	C2119.570312,1425.444092 2126.286133,1425.161743 2132.947998,1425.162842 
	C2232.267334,1425.178467 2331.586914,1425.300171 2430.905762,1425.033203 
	C2448.620605,1424.985596 2465.236084,1428.276245 2481.174561,1435.851929 
	C2515.010010,1451.933838 2531.568604,1479.801514 2536.100342,1515.916626 
	C2536.512939,1519.205322 2536.347656,1522.574219 2536.346924,1525.905884 
	C2536.326660,1613.892578 2536.222412,1701.879517 2536.324707,1789.865967 
	C2536.343506,1806.052612 2533.856934,1821.656738 2528.292480,1836.835693 
	C2523.624512,1849.569458 2516.369385,1860.575073 2506.884033,1870.208496 
	C2493.728516,1883.569458 2478.247070,1891.710327 2459.130371,1892.036743 
	C2443.804932,1892.298218 2428.482422,1892.950928 2413.157715,1892.974609 
	C2325.837402,1893.109253 2238.516357,1892.960327 2151.197266,1893.308716 
	C2137.948975,1893.361572 2124.362305,1894.021606 2111.540527,1897.009888 
	C2087.811523,1902.540283 2066.133789,1912.751587 2051.495605,1933.589111 
	C2041.817871,1947.365601 2034.936279,1962.614624 2032.381958,1979.275024 
	C2030.471680,1991.734009 2029.317017,2004.451660 2029.378174,2017.046631 
	C2029.760254,2095.698975 2030.771729,2174.348389 2031.135376,2253.000732 
	C2031.243042,2276.310547 2029.797241,2299.624268 2029.323608,2322.941162 
	C2029.023926,2337.692627 2022.696533,2349.751221 2013.945557,2361.085938 
	C1994.243652,2386.604248 1967.446411,2397.988525 1936.201782,2400.525635 
	C1928.911011,2401.117432 1921.547974,2400.918213 1914.218262,2400.920410 
	C1682.250854,2400.984863 1450.283203,2400.948975 1218.316040,2401.185547 
	C1191.007080,2401.213379 1163.703857,2402.985596 1136.389648,2403.433838 
	C1122.962158,2403.654297 1111.564453,2408.327881 1102.002563,2417.203857 
	C1094.223877,2424.424805 1086.597656,2431.997070 1080.044800,2440.312500 
	C1066.864746,2457.037354 1060.313965,2476.177979 1060.546509,2497.786377 
	C1060.941040,2534.443848 1060.723022,2571.108398 1060.734863,2607.769775 
	C1060.759766,2685.092285 1060.756226,2762.414551 1060.785278,2839.737061 
	C1060.803101,2887.320557 1097.106567,2929.996338 1144.169556,2937.285645 
	C1153.336304,2938.705566 1162.744141,2939.053955 1172.041992,2939.068359 
	C1282.692261,2939.239502 1393.343018,2939.305420 1503.993530,2939.298828 
	C1785.287476,2939.281982 2066.581299,2939.199951 2347.875244,2939.192871 
	C2371.193848,2939.192383 2394.512451,2939.558838 2419.793945,2939.806152 
z"/>
<path fill="#FEFEFE" opacity="1.000000" stroke="none" 
	d="
M3267.961426,1663.986938 
	C3267.737549,1652.687256 3267.274414,1641.386230 3267.331787,1630.088013 
	C3267.574951,1582.106323 3268.190186,1534.125732 3268.254883,1486.144165 
	C3268.323730,1434.886475 3230.142578,1394.819092 3178.863281,1391.983643 
	C3170.223389,1391.505859 3161.540283,1391.727295 3152.877686,1391.747314 
	C3064.240234,1391.952393 2975.602539,1392.205566 2886.965088,1392.379028 
	C2874.970947,1392.402466 2862.963379,1391.642944 2850.985596,1392.010742 
	C2839.958008,1392.349243 2829.878174,1389.531250 2820.199951,1384.822754 
	C2806.277344,1378.049683 2794.007812,1368.824707 2783.720459,1357.358032 
	C2773.271484,1345.711060 2767.946777,1332.539185 2767.320557,1315.897949 
	C2764.235107,1233.909546 2767.777344,1151.961670 2767.367676,1070.001709 
	C2767.261230,1048.678345 2767.922607,1027.351196 2767.816895,1006.027832 
	C2767.698486,982.212158 2778.139404,963.839905 2796.073486,949.126160 
	C2800.707764,945.324036 2805.548340,941.770691 2810.331787,938.153137 
	C2817.964600,932.380798 2826.590332,928.985535 2836.107666,928.331055 
	C2846.071777,927.645935 2856.067139,927.067810 2866.049561,927.054443 
	C2956.685791,926.933044 3047.322266,926.945557 3137.958496,926.919128 
	C3138.625000,926.918945 3139.291748,926.941040 3139.957764,926.921936 
	C3156.855957,926.437378 3173.274902,927.918884 3187.619141,938.240845 
	C3205.231934,950.914978 3219.696777,966.320190 3228.467529,986.400330 
	C3230.557129,991.184265 3231.837891,996.546265 3232.341064,1001.753540 
	C3233.556641,1014.335449 3234.726318,1026.978882 3234.804443,1039.604370 
	C3235.407471,1136.903564 3235.745361,1234.204346 3236.166016,1331.504639 
	C3236.180420,1334.836914 3236.424316,1338.184570 3236.190430,1341.498901 
	C3234.276367,1368.634033 3247.852783,1388.640625 3266.255371,1406.224609 
	C3276.702393,1416.207031 3289.800049,1421.310547 3303.873535,1423.348389 
	C3313.059570,1424.678467 3322.440918,1425.143555 3331.736572,1425.160278 
	C3407.712646,1425.296753 3483.690430,1424.951538 3559.664551,1425.370850 
	C3591.603516,1425.547119 3623.544922,1426.958862 3655.463867,1428.316528 
	C3669.746826,1428.923950 3683.018799,1434.179932 3694.111572,1442.882690 
	C3704.001465,1450.641235 3713.019287,1459.759644 3721.311768,1469.248413 
	C3733.530273,1483.229614 3738.900146,1499.437866 3738.857422,1518.707153 
	C3738.171387,1827.942017 3738.038086,2137.177979 3737.693115,2446.413818 
	C3737.617920,2513.720215 3737.207275,2581.026123 3735.412598,2651.074707 
	C3731.310303,2660.268555 3729.971924,2666.574707 3736.023682,2672.007812 
	C3736.320068,2676.634766 3736.879150,2681.261719 3736.875244,2685.888428 
	C3736.726807,2853.125732 3736.544434,3020.363281 3736.318359,3187.600586 
	C3736.267090,3225.578857 3736.060303,3263.557129 3735.870850,3301.535400 
	C3735.837646,3308.196045 3735.689941,3314.863770 3735.328369,3321.513672 
	C3733.465088,3355.784668 3716.041260,3380.005615 3686.939209,3396.927246 
	C3678.001465,3402.124023 3668.478516,3404.549316 3658.427734,3405.008789 
	C3638.467285,3405.921631 3618.490234,3406.951660 3598.517090,3407.019775 
	C3525.891846,3407.266846 3453.265381,3407.225586 3380.639893,3407.050293 
	C3370.023926,3407.024658 3359.421143,3405.390137 3348.794189,3405.018555 
	C3334.864746,3404.531982 3322.326660,3399.444580 3312.029297,3391.016846 
	C3299.225586,3380.538330 3287.705078,3368.396240 3276.318848,3356.322998 
	C3270.777588,3350.447266 3268.613037,3342.518799 3268.258301,3334.224854 
	C3267.290771,3311.609375 3265.191650,3289.001953 3265.183350,3266.391113 
	C3265.001953,2762.006592 3265.018311,2257.622314 3265.108398,1753.237915 
	C3265.113037,1727.260986 3266.108887,1701.284180 3268.135742,1673.132812 
	C3272.088867,1667.913330 3270.854248,1665.751953 3267.961426,1663.986938 
M3403.869141,1787.245850 
	C3403.048096,1800.404053 3401.900879,1813.552612 3401.513672,1826.723633 
	C3401.226562,1836.498657 3404.793701,1839.898804 3414.451904,1840.016846 
	C3425.632812,1840.153564 3436.818115,1839.921387 3448.295654,1842.811401 
	C3449.560791,1847.759644 3451.666992,1852.272339 3449.559814,1857.942871 
	C3447.868896,1862.494385 3448.617188,1867.952515 3448.290283,1872.901123 
	C3458.641357,1880.223877 3470.685791,1884.000244 3475.648193,1897.042480 
	C3474.339600,1902.506226 3472.933350,1908.822144 3471.290283,1915.075928 
	C3470.290283,1918.880737 3466.963867,1919.535400 3461.213867,1917.745728 
	C3457.445801,1916.835449 3453.708984,1915.330322 3449.903564,1915.130493 
	C3439.939453,1914.606812 3429.935303,1914.872803 3419.965088,1914.425049 
	C3400.670898,1913.558838 3400.752197,1913.445312 3400.766846,1931.770386 
	C3400.833984,2016.975708 3400.856934,2102.181152 3400.888428,2187.386475 
	C3400.889893,2191.380371 3400.653076,2195.380859 3400.815674,2199.366699 
	C3401.218750,2209.227539 3404.326172,2212.272705 3414.583008,2211.731934 
	C3429.185791,2210.962158 3443.767090,2209.737061 3458.338623,2208.485840 
	C3460.090576,2208.334961 3461.724609,2206.810547 3464.151611,2205.534912 
	C3464.606445,2189.071045 3465.062500,2172.554688 3468.644287,2156.242676 
	C3473.336426,2156.730957 3475.821777,2159.364258 3475.843262,2164.049072 
	C3475.924805,2181.909912 3477.605225,2199.891357 3471.881836,2217.331299 
	C3470.644043,2221.102051 3469.314697,2224.891357 3468.603760,2228.777832 
	C3466.823242,2238.515381 3472.092529,2244.485596 3481.820312,2243.633057 
	C3486.254883,2243.244385 3490.611084,2241.959717 3494.308838,2241.220459 
	C3496.779541,2243.358398 3498.734619,2244.385742 3499.709717,2246.003662 
	C3505.298584,2255.273926 3511.865479,2263.307129 3522.364014,2267.473145 
	C3527.805176,2269.632080 3530.728271,2274.890625 3531.189697,2280.001465 
	C3532.337158,2292.707764 3541.720215,2302.988281 3540.942139,2316.291992 
	C3540.740723,2319.738281 3543.635010,2323.850830 3546.115723,2326.813232 
	C3548.045898,2329.117920 3551.755127,2331.746582 3554.305664,2331.413574 
	C3567.302734,2329.716309 3581.579346,2329.203369 3589.049805,2316.047852 
	C3594.595459,2306.281738 3598.032471,2295.772949 3594.134033,2283.747559 
	C3589.436279,2269.255127 3590.616455,2255.138672 3600.621338,2242.464111 
	C3603.226562,2239.163574 3607.838623,2236.014160 3605.527100,2230.230713 
	C3600.176025,2226.624268 3593.773926,2226.987305 3588.481689,2228.880127 
	C3576.757812,2233.073486 3564.820312,2232.370605 3553.001221,2231.728271 
	C3545.241699,2231.306396 3537.513672,2228.713623 3529.975098,2226.424072 
	C3525.575439,2225.087646 3524.971680,2221.667725 3526.814453,2214.831055 
	C3527.156982,2213.560303 3527.822021,2212.376221 3531.912842,2211.811768 
	C3535.875244,2211.946533 3539.838379,2212.213379 3543.799805,2212.188477 
	C3551.732666,2212.138916 3559.739990,2212.567139 3567.578613,2211.635742 
	C3579.156982,2210.260010 3583.875977,2205.668945 3585.595703,2194.150879 
	C3586.758545,2186.363281 3587.032227,2178.355713 3586.830078,2170.468506 
	C3586.288574,2149.322754 3584.767578,2128.191406 3584.681152,2107.049805 
	C3584.641602,2097.404785 3580.805664,2092.239258 3572.194092,2087.102051 
	C3572.447266,2082.416504 3575.682617,2081.169678 3579.525146,2079.427490 
	C3597.857910,2071.115234 3600.361084,2055.000977 3591.277832,2039.015015 
	C3588.136475,2033.485962 3583.460693,2028.828613 3581.534424,2021.029419 
	C3582.500732,2018.010986 3584.288086,2014.997437 3584.305908,2011.973389 
	C3584.481445,1982.298584 3584.397217,1952.621948 3584.240234,1922.946655 
	C3584.230957,1921.163086 3582.970703,1919.386108 3581.966064,1916.749512 
	C3564.461670,1914.059570 3546.913330,1914.465820 3529.369629,1916.800903 
	C3527.650879,1917.029663 3526.166504,1919.020508 3521.550293,1919.649414 
	C3514.374756,1916.660156 3512.463867,1910.323730 3512.208252,1903.573975 
	C3511.913818,1895.813843 3510.317383,1887.593750 3516.954102,1881.144287 
	C3524.970459,1873.354004 3528.338867,1863.886353 3528.375244,1852.615234 
	C3528.391602,1847.600952 3531.209229,1842.595825 3536.325928,1837.953125 
	C3553.479980,1839.994019 3570.586914,1841.573853 3588.005615,1832.930176 
	C3589.165527,1819.093872 3590.648438,1805.272095 3591.264648,1791.411743 
	C3591.424316,1787.820312 3588.871582,1784.108154 3589.730469,1776.459473 
	C3606.376465,1776.194702 3623.027832,1776.115112 3639.666260,1775.600830 
	C3650.930420,1775.252686 3653.097168,1772.644043 3653.441406,1760.869385 
	C3653.460938,1760.203857 3653.432861,1759.536865 3653.433594,1758.870605 
	C3653.520264,1696.906982 3653.626953,1634.943481 3653.665771,1572.979858 
	C3653.669922,1566.323730 3653.622314,1559.633789 3652.983154,1553.019165 
	C3652.060059,1543.470947 3648.945068,1540.195435 3639.140625,1539.267212 
	C3631.211182,1538.516602 3623.166748,1538.540405 3615.191650,1538.795044 
	C3593.389893,1539.490967 3591.597656,1541.583130 3591.250977,1563.171631 
	C3590.363281,1618.457397 3589.070068,1673.738525 3588.552979,1729.027222 
	C3588.399902,1745.404907 3585.672119,1762.067627 3591.140381,1778.237793 
	C3591.276367,1778.640259 3589.170410,1779.800903 3585.361816,1780.225586 
	C3580.882568,1779.223877 3576.403564,1778.222168 3572.023438,1773.675049 
	C3577.522217,1755.559937 3576.067871,1736.933105 3575.804199,1718.438232 
	C3575.739990,1713.940430 3574.278320,1709.314697 3572.720703,1705.015259 
	C3568.817627,1694.241333 3567.475098,1683.237793 3567.918945,1671.824829 
	C3568.305908,1661.880371 3568.058350,1651.908081 3567.958740,1641.949463 
	C3567.925781,1638.653687 3567.873779,1635.269531 3567.126709,1632.091309 
	C3566.142822,1627.905640 3563.137695,1624.666748 3558.824951,1624.824829 
	C3555.900146,1624.932251 3551.843506,1626.501099 3550.391846,1628.763306 
	C3544.682617,1637.659668 3539.494629,1646.749023 3539.832031,1658.180664 
	C3540.183105,1670.065063 3539.386963,1682.004150 3538.653564,1693.892212 
	C3538.168457,1701.758789 3536.964844,1709.584595 3535.987793,1717.416748 
	C3534.360107,1730.468018 3539.976562,1743.223877 3536.681641,1756.634766 
	C3535.258301,1762.429443 3538.742920,1769.429810 3536.655029,1776.568848 
	C3532.382080,1776.342651 3528.713379,1774.927124 3527.641602,1770.378296 
	C3526.586914,1765.902100 3525.533447,1761.302979 3525.453369,1756.740723 
	C3525.080078,1735.537842 3524.622559,1714.321899 3524.979736,1693.123901 
	C3525.638672,1654.028564 3526.990967,1614.945312 3527.703857,1575.850586 
	C3527.847656,1567.974731 3526.779053,1560.020142 3525.636475,1552.194214 
	C3524.557861,1544.803589 3519.724854,1540.175049 3512.323486,1539.532959 
	C3497.898438,1538.281616 3483.385010,1536.760254 3469.159180,1540.749512 
	C3467.291748,1544.820190 3465.645020,1548.410156 3461.118408,1551.509521 
	C3454.070801,1548.226074 3453.071533,1541.744629 3451.927002,1535.039551 
	C3451.174072,1530.627686 3450.321533,1525.562866 3447.669678,1522.279053 
	C3441.447021,1514.572632 3434.632568,1507.032593 3424.140137,1505.152222 
	C3410.912354,1507.491089 3406.477295,1515.792725 3408.007324,1528.221069 
	C3408.652588,1533.462280 3409.525146,1538.684570 3409.935303,1543.943359 
	C3410.706299,1553.827271 3411.555420,1563.726685 3411.695312,1573.629150 
	C3411.767334,1578.706177 3407.408936,1579.683228 3401.970703,1576.465332 
	C3400.888672,1566.009155 3403.678223,1555.237427 3399.737793,1544.899292 
	C3387.238037,1538.401245 3373.856934,1538.791870 3360.633789,1538.545898 
	C3354.867920,1538.438477 3348.604736,1536.372559 3342.283203,1543.007690 
	C3341.698242,1615.898804 3341.077148,1690.228027 3340.590088,1764.558228 
	C3340.569336,1767.705933 3341.791504,1770.861938 3342.458984,1774.133423 
	C3353.143555,1778.144897 3363.737061,1778.292114 3374.292969,1778.821045 
	C3382.882080,1779.251221 3391.458252,1779.936279 3400.700195,1781.969238 
	C3401.311035,1782.894165 3402.134766,1783.552246 3403.869141,1787.245850 
M3460.674316,2719.366943 
	C3452.220459,2720.950439 3443.811768,2722.869629 3435.298584,2724.009277 
	C3428.723145,2724.889893 3422.000732,2724.606445 3415.372803,2725.175537 
	C3405.864990,2725.992188 3403.572266,2728.128418 3402.564209,2737.013428 
	C3402.040283,2741.633545 3401.827881,2746.309814 3401.802246,2750.962646 
	C3401.441650,2816.864502 3401.096191,2882.766357 3400.929688,2948.668701 
	C3400.920410,2952.350098 3402.499023,2956.035400 3403.532959,2960.572021 
	C3421.584473,2960.572021 3438.793457,2960.572021 3455.850342,2963.738037 
	C3455.514893,2967.193848 3454.563721,2970.684082 3450.759766,2971.298096 
	C3446.212891,2972.031982 3441.500244,2972.125977 3436.880615,2971.948242 
	C3424.430176,2971.468994 3415.330078,2977.536865 3407.792236,2986.548828 
	C3402.514893,2992.857910 3402.609375,3000.809326 3408.607910,3006.192139 
	C3417.112305,3013.823730 3426.909180,3019.671387 3438.715088,3019.871338 
	C3459.288086,3020.219727 3479.872803,3020.120361 3500.449219,3019.896973 
	C3509.332520,3019.800537 3514.085693,3015.821533 3515.308350,3007.236572 
	C3516.043945,3002.073486 3516.578857,2996.233154 3514.903564,2991.513672 
	C3511.668213,2982.399414 3512.064209,2973.244873 3512.018066,2963.999023 
	C3511.948730,2950.058594 3511.471924,2936.092041 3512.149170,2922.184326 
	C3512.821289,2908.385010 3514.984619,2894.664062 3515.946289,2880.870605 
	C3516.444092,2873.729736 3520.415039,2871.978271 3527.245117,2875.707764 
	C3527.325439,2885.039795 3527.401367,2894.371826 3527.487305,2903.703857 
	C3527.573242,2913.035645 3527.703857,2922.367432 3527.750244,2931.699463 
	C3527.795654,2940.859131 3527.760010,2950.019531 3527.760010,2959.948486 
	C3538.855957,2961.952637 3548.794434,2961.166260 3558.595459,2960.962891 
	C3568.295410,2960.761475 3578.402344,2963.262451 3587.649902,2958.552979 
	C3588.181885,2955.970947 3588.916016,2954.060303 3588.920166,2952.148438 
	C3589.075195,2883.492432 3589.205078,2814.836670 3589.188721,2746.180664 
	C3589.187012,2739.699219 3589.872803,2732.906250 3585.739990,2726.168701 
	C3582.630859,2725.699463 3579.428223,2724.932861 3576.196533,2724.780762 
	C3566.213379,2724.310791 3556.217529,2724.108643 3546.229004,2723.741211 
	C3530.280029,2723.154785 3528.399658,2721.841797 3525.744629,2705.566895 
	C3524.468506,2697.742920 3524.745850,2689.659912 3524.400146,2681.690674 
	C3523.804932,2667.966797 3520.666504,2664.073486 3507.124268,2661.942383 
	C3497.200439,2660.380859 3487.262695,2660.513916 3477.418701,2663.255371 
	C3467.217285,2666.095703 3465.650635,2667.669189 3465.225098,2678.310303 
	C3464.668213,2692.243652 3464.276611,2706.184082 3464.112061,2720.050049 
	C3464.112061,2720.050049 3464.058105,2719.748291 3460.674316,2719.366943 
M3591.351318,2515.868408 
	C3591.026611,2466.843994 3590.734375,2417.819580 3590.333740,2368.795654 
	C3590.285889,2362.955322 3590.143066,2356.979736 3585.475098,2351.004883 
	C3574.563721,2351.004883 3563.371338,2351.008789 3552.179199,2351.003906 
	C3544.232422,2351.000244 3536.239502,2351.304932 3528.763428,2344.030518 
	C3527.390381,2330.138428 3526.063477,2316.241699 3524.619385,2302.357178 
	C3524.099854,2297.361572 3521.722168,2293.031250 3516.796875,2291.768799 
	C3500.504883,2287.592773 3484.207275,2285.674072 3467.507812,2294.978027 
	C3466.430908,2305.404053 3464.875977,2315.923340 3464.411133,2326.490479 
	C3464.078125,2334.068604 3461.959229,2340.812988 3455.044678,2348.090820 
	C3446.487549,2349.061523 3437.948242,2350.271484 3429.366943,2350.921631 
	C3423.411621,2351.373047 3417.382812,2350.801270 3411.414307,2351.152100 
	C3405.538330,2351.497803 3402.760742,2354.064941 3402.152588,2359.605469 
	C3401.646729,2364.216064 3401.670898,2368.895996 3401.642090,2373.546387 
	C3401.420166,2409.486084 3401.225586,2445.426025 3401.060791,2481.365723 
	C3401.002930,2493.970703 3401.051270,2506.576172 3401.051270,2520.595703 
	C3405.730225,2521.310791 3410.061523,2522.303955 3414.436035,2522.560547 
	C3420.307617,2522.904297 3426.212646,2522.678711 3431.737061,2525.681152 
	C3430.153076,2527.607422 3428.939209,2530.206055 3426.909912,2531.322998 
	C3422.303223,2533.859131 3417.283447,2535.639404 3412.453125,2537.775391 
	C3397.379639,2544.441162 3397.824463,2550.813232 3406.669922,2564.053955 
	C3408.832520,2567.291748 3411.791260,2570.262451 3414.982422,2572.503662 
	C3431.435791,2584.056885 3452.621582,2579.843018 3456.248779,2558.665527 
	C3456.560547,2556.845703 3457.735107,2555.173828 3458.676025,2553.057129 
	C3461.345703,2552.710205 3463.926514,2552.374756 3467.272949,2555.494629 
	C3467.343506,2562.127930 3467.133057,2568.779785 3467.560791,2575.389893 
	C3468.015869,2582.423340 3471.696045,2586.765137 3478.635254,2587.080811 
	C3487.865234,2587.500488 3497.187256,2587.131836 3506.400879,2586.318848 
	C3515.091797,2585.552002 3520.891357,2580.464355 3526.359619,2572.373291 
	C3531.706787,2573.660400 3533.139648,2578.363281 3534.969238,2582.551270 
	C3536.820068,2586.788330 3538.010498,2591.317627 3539.913086,2595.527344 
	C3544.295410,2605.224121 3552.010254,2608.919189 3562.504395,2608.006592 
	C3575.624756,2606.865723 3585.179443,2599.792969 3591.157715,2588.978516 
	C3596.386963,2579.519775 3602.753906,2571.420410 3610.070557,2563.604980 
	C3617.855713,2555.288574 3623.292236,2545.298584 3623.931885,2533.484375 
	C3624.567383,2521.747559 3624.919434,2509.995117 3625.461182,2496.643799 
	C3622.088135,2498.495117 3618.719727,2499.359863 3616.947510,2501.528564 
	C3613.631104,2505.587158 3611.176514,2510.363770 3608.477295,2514.909668 
	C3603.131592,2523.913574 3603.164062,2523.932861 3591.351318,2515.868408 
M3531.929199,3336.079102 
	C3541.247314,3336.208008 3550.579590,3336.709961 3559.879639,3336.359863 
	C3568.972900,3336.017822 3578.503174,3338.237061 3586.694092,3333.418701 
	C3587.447510,3331.550781 3588.182861,3330.371826 3588.371582,3329.111328 
	C3588.665039,3327.153076 3588.661133,3325.138916 3588.655029,3323.148682 
	C3588.437012,3251.225098 3588.205811,3179.301514 3587.941162,3107.377930 
	C3587.938965,3106.762451 3587.493652,3106.131592 3587.195068,3105.538086 
	C3586.904053,3104.958984 3586.535400,3104.419189 3585.413574,3102.552002 
	C3582.046143,3101.786377 3577.679199,3100.124512 3573.244385,3099.917969 
	C3562.607422,3099.423828 3551.934570,3099.748291 3541.284180,3099.453369 
	C3537.494385,3099.348633 3533.727539,3098.409912 3529.825439,3097.833496 
	C3529.045410,3094.333008 3528.232422,3091.817627 3527.954590,3089.244141 
	C3526.669678,3077.342773 3525.547607,3065.423584 3524.339600,3053.513672 
	C3523.358887,3043.841797 3520.083008,3040.455078 3510.687500,3040.060059 
	C3504.038574,3039.780518 3497.353027,3039.719727 3490.711670,3040.075928 
	C3483.609131,3040.457031 3476.045898,3038.098877 3468.510254,3043.605957 
	C3468.166748,3048.216797 3467.540771,3053.395508 3467.447021,3058.584229 
	C3467.279053,3067.905518 3467.644531,3077.239014 3467.376953,3086.555664 
	C3467.183105,3093.301514 3464.433105,3096.300293 3457.731201,3096.853760 
	C3444.492676,3097.947021 3431.216797,3098.580566 3417.959961,3099.459473 
	C3413.401611,3099.761719 3408.854248,3100.228760 3404.570557,3100.597412 
	C3400.390625,3118.377441 3398.762695,3233.469482 3401.361328,3322.773438 
	C3401.472412,3326.587891 3402.710938,3330.369629 3403.467041,3334.394775 
	C3406.689453,3335.141846 3409.219482,3336.258301 3411.734131,3336.224609 
	C3427.694336,3336.009521 3443.651123,3335.541016 3460.818359,3338.010498 
	C3462.028320,3342.398926 3463.171387,3346.807129 3464.461182,3351.171631 
	C3467.930420,3362.915039 3476.068848,3369.245605 3487.723633,3367.725830 
	C3501.069580,3365.986084 3513.145020,3361.545898 3519.624268,3347.985352 
	C3521.801758,3343.428711 3525.364502,3339.533447 3531.929199,3336.079102 
M3651.997070,1841.414795 
	C3651.867188,1836.097778 3652.439209,1830.649658 3651.474854,1825.488525 
	C3648.662842,1810.442139 3642.650391,1797.606323 3626.015137,1793.276489 
	C3621.327881,1792.056641 3616.887695,1791.286255 3612.085205,1797.153320 
	C3614.514648,1812.308472 3605.635254,1826.256714 3600.930664,1840.188721 
	C3603.732910,1850.095093 3609.966797,1854.294800 3618.513428,1855.795654 
	C3623.708496,1856.707764 3628.888428,1857.716553 3634.052490,1858.791382 
	C3646.220947,1861.323608 3648.985107,1859.200928 3651.997070,1841.414795 
M3293.706543,3342.578613 
	C3299.776367,3338.426758 3305.958984,3335.235840 3313.850586,3335.801514 
	C3318.232910,3336.115479 3322.916992,3334.888916 3327.175049,3333.480469 
	C3331.026367,3332.206299 3331.744873,3326.034424 3328.587402,3323.562256 
	C3326.020264,3321.552734 3323.240723,3319.686279 3320.295898,3318.312256 
	C3313.240967,3315.021484 3306.033203,3312.057861 3299.147461,3309.074707 
	C3290.711426,3312.801758 3287.178711,3320.029541 3284.823730,3327.615967 
	C3282.961182,3333.615967 3283.876953,3339.544922 3293.706543,3342.578613 
M3689.013672,1589.143433 
	C3685.454346,1588.446533 3681.229736,1589.161743 3681.040771,1592.723877 
	C3680.520020,1602.527344 3680.727539,1612.440063 3681.664307,1622.212036 
	C3681.988037,1625.589355 3683.978760,1629.977417 3690.468262,1630.156860 
	C3691.832764,1628.295898 3695.156494,1625.848389 3695.201416,1623.342041 
	C3695.397705,1612.414062 3699.419922,1600.940796 3689.013672,1589.143433 
M3559.751953,3066.951904 
	C3559.129883,3063.393799 3557.373291,3060.491943 3553.486816,3060.930664 
	C3551.138184,3061.195557 3547.896729,3062.551270 3546.963135,3064.386963 
	C3545.277100,3067.702148 3544.614990,3071.708984 3544.289307,3075.492920 
	C3544.004395,3078.800293 3545.009521,3082.737793 3549.015869,3082.784912 
	C3551.846680,3082.818359 3555.578125,3081.351807 3557.310303,3079.243164 
	C3559.157715,3076.993652 3559.126709,3073.201416 3559.751953,3066.951904 
M3627.983643,2756.895020 
	C3627.508301,2751.990234 3627.032959,2747.085449 3626.602783,2742.647461 
	C3620.251953,2741.112061 3617.938965,2744.111572 3616.765137,2748.039307 
	C3615.179688,2753.346436 3616.814941,2758.199463 3619.702393,2762.780273 
	C3621.278320,2765.280029 3623.412354,2766.771729 3625.903809,2765.131592 
	C3627.168213,2764.299316 3627.274658,2761.707764 3627.983643,2756.895020 
M3283.977295,1434.194336 
	C3281.935059,1432.636963 3280.105713,1430.471680 3277.800781,1429.664307 
	C3274.323975,1428.446533 3271.524658,1430.332153 3270.003174,1433.590820 
	C3268.322021,1437.191650 3270.022949,1440.500977 3273.024414,1441.673828 
	C3276.380371,1442.985107 3280.410645,1442.979858 3284.083740,1442.703491 
	C3284.767822,1442.651978 3285.151367,1438.608765 3283.977295,1434.194336 
z"/>
<path fill="#FBFBFA" opacity="1.000000" stroke="none" 
	d="
M3736.518555,2670.831787 
	C3729.971924,2666.574707 3731.310303,2660.268555 3734.958008,2652.900635 
	C3736.365723,2657.874512 3736.689697,2663.765137 3736.518555,2670.831787 
z"/>
<path fill="#FBFBFA" opacity="1.000000" stroke="none" 
	d="
M3267.445801,1664.693604 
	C3270.854248,1665.751953 3272.088867,1667.913330 3268.689941,1671.527466 
	C3267.477783,1669.864502 3267.204102,1667.632324 3267.445801,1664.693604 
z"/>
<path fill="#080808" opacity="1.000000" stroke="none" 
	d="
M3459.608887,3335.155762 
	C3443.651123,3335.541016 3427.694336,3336.009521 3411.734131,3336.224609 
	C3409.219482,3336.258301 3406.689453,3335.141846 3403.467041,3334.394775 
	C3402.710938,3330.369629 3401.472412,3326.587891 3401.361328,3322.773438 
	C3398.762695,3233.469482 3400.390625,3118.377441 3404.570557,3100.597412 
	C3408.854248,3100.228760 3413.401611,3099.761719 3417.959961,3099.459473 
	C3431.216797,3098.580566 3444.492676,3097.947021 3457.731201,3096.853760 
	C3464.433105,3096.300293 3467.183105,3093.301514 3467.376953,3086.555664 
	C3467.644531,3077.239014 3467.279053,3067.905518 3467.447021,3058.584229 
	C3467.540771,3053.395508 3468.166748,3048.216797 3468.510254,3043.605957 
	C3476.045898,3038.098877 3483.609131,3040.457031 3490.711670,3040.075928 
	C3497.353027,3039.719727 3504.038574,3039.780518 3510.687500,3040.060059 
	C3520.083008,3040.455078 3523.358887,3043.841797 3524.339600,3053.513672 
	C3525.547607,3065.423584 3526.669678,3077.342773 3527.954590,3089.244141 
	C3528.232422,3091.817627 3529.045410,3094.333008 3529.825439,3097.833496 
	C3533.727539,3098.409912 3537.494385,3099.348633 3541.284180,3099.453369 
	C3551.934570,3099.748291 3562.607422,3099.423828 3573.244385,3099.917969 
	C3577.679199,3100.124512 3582.046143,3101.786377 3585.413574,3102.552002 
	C3586.535400,3104.419189 3586.904053,3104.958984 3587.195068,3105.538086 
	C3587.493652,3106.131592 3587.938965,3106.762451 3587.941162,3107.377930 
	C3588.205811,3179.301514 3588.437012,3251.225098 3588.655029,3323.148682 
	C3588.661133,3325.138916 3588.665039,3327.153076 3588.371582,3329.111328 
	C3588.182861,3330.371826 3587.447510,3331.550781 3586.694092,3333.418701 
	C3578.503174,3338.237061 3568.972900,3336.017822 3559.879639,3336.359863 
	C3550.579590,3336.709961 3541.247314,3336.208008 3530.155518,3333.875977 
	C3528.354736,3321.736816 3528.392578,3311.799561 3528.288818,3301.864258 
	C3527.977783,3272.065186 3527.611328,3242.266602 3527.760254,3210.680176 
	C3528.156006,3196.937988 3528.100830,3184.982910 3527.871826,3173.031006 
	C3527.855225,3172.167480 3526.571045,3171.328125 3525.857178,3170.453857 
	C3519.048340,3179.972168 3518.803223,3181.673828 3519.394043,3213.137939 
	C3516.933838,3222.221680 3511.492432,3226.333984 3502.522217,3227.887695 
	C3498.024414,3227.785156 3495.008789,3228.030029 3490.585938,3227.783691 
	C3482.409912,3226.053711 3475.641846,3224.814941 3468.646484,3221.739502 
	C3466.051270,3200.803467 3465.212646,3181.695068 3467.335693,3161.792236 
	C3471.871338,3161.304443 3475.740234,3160.570801 3479.616211,3160.531006 
	C3491.610107,3160.407471 3503.609131,3160.693115 3515.600830,3160.499756 
	C3519.321045,3160.439941 3523.024414,3159.356934 3527.026367,3158.693848 
	C3529.825928,3138.866455 3525.942627,3120.665527 3523.318359,3101.623535 
	C3519.299561,3100.787842 3515.528564,3099.449951 3511.717041,3099.323242 
	C3503.065186,3099.035400 3494.390137,3099.207275 3485.730957,3099.436768 
	C3465.684326,3099.968506 3462.495117,3103.042969 3461.424805,3122.390381 
	C3461.388184,3123.055176 3461.417725,3123.723145 3461.396973,3124.389404 
	C3460.737061,3145.694824 3459.753662,3166.997070 3459.538574,3188.306885 
	C3459.417725,3200.250977 3460.569092,3212.208252 3460.860840,3226.003906 
	C3460.572021,3255.025146 3460.644775,3282.202637 3460.523193,3309.379150 
	C3460.484863,3317.972656 3459.928223,3326.563721 3459.608887,3335.155762 
z"/>
<path fill="#080808" opacity="1.000000" stroke="none" 
	d="
M3523.475586,2571.981689 
	C3520.891357,2580.464355 3515.091797,2585.552002 3506.400879,2586.318848 
	C3497.187256,2587.131836 3487.865234,2587.500488 3478.635254,2587.080811 
	C3471.696045,2586.765137 3468.015869,2582.423340 3467.560791,2575.389893 
	C3467.133057,2568.779785 3467.343506,2562.127930 3467.315430,2552.456055 
	C3467.138428,2547.608398 3466.919189,2545.799805 3467.203125,2542.536621 
	C3467.582520,2538.040527 3467.458984,2534.998779 3467.572998,2530.811523 
	C3466.535889,2529.051514 3465.260986,2528.436768 3462.857910,2526.824463 
	C3458.757080,2525.662842 3455.784424,2525.498779 3451.411865,2524.779785 
	C3444.042480,2523.716064 3438.072998,2523.207031 3432.103271,2522.697754 
	C3426.212646,2522.678711 3420.307617,2522.904297 3414.436035,2522.560547 
	C3410.061523,2522.303955 3405.730225,2521.310791 3401.051270,2520.595703 
	C3401.051270,2506.576172 3401.002930,2493.970703 3401.060791,2481.365723 
	C3401.225586,2445.426025 3401.420166,2409.486084 3401.642090,2373.546387 
	C3401.670898,2368.895996 3401.646729,2364.216064 3402.152588,2359.605469 
	C3402.760742,2354.064941 3405.538330,2351.497803 3411.414307,2351.152100 
	C3417.382812,2350.801270 3423.411621,2351.373047 3429.366943,2350.921631 
	C3437.948242,2350.271484 3446.487549,2349.061523 3458.394287,2347.958008 
	C3462.832031,2347.975830 3463.920410,2348.126221 3465.041260,2350.049805 
	C3463.924316,2365.706543 3461.997559,2379.577881 3461.778809,2393.476318 
	C3461.235596,2427.991943 3461.434570,2462.519531 3461.434814,2497.042480 
	C3461.434814,2502.335205 3461.501221,2507.703857 3462.354248,2512.903320 
	C3463.657227,2520.845947 3467.729248,2524.515869 3475.706543,2525.074951 
	C3484.302002,2525.677490 3492.966553,2525.341309 3501.550781,2526.036621 
	C3521.935303,2527.688232 3524.199219,2525.898682 3525.886963,2505.241699 
	C3525.941162,2504.580078 3526.041748,2503.917480 3526.033447,2503.256348 
	C3525.486572,2460.802734 3529.330811,2418.326172 3525.067871,2375.877197 
	C3524.144775,2366.685059 3524.894287,2357.324707 3525.869141,2348.045898 
	C3526.865234,2348.049561 3528.816406,2347.648438 3528.816406,2347.648438 
	C3536.239502,2351.304932 3544.232422,2351.000244 3552.179199,2351.003906 
	C3563.371338,2351.008789 3574.563721,2351.004883 3585.475098,2351.004883 
	C3590.143066,2356.979736 3590.285889,2362.955322 3590.333740,2368.795654 
	C3590.734375,2417.819580 3591.026611,2466.843994 3589.589355,2518.083008 
	C3567.583984,2525.446777 3546.084473,2521.837646 3524.763916,2528.256836 
	C3524.319092,2543.357178 3523.897217,2557.669434 3523.475586,2571.981689 
M3511.930664,2549.497314 
	C3511.947021,2543.739258 3510.350342,2538.051270 3504.318604,2536.947510 
	C3485.408936,2533.487305 3479.026611,2537.769775 3479.967285,2554.654297 
	C3480.078369,2556.645508 3479.928467,2558.659912 3480.153564,2560.634521 
	C3481.261963,2570.355469 3491.183105,2575.340332 3499.270508,2569.757080 
	C3505.235107,2565.639648 3511.130127,2560.938965 3511.930664,2549.497314 
z"/>
<path fill="#080807" opacity="1.000000" stroke="none" 
	d="
M3465.519043,2156.038330 
	C3465.062500,2172.554688 3464.606445,2189.071045 3464.151611,2205.534912 
	C3461.724609,2206.810547 3460.090576,2208.334961 3458.338623,2208.485840 
	C3443.767090,2209.737061 3429.185791,2210.962158 3414.583008,2211.731934 
	C3404.326172,2212.272705 3401.218750,2209.227539 3400.815674,2199.366699 
	C3400.653076,2195.380859 3400.889893,2191.380371 3400.888428,2187.386475 
	C3400.856934,2102.181152 3400.833984,2016.975708 3400.766846,1931.770386 
	C3400.752197,1913.445312 3400.670898,1913.558838 3419.965088,1914.425049 
	C3429.935303,1914.872803 3439.939453,1914.606812 3449.903564,1915.130493 
	C3453.708984,1915.330322 3457.445801,1916.835449 3462.271484,1920.746338 
	C3463.561035,1936.395020 3463.855957,1949.042236 3464.008545,1961.691162 
	C3464.217529,1979.001953 3464.174072,1996.317017 3464.511475,2013.625000 
	C3464.767578,2026.747803 3466.806396,2027.854736 3480.304932,2026.763550 
	C3493.513428,2025.695679 3506.804199,2025.649048 3520.310547,2026.504150 
	C3520.793701,2028.739624 3521.025635,2029.625122 3521.012695,2032.040283 
	C3517.730713,2050.338623 3516.604248,2067.137207 3519.115967,2084.409912 
	C3517.171631,2085.579102 3516.424316,2086.589355 3514.216797,2088.116699 
	C3500.529053,2088.743164 3488.591797,2088.610107 3476.751709,2089.616455 
	C3468.246582,2090.338867 3464.868652,2094.082520 3464.803955,2102.553223 
	C3464.668213,2120.378662 3465.238525,2138.209717 3465.519043,2156.038330 
z"/>
<path fill="#0B0B0B" opacity="1.000000" stroke="none" 
	d="
M3587.564697,1780.451538 
	C3588.871582,1784.108154 3591.424316,1787.820312 3591.264648,1791.411743 
	C3590.648438,1805.272095 3589.165527,1819.093872 3588.005615,1832.930176 
	C3570.586914,1841.573853 3553.479980,1839.994019 3533.509766,1836.712158 
	C3529.556396,1832.028809 3528.001709,1828.658813 3527.389648,1825.125610 
	C3526.650146,1820.855957 3526.709717,1816.447998 3526.849121,1810.761108 
	C3526.996826,1807.591919 3526.718750,1805.761719 3526.835693,1802.316895 
	C3527.230713,1794.283813 3527.230713,1787.865234 3527.230713,1780.419678 
	C3523.205078,1779.888428 3519.552734,1779.406372 3514.717529,1778.206787 
	C3510.792480,1777.477417 3508.050781,1777.465576 3503.869629,1776.935913 
	C3490.247314,1775.981079 3477.993164,1774.353149 3466.093506,1778.773926 
	C3465.639893,1778.942261 3464.480225,1777.208984 3463.509033,1774.467285 
	C3463.289062,1763.968384 3463.024658,1755.360962 3463.161865,1746.760010 
	C3463.828857,1705.011841 3464.891846,1663.267700 3465.226318,1621.517456 
	C3465.411865,1598.349731 3464.445068,1575.172729 3463.998047,1552.000000 
	C3465.645020,1548.410156 3467.291748,1544.820190 3469.159180,1540.749512 
	C3483.385010,1536.760254 3497.898438,1538.281616 3512.323486,1539.532959 
	C3519.724854,1540.175049 3524.557861,1544.803589 3525.636475,1552.194214 
	C3526.779053,1560.020142 3527.847656,1567.974731 3527.703857,1575.850586 
	C3526.990967,1614.945312 3525.638672,1654.028564 3524.979736,1693.123901 
	C3524.622559,1714.321899 3525.080078,1735.537842 3525.453369,1756.740723 
	C3525.533447,1761.302979 3526.586914,1765.902100 3527.641602,1770.378296 
	C3528.713379,1774.927124 3532.382080,1776.342651 3540.061523,1776.645752 
	C3552.953369,1776.888550 3562.438965,1777.054443 3571.924316,1777.220459 
	C3576.403564,1778.222168 3580.882568,1779.223877 3586.640381,1780.277344 
	C3587.918945,1780.329224 3587.564697,1780.451538 3587.564697,1780.451538 
z"/>
<path fill="#080807" opacity="1.000000" stroke="none" 
	d="
M3463.813965,2720.121338 
	C3464.276611,2706.184082 3464.668213,2692.243652 3465.225098,2678.310303 
	C3465.650635,2667.669189 3467.217285,2666.095703 3477.418701,2663.255371 
	C3487.262695,2660.513916 3497.200439,2660.380859 3507.124268,2661.942383 
	C3520.666504,2664.073486 3523.804932,2667.966797 3524.400146,2681.690674 
	C3524.745850,2689.659912 3524.468506,2697.742920 3525.744629,2705.566895 
	C3528.399658,2721.841797 3530.280029,2723.154785 3546.229004,2723.741211 
	C3556.217529,2724.108643 3566.213379,2724.310791 3576.196533,2724.780762 
	C3579.428223,2724.932861 3582.630859,2725.699463 3585.739990,2726.168701 
	C3589.872803,2732.906250 3589.187012,2739.699219 3589.188721,2746.180664 
	C3589.205078,2814.836670 3589.075195,2883.492432 3588.920166,2952.148438 
	C3588.916016,2954.060303 3588.181885,2955.970947 3587.649902,2958.552979 
	C3578.402344,2963.262451 3568.295410,2960.761475 3558.595459,2960.962891 
	C3548.794434,2961.166260 3538.855957,2961.952637 3527.760010,2959.948486 
	C3527.760010,2950.019531 3527.795654,2940.859131 3527.750244,2931.699463 
	C3527.703857,2922.367432 3527.573242,2913.035645 3527.487305,2903.703857 
	C3527.401367,2894.371826 3527.325439,2885.039795 3527.258789,2872.040039 
	C3527.072998,2819.539795 3529.299316,2770.611572 3522.657715,2721.248535 
	C3503.827393,2719.363281 3486.169678,2718.900635 3468.469971,2721.961914 
	C3467.065918,2722.204834 3465.372559,2720.773926 3463.813965,2720.121338 
M3498.747070,2671.950684 
	C3485.737061,2672.017334 3482.616699,2682.231201 3480.383789,2691.612793 
	C3477.915283,2701.985107 3483.364990,2707.425049 3494.352783,2708.017578 
	C3513.198242,2709.033203 3517.483398,2704.437500 3515.877441,2684.933105 
	C3515.152588,2676.129639 3514.149414,2675.187012 3498.747070,2671.950684 
z"/>
<path fill="#FBFBFA" opacity="1.000000" stroke="none" 
	d="
M3463.962891,2720.085693 
	C3465.372559,2720.773926 3467.065918,2722.204834 3468.469971,2721.961914 
	C3486.169678,2718.900635 3503.827393,2719.363281 3522.657715,2721.248535 
	C3529.299316,2770.611572 3527.072998,2819.539795 3526.854736,2870.208008 
	C3520.415039,2871.978271 3516.444092,2873.729736 3515.946289,2880.870605 
	C3514.984619,2894.664062 3512.821289,2908.385010 3512.149170,2922.184326 
	C3511.471924,2936.092041 3511.948730,2950.058594 3512.018066,2963.999023 
	C3512.064209,2973.244873 3511.668213,2982.399414 3514.903564,2991.513672 
	C3516.578857,2996.233154 3516.043945,3002.073486 3515.308350,3007.236572 
	C3514.085693,3015.821533 3509.332520,3019.800537 3500.449219,3019.896973 
	C3479.872803,3020.120361 3459.288086,3020.219727 3438.715088,3019.871338 
	C3426.909180,3019.671387 3417.112305,3013.823730 3408.607910,3006.192139 
	C3402.609375,3000.809326 3402.514893,2992.857910 3407.792236,2986.548828 
	C3415.330078,2977.536865 3424.430176,2971.468994 3436.880615,2971.948242 
	C3441.500244,2972.125977 3446.212891,2972.031982 3450.759766,2971.298096 
	C3454.563721,2970.684082 3455.514893,2967.193848 3457.332031,2961.045898 
	C3463.595215,2951.793945 3461.711426,2944.233398 3461.726807,2937.079346 
	C3461.853760,2877.900879 3461.780518,2818.721924 3461.800537,2759.543213 
	C3461.804688,2746.939697 3461.193359,2734.242920 3466.766113,2722.340332 
	C3466.935547,2721.978271 3465.007812,2720.634277 3464.058105,2719.748291 
	C3464.058105,2719.748291 3464.112061,2720.050049 3463.962891,2720.085693 
M3501.655273,2851.597900 
	C3508.714600,2841.451660 3511.041016,2829.475586 3511.619141,2817.824219 
	C3512.733643,2795.364014 3512.361572,2772.799316 3511.811035,2750.297363 
	C3511.428711,2734.660400 3495.262939,2726.239746 3481.583008,2734.074463 
	C3479.506104,2735.263916 3477.265137,2737.857910 3476.913330,2740.088379 
	C3474.967285,2752.420654 3473.593262,2764.842285 3472.003906,2777.231201 
	C3470.287354,2790.613281 3474.310791,2803.416992 3476.060791,2816.434570 
	C3477.372314,2826.189453 3478.854980,2835.989990 3481.295166,2845.504883 
	C3483.722900,2854.970215 3486.974854,2856.035645 3501.655273,2851.597900 
z"/>
<path fill="#FBFBFA" opacity="1.000000" stroke="none" 
	d="
M3467.081543,2156.140625 
	C3465.238525,2138.209717 3464.668213,2120.378662 3464.803955,2102.553223 
	C3464.868652,2094.082520 3468.246582,2090.338867 3476.751709,2089.616455 
	C3488.591797,2088.610107 3500.529053,2088.743164 3515.719971,2088.938721 
	C3521.371826,2091.122314 3523.146973,2090.619629 3524.161377,2087.928955 
	C3523.967041,2087.822266 3523.637695,2087.525391 3522.942139,2089.344727 
	C3522.848633,2093.019043 3523.909668,2094.855469 3523.984375,2096.731201 
	C3525.503418,2134.868652 3526.909424,2173.010986 3528.337891,2211.152100 
	C3527.822021,2212.376221 3527.156982,2213.560303 3526.814453,2214.831055 
	C3524.971680,2221.667725 3525.575439,2225.087646 3529.975098,2226.424072 
	C3537.513672,2228.713623 3545.241699,2231.306396 3553.001221,2231.728271 
	C3564.820312,2232.370605 3576.757812,2233.073486 3588.481689,2228.880127 
	C3593.773926,2226.987305 3600.176025,2226.624268 3605.527100,2230.230713 
	C3607.838623,2236.014160 3603.226562,2239.163574 3600.621338,2242.464111 
	C3590.616455,2255.138672 3589.436279,2269.255127 3594.134033,2283.747559 
	C3598.032471,2295.772949 3594.595459,2306.281738 3589.049805,2316.047852 
	C3581.579346,2329.203369 3567.302734,2329.716309 3554.305664,2331.413574 
	C3551.755127,2331.746582 3548.045898,2329.117920 3546.115723,2326.813232 
	C3543.635010,2323.850830 3540.740723,2319.738281 3540.942139,2316.291992 
	C3541.720215,2302.988281 3532.337158,2292.707764 3531.189697,2280.001465 
	C3530.728271,2274.890625 3527.805176,2269.632080 3522.364014,2267.473145 
	C3511.865479,2263.307129 3505.298584,2255.273926 3499.709717,2246.003662 
	C3498.734619,2244.385742 3496.779541,2243.358398 3494.308838,2241.220459 
	C3490.611084,2241.959717 3486.254883,2243.244385 3481.820312,2243.633057 
	C3472.092529,2244.485596 3466.823242,2238.515381 3468.603760,2228.777832 
	C3469.314697,2224.891357 3470.644043,2221.102051 3471.881836,2217.331299 
	C3477.605225,2199.891357 3475.924805,2181.909912 3475.843262,2164.049072 
	C3475.821777,2159.364258 3473.336426,2156.730957 3467.081543,2156.140625 
z"/>
<path fill="#080807" opacity="1.000000" stroke="none" 
	d="
M3400.040283,1780.508301 
	C3391.458252,1779.936279 3382.882080,1779.251221 3374.292969,1778.821045 
	C3363.737061,1778.292114 3353.143555,1778.144897 3342.458984,1774.133423 
	C3341.791504,1770.861938 3340.569336,1767.705933 3340.590088,1764.558228 
	C3341.077148,1690.228027 3341.698242,1615.898804 3342.283203,1543.007690 
	C3348.604736,1536.372559 3354.867920,1538.438477 3360.633789,1538.545898 
	C3373.856934,1538.791870 3387.238037,1538.401245 3399.737793,1544.899292 
	C3403.678223,1555.237427 3400.888672,1566.009155 3401.955566,1579.878662 
	C3402.354492,1592.842651 3402.768799,1602.393311 3402.593750,1613.736206 
	C3401.751709,1659.090210 3401.316162,1702.652100 3401.386475,1746.213379 
	C3401.402100,1756.001343 3403.185303,1765.786255 3404.081299,1776.715820 
	C3403.988525,1778.622681 3403.968994,1779.386108 3402.953857,1780.037842 
	C3401.318604,1780.120117 3400.679443,1780.314209 3400.040283,1780.508301 
z"/>
<path fill="#040404" opacity="1.000000" stroke="none" 
	d="
M3588.647461,1778.455566 
	C3587.564697,1780.451538 3587.918945,1780.329224 3588.014648,1780.468506 
	C3589.170410,1779.800903 3591.276367,1778.640259 3591.140381,1778.237793 
	C3585.672119,1762.067627 3588.399902,1745.404907 3588.552979,1729.027222 
	C3589.070068,1673.738525 3590.363281,1618.457397 3591.250977,1563.171631 
	C3591.597656,1541.583130 3593.389893,1539.490967 3615.191650,1538.795044 
	C3623.166748,1538.540405 3631.211182,1538.516602 3639.140625,1539.267212 
	C3648.945068,1540.195435 3652.060059,1543.470947 3652.983154,1553.019165 
	C3653.622314,1559.633789 3653.669922,1566.323730 3653.665771,1572.979858 
	C3653.626953,1634.943481 3653.520264,1696.906982 3653.433594,1758.870605 
	C3653.432861,1759.536865 3653.460938,1760.203857 3653.441406,1760.869385 
	C3653.097168,1772.644043 3650.930420,1775.252686 3639.666260,1775.600830 
	C3623.027832,1776.115112 3606.376465,1776.194702 3588.647461,1778.455566 
z"/>
<path fill="#080807" opacity="1.000000" stroke="none" 
	d="
M3462.366211,2719.557617 
	C3465.007812,2720.634277 3466.935547,2721.978271 3466.766113,2722.340332 
	C3461.193359,2734.242920 3461.804688,2746.939697 3461.800537,2759.543213 
	C3461.780518,2818.721924 3461.853760,2877.900879 3461.726807,2937.079346 
	C3461.711426,2944.233398 3463.595215,2951.793945 3457.408203,2959.462891 
	C3438.793457,2960.572021 3421.584473,2960.572021 3403.532959,2960.572021 
	C3402.499023,2956.035400 3400.920410,2952.350098 3400.929688,2948.668701 
	C3401.096191,2882.766357 3401.441650,2816.864502 3401.802246,2750.962646 
	C3401.827881,2746.309814 3402.040283,2741.633545 3402.564209,2737.013428 
	C3403.572266,2728.128418 3405.864990,2725.992188 3415.372803,2725.175537 
	C3422.000732,2724.606445 3428.723145,2724.889893 3435.298584,2724.009277 
	C3443.811768,2722.869629 3452.220459,2720.950439 3462.366211,2719.557617 
z"/>
<path fill="#FBFBFA" opacity="1.000000" stroke="none" 
	d="
M3463.649414,1776.361816 
	C3464.480225,1777.208984 3465.639893,1778.942261 3466.093506,1778.773926 
	C3477.993164,1774.353149 3490.247314,1775.981079 3502.920166,1778.398804 
	C3497.319580,1786.163452 3489.560303,1783.054810 3482.609375,1784.235352 
	C3478.410889,1784.948486 3474.508789,1786.639648 3473.440186,1790.713745 
	C3469.907471,1804.184204 3471.752686,1812.937134 3483.294434,1819.648560 
	C3492.441650,1824.967407 3502.111084,1824.695557 3512.196045,1823.118774 
	C3516.734619,1819.213013 3517.433350,1810.135620 3526.423340,1812.099976 
	C3526.709717,1816.447998 3526.650146,1820.855957 3527.389648,1825.125610 
	C3528.001709,1828.658813 3529.556396,1832.028809 3531.724121,1836.528931 
	C3531.209229,1842.595825 3528.391602,1847.600952 3528.375244,1852.615234 
	C3528.338867,1863.886353 3524.970459,1873.354004 3516.954102,1881.144287 
	C3510.317383,1887.593750 3511.913818,1895.813843 3512.208252,1903.573975 
	C3512.463867,1910.323730 3514.374756,1916.660156 3523.069336,1921.783936 
	C3524.985840,1942.349121 3525.714844,1960.780762 3525.669189,1979.210327 
	C3525.636475,1992.345947 3524.729492,2005.491333 3523.790771,2018.602173 
	C3523.628906,2020.863647 3521.356445,2022.974121 3520.059082,2025.154297 
	C3506.804199,2025.649048 3493.513428,2025.695679 3480.304932,2026.763550 
	C3466.806396,2027.854736 3464.767578,2026.747803 3464.511475,2013.625000 
	C3464.174072,1996.317017 3464.217529,1979.001953 3464.008545,1961.691162 
	C3463.855957,1949.042236 3463.561035,1936.395020 3463.493652,1921.878662 
	C3466.963867,1919.535400 3470.290283,1918.880737 3471.290283,1915.075928 
	C3472.933350,1908.822144 3474.339600,1902.506226 3475.648193,1897.042480 
	C3470.685791,1884.000244 3458.641357,1880.223877 3448.290283,1872.901123 
	C3448.617188,1867.952515 3447.868896,1862.494385 3449.559814,1857.942871 
	C3451.666992,1852.272339 3449.560791,1847.759644 3449.407227,1840.463867 
	C3457.645508,1835.568604 3460.391602,1830.411499 3460.676025,1822.963135 
	C3461.251953,1807.893555 3461.011475,1792.653931 3466.842773,1778.258789 
	C3467.007080,1777.853394 3465.055908,1776.590820 3463.989746,1775.892822 
	C3463.888428,1776.057739 3463.649414,1776.361816 3463.649414,1776.361816 
M3497.260010,2011.972900 
	C3505.733398,2012.178345 3511.134766,2008.846436 3512.114014,1999.744507 
	C3512.461670,1996.514771 3513.879150,1993.413940 3514.615234,1990.209839 
	C3518.510254,1973.254883 3513.958252,1957.511963 3506.836182,1942.464111 
	C3503.516602,1935.450928 3494.173584,1933.785645 3488.138916,1938.823486 
	C3484.807861,1941.604370 3481.893311,1945.723999 3480.486328,1949.822144 
	C3474.808838,1966.360962 3475.439697,1983.604614 3476.320801,2000.740723 
	C3476.674805,2007.624512 3479.553223,2009.964478 3487.893066,2011.780518 
	C3489.796387,2012.195068 3491.845947,2011.939209 3497.260010,2011.972900 
z"/>
<path fill="#0B0B0B" opacity="1.000000" stroke="none" 
	d="
M3530.125488,2211.481934 
	C3526.909424,2173.010986 3525.503418,2134.868652 3523.984375,2096.731201 
	C3523.909668,2094.855469 3522.848633,2093.019043 3524.742920,2089.461914 
	C3542.183350,2088.436768 3557.127441,2089.113770 3572.071533,2089.790771 
	C3580.805664,2092.239258 3584.641602,2097.404785 3584.681152,2107.049805 
	C3584.767578,2128.191406 3586.288574,2149.322754 3586.830078,2170.468506 
	C3587.032227,2178.355713 3586.758545,2186.363281 3585.595703,2194.150879 
	C3583.875977,2205.668945 3579.156982,2210.260010 3567.578613,2211.635742 
	C3559.739990,2212.567139 3551.732666,2212.138916 3543.799805,2212.188477 
	C3539.838379,2212.213379 3535.875244,2211.946533 3530.125488,2211.481934 
z"/>
<path fill="#FBFBFA" opacity="1.000000" stroke="none" 
	d="
M3403.183105,1611.943970 
	C3402.768799,1602.393311 3402.354492,1592.842651 3402.548340,1581.586792 
	C3407.408936,1579.683228 3411.767334,1578.706177 3411.695312,1573.629150 
	C3411.555420,1563.726685 3410.706299,1553.827271 3409.935303,1543.943359 
	C3409.525146,1538.684570 3408.652588,1533.462280 3408.007324,1528.221069 
	C3406.477295,1515.792725 3410.912354,1507.491089 3424.140137,1505.152222 
	C3434.632568,1507.032593 3441.447021,1514.572632 3447.669678,1522.279053 
	C3450.321533,1525.562866 3451.174072,1530.627686 3451.927002,1535.039551 
	C3453.071533,1541.744629 3454.070801,1548.226074 3462.558105,1551.754761 
	C3464.445068,1575.172729 3465.411865,1598.349731 3465.226318,1621.517456 
	C3464.891846,1663.267700 3463.828857,1705.011841 3463.161865,1746.760010 
	C3463.024658,1755.360962 3463.289062,1763.968384 3463.509033,1774.467285 
	C3463.649414,1776.361816 3463.888428,1776.057739 3462.139160,1776.062500 
	C3445.519287,1778.480957 3430.770996,1776.073730 3415.980469,1773.462891 
	C3414.653809,1765.319092 3413.336670,1758.654175 3413.485352,1752.160645 
	C3418.378662,1754.308350 3421.668945,1756.590088 3425.260010,1758.200928 
	C3434.404297,1762.302856 3444.937988,1757.326050 3447.275391,1747.606689 
	C3448.192383,1743.794189 3447.804443,1739.666382 3447.997803,1735.681519 
	C3448.255859,1730.365723 3447.276611,1724.605591 3449.008545,1719.826172 
	C3452.555176,1710.038696 3451.917236,1700.144043 3451.971924,1690.204468 
	C3452.071289,1672.207520 3452.000977,1654.209595 3451.999512,1636.212158 
	C3451.998291,1621.547607 3452.071289,1606.882446 3451.967285,1592.218506 
	C3451.881592,1580.098389 3447.285889,1570.589844 3436.838623,1564.813599 
	C3429.446045,1567.291870 3425.520264,1571.522705 3424.331787,1577.847656 
	C3422.379639,1588.239014 3419.165283,1598.355103 3419.832031,1609.270020 
	C3420.562500,1621.223267 3419.973877,1633.256226 3419.983154,1645.254517 
	C3419.986328,1649.342163 3419.603271,1653.261108 3414.836426,1654.862549 
	C3413.114990,1647.204346 3412.406494,1640.692017 3412.047119,1634.160522 
	C3411.756836,1628.882812 3412.159912,1623.561035 3411.754150,1618.297485 
	C3411.365234,1613.247925 3407.334717,1612.331421 3403.183105,1611.943970 
z"/>
<path fill="#FBFBFA" opacity="1.000000" stroke="none" 
	d="
M3524.917480,2572.177490 
	C3523.897217,2557.669434 3524.319092,2543.357178 3524.763916,2528.256836 
	C3546.084473,2521.837646 3567.583984,2525.446777 3589.398682,2519.920654 
	C3603.164062,2523.932861 3603.131592,2523.913574 3608.477295,2514.909668 
	C3611.176514,2510.363770 3613.631104,2505.587158 3616.947510,2501.528564 
	C3618.719727,2499.359863 3622.088135,2498.495117 3625.461182,2496.643799 
	C3624.919434,2509.995117 3624.567383,2521.747559 3623.931885,2533.484375 
	C3623.292236,2545.298584 3617.855713,2555.288574 3610.070557,2563.604980 
	C3602.753906,2571.420410 3596.386963,2579.519775 3591.157715,2588.978516 
	C3585.179443,2599.792969 3575.624756,2606.865723 3562.504395,2608.006592 
	C3552.010254,2608.919189 3544.295410,2605.224121 3539.913086,2595.527344 
	C3538.010498,2591.317627 3536.820068,2586.788330 3534.969238,2582.551270 
	C3533.139648,2578.363281 3531.706787,2573.660400 3524.917480,2572.177490 
z"/>
<path fill="#0B0B0B" opacity="1.000000" stroke="none" 
	d="
M3520.310547,2026.504150 
	C3521.356445,2022.974121 3523.628906,2020.863647 3523.790771,2018.602173 
	C3524.729492,2005.491333 3525.636475,1992.345947 3525.669189,1979.210327 
	C3525.714844,1960.780762 3524.985840,1942.349121 3524.580566,1922.056030 
	C3526.166504,1919.020508 3527.650879,1917.029663 3529.369629,1916.800903 
	C3546.913330,1914.465820 3564.461670,1914.059570 3581.966064,1916.749512 
	C3582.970703,1919.386108 3584.230957,1921.163086 3584.240234,1922.946655 
	C3584.397217,1952.621948 3584.481445,1982.298584 3584.305908,2011.973389 
	C3584.288086,2014.997437 3582.500732,2018.010986 3578.846191,2022.425049 
	C3561.745117,2025.437134 3547.327881,2027.016968 3532.921631,2028.693848 
	C3529.016113,2029.148438 3525.144531,2029.896973 3521.257324,2030.510742 
	C3521.025635,2029.625122 3520.793701,2028.739624 3520.310547,2026.504150 
z"/>
<path fill="#FBFBFA" opacity="1.000000" stroke="none" 
	d="
M3468.873535,3223.576172 
	C3475.641846,3224.814941 3482.409912,3226.053711 3490.282715,3229.226074 
	C3489.428955,3232.687012 3487.695801,3234.850342 3485.474609,3235.637207 
	C3472.480713,3240.241943 3472.300293,3240.130615 3472.051025,3253.419678 
	C3471.840088,3264.649414 3472.310547,3275.896973 3471.907959,3287.116211 
	C3471.605957,3295.533691 3474.864258,3302.590088 3478.919678,3309.437500 
	C3483.854248,3317.768311 3493.139893,3321.569336 3502.682129,3319.545654 
	C3510.812012,3317.821045 3515.492188,3311.054932 3515.983643,3300.157227 
	C3516.456299,3289.677979 3514.692871,3279.045654 3518.883301,3268.820801 
	C3519.759766,3266.682373 3518.926025,3263.645020 3518.350586,3261.143799 
	C3516.049072,3251.141602 3515.780762,3240.189453 3505.422607,3233.841309 
	C3504.246338,3233.120605 3504.444092,3230.158203 3504.004639,3228.235107 
	C3511.492432,3226.333984 3516.933838,3222.221680 3520.625488,3212.762939 
	C3523.957520,3211.569092 3525.612061,3212.018555 3527.266846,3212.468018 
	C3527.611328,3242.266602 3527.977783,3272.065186 3528.288818,3301.864258 
	C3528.392578,3311.799561 3528.354736,3321.736816 3528.337891,3333.504395 
	C3525.364502,3339.533447 3521.801758,3343.428711 3519.624268,3347.985352 
	C3513.145020,3361.545898 3501.069580,3365.986084 3487.723633,3367.725830 
	C3476.068848,3369.245605 3467.930420,3362.915039 3464.461182,3351.171631 
	C3463.171387,3346.807129 3462.028320,3342.398926 3460.213623,3336.583252 
	C3459.928223,3326.563721 3460.484863,3317.972656 3460.523193,3309.379150 
	C3460.644775,3282.202637 3460.572021,3255.025146 3462.154053,3226.000488 
	C3465.446777,3223.960938 3467.160156,3223.768555 3468.873535,3223.576172 
z"/>
<path fill="#FBFBFA" opacity="1.000000" stroke="none" 
	d="
M3571.973877,1775.447754 
	C3562.438965,1777.054443 3552.953369,1776.888550 3541.732910,1776.302490 
	C3538.742920,1769.429810 3535.258301,1762.429443 3536.681641,1756.634766 
	C3539.976562,1743.223877 3534.360107,1730.468018 3535.987793,1717.416748 
	C3536.964844,1709.584595 3538.168457,1701.758789 3538.653564,1693.892212 
	C3539.386963,1682.004150 3540.183105,1670.065063 3539.832031,1658.180664 
	C3539.494629,1646.749023 3544.682617,1637.659668 3550.391846,1628.763306 
	C3551.843506,1626.501099 3555.900146,1624.932251 3558.824951,1624.824829 
	C3563.137695,1624.666748 3566.142822,1627.905640 3567.126709,1632.091309 
	C3567.873779,1635.269531 3567.925781,1638.653687 3567.958740,1641.949463 
	C3568.058350,1651.908081 3568.305908,1661.880371 3567.918945,1671.824829 
	C3567.475098,1683.237793 3568.817627,1694.241333 3572.720703,1705.015259 
	C3574.278320,1709.314697 3575.739990,1713.940430 3575.804199,1718.438232 
	C3576.067871,1736.933105 3577.522217,1755.559937 3571.973877,1775.447754 
z"/>
<path fill="#FBFBFA" opacity="1.000000" stroke="none" 
	d="
M3521.012695,2032.040283 
	C3525.144531,2029.896973 3529.016113,2029.148438 3532.921631,2028.693848 
	C3547.327881,2027.016968 3561.745117,2025.437134 3577.822021,2023.796997 
	C3583.460693,2028.828613 3588.136475,2033.485962 3591.277832,2039.015015 
	C3600.361084,2055.000977 3597.857910,2071.115234 3579.525146,2079.427490 
	C3575.682617,2081.169678 3572.447266,2082.416504 3572.132812,2088.446289 
	C3557.127441,2089.113770 3542.183350,2088.436768 3525.438477,2087.642578 
	C3523.637695,2087.525391 3523.967041,2087.822266 3523.681641,2087.018555 
	C3522.257812,2085.478760 3521.119873,2084.742432 3519.981689,2084.005859 
	C3516.604248,2067.137207 3517.730713,2050.338623 3521.012695,2032.040283 
z"/>
<path fill="#0B0B0B" opacity="1.000000" stroke="none" 
	d="
M3415.990234,1774.941895 
	C3430.770996,1776.073730 3445.519287,1778.480957 3462.240479,1775.897705 
	C3465.055908,1776.590820 3467.007080,1777.853394 3466.842773,1778.258789 
	C3461.011475,1792.653931 3461.251953,1807.893555 3460.676025,1822.963135 
	C3460.391602,1830.411499 3457.645508,1835.568604 3449.260010,1838.982910 
	C3436.818115,1839.921387 3425.632812,1840.153564 3414.451904,1840.016846 
	C3404.793701,1839.898804 3401.226562,1836.498657 3401.513672,1826.723633 
	C3401.900879,1813.552612 3403.048096,1800.404053 3403.896484,1784.683472 
	C3403.923584,1782.121094 3403.949707,1780.149658 3403.949707,1780.149658 
	C3403.968994,1779.386108 3403.988525,1778.622681 3405.568848,1776.661133 
	C3410.083496,1775.289429 3413.036865,1775.115601 3415.990234,1774.941895 
z"/>
<path fill="#171717" opacity="1.000000" stroke="none" 
	d="
M3528.790039,2345.839355 
	C3528.816406,2347.648438 3526.865234,2348.049561 3524.956055,2346.846924 
	C3511.548096,2334.301758 3497.078369,2336.100586 3482.812500,2336.155762 
	C3473.742188,2336.190674 3468.493408,2340.642090 3465.008545,2348.276855 
	C3463.920410,2348.126221 3462.832031,2347.975830 3460.114502,2347.579590 
	C3461.959229,2340.812988 3464.078125,2334.068604 3464.411133,2326.490479 
	C3464.875977,2315.923340 3466.430908,2305.404053 3467.507812,2294.978027 
	C3484.207275,2285.674072 3500.504883,2287.592773 3516.796875,2291.768799 
	C3521.722168,2293.031250 3524.099854,2297.361572 3524.619385,2302.357178 
	C3526.063477,2316.241699 3527.390381,2330.138428 3528.790039,2345.839355 
z"/>
<path fill="#FBFBFA" opacity="1.000000" stroke="none" 
	d="
M3651.987305,1843.144043 
	C3648.985107,1859.200928 3646.220947,1861.323608 3634.052490,1858.791382 
	C3628.888428,1857.716553 3623.708496,1856.707764 3618.513428,1855.795654 
	C3609.966797,1854.294800 3603.732910,1850.095093 3600.930664,1840.188721 
	C3605.635254,1826.256714 3614.514648,1812.308472 3612.085205,1797.153320 
	C3616.887695,1791.286255 3621.327881,1792.056641 3626.015137,1793.276489 
	C3642.650391,1797.606323 3648.662842,1810.442139 3651.474854,1825.488525 
	C3652.439209,1830.649658 3651.867188,1836.097778 3651.987305,1843.144043 
z"/>
<path fill="#FBFBFA" opacity="1.000000" stroke="none" 
	d="
M3431.920166,2524.189453 
	C3438.072998,2523.207031 3444.042480,2523.716064 3451.282715,2526.335938 
	C3453.553711,2537.009521 3455.855713,2544.387451 3466.699951,2543.990967 
	C3466.919189,2545.799805 3467.138428,2547.608398 3466.932373,2550.728271 
	C3463.926514,2552.374756 3461.345703,2552.710205 3458.676025,2553.057129 
	C3457.735107,2555.173828 3456.560547,2556.845703 3456.248779,2558.665527 
	C3452.621582,2579.843018 3431.435791,2584.056885 3414.982422,2572.503662 
	C3411.791260,2570.262451 3408.832520,2567.291748 3406.669922,2564.053955 
	C3397.824463,2550.813232 3397.379639,2544.441162 3412.453125,2537.775391 
	C3417.283447,2535.639404 3422.303223,2533.859131 3426.909912,2531.322998 
	C3428.939209,2530.206055 3430.153076,2527.607422 3431.920166,2524.189453 
z"/>
<path fill="#FBFBFA" opacity="1.000000" stroke="none" 
	d="
M3292.205078,3342.609863 
	C3283.876953,3339.544922 3282.961182,3333.615967 3284.823730,3327.615967 
	C3287.178711,3320.029541 3290.711426,3312.801758 3299.147461,3309.074707 
	C3306.033203,3312.057861 3313.240967,3315.021484 3320.295898,3318.312256 
	C3323.240723,3319.686279 3326.020264,3321.552734 3328.587402,3323.562256 
	C3331.744873,3326.034424 3331.026367,3332.206299 3327.175049,3333.480469 
	C3322.916992,3334.888916 3318.232910,3336.115479 3313.850586,3335.801514 
	C3305.958984,3335.235840 3299.776367,3338.426758 3292.205078,3342.609863 
z"/>
<path fill="#FBFBFA" opacity="1.000000" stroke="none" 
	d="
M3690.439453,1589.967285 
	C3699.419922,1600.940796 3695.397705,1612.414062 3695.201416,1623.342041 
	C3695.156494,1625.848389 3691.832764,1628.295898 3690.468262,1630.156860 
	C3683.978760,1629.977417 3681.988037,1625.589355 3681.664307,1622.212036 
	C3680.727539,1612.440063 3680.520020,1602.527344 3681.040771,1592.723877 
	C3681.229736,1589.161743 3685.454346,1588.446533 3690.439453,1589.967285 
z"/>
<path fill="#FBFBFA" opacity="1.000000" stroke="none" 
	d="
M3559.833740,3068.517334 
	C3559.126709,3073.201416 3559.157715,3076.993652 3557.310303,3079.243164 
	C3555.578125,3081.351807 3551.846680,3082.818359 3549.015869,3082.784912 
	C3545.009521,3082.737793 3544.004395,3078.800293 3544.289307,3075.492920 
	C3544.614990,3071.708984 3545.277100,3067.702148 3546.963135,3064.386963 
	C3547.896729,3062.551270 3551.138184,3061.195557 3553.486816,3060.930664 
	C3557.373291,3060.491943 3559.129883,3063.393799 3559.833740,3068.517334 
z"/>
<path fill="#FBFBFA" opacity="1.000000" stroke="none" 
	d="
M3627.943848,2758.403320 
	C3627.274658,2761.707764 3627.168213,2764.299316 3625.903809,2765.131592 
	C3623.412354,2766.771729 3621.278320,2765.280029 3619.702393,2762.780273 
	C3616.814941,2758.199463 3615.179688,2753.346436 3616.765137,2748.039307 
	C3617.938965,2744.111572 3620.251953,2741.112061 3626.602783,2742.647461 
	C3627.032959,2747.085449 3627.508301,2751.990234 3627.943848,2758.403320 
z"/>
<path fill="#FBFBFA" opacity="1.000000" stroke="none" 
	d="
M3284.825439,1435.301025 
	C3285.151367,1438.608765 3284.767822,1442.651978 3284.083740,1442.703491 
	C3280.410645,1442.979858 3276.380371,1442.985107 3273.024414,1441.673828 
	C3270.022949,1440.500977 3268.322021,1437.191650 3270.003174,1433.590820 
	C3271.524658,1430.332153 3274.323975,1428.446533 3277.800781,1429.664307 
	C3280.105713,1430.471680 3281.935059,1432.636963 3284.825439,1435.301025 
z"/>
<path fill="#FBFBFA" opacity="1.000000" stroke="none" 
	d="
M3402.953857,1780.037842 
	C3403.949707,1780.149658 3403.923584,1782.121094 3403.547607,1783.032227 
	C3402.134766,1783.552246 3401.311035,1782.894165 3400.370117,1781.238770 
	C3400.679443,1780.314209 3401.318604,1780.120117 3402.953857,1780.037842 
z"/>
<path fill="#E0E0DD" opacity="1.000000" stroke="none" 
	d="
M3468.646484,3221.739746 
	C3467.160156,3223.768555 3465.446777,3223.960938 3462.440430,3224.156250 
	C3460.569092,3212.208252 3459.417725,3200.250977 3459.538574,3188.306885 
	C3459.753662,3166.997070 3460.737061,3145.694824 3461.396973,3124.389404 
	C3461.417725,3123.723145 3461.388184,3123.055176 3461.424805,3122.390381 
	C3462.495117,3103.042969 3465.684326,3099.968506 3485.730957,3099.436768 
	C3494.390137,3099.207275 3503.065186,3099.035400 3511.717041,3099.323242 
	C3515.528564,3099.449951 3519.299561,3100.787842 3523.318359,3101.623535 
	C3525.942627,3120.665527 3529.825928,3138.866455 3527.026367,3158.693848 
	C3523.024414,3159.356934 3519.321045,3160.439941 3515.600830,3160.499756 
	C3503.609131,3160.693115 3491.610107,3160.407471 3479.616211,3160.531006 
	C3475.740234,3160.570801 3471.871338,3161.304443 3467.335693,3161.792236 
	C3465.212646,3181.695068 3466.051270,3200.803467 3468.646484,3221.739746 
z"/>
<path fill="#F8F7F5" opacity="1.000000" stroke="none" 
	d="
M3502.522217,3227.887695 
	C3504.444092,3230.158203 3504.246338,3233.120605 3505.422607,3233.841309 
	C3515.780762,3240.189453 3516.049072,3251.141602 3518.350586,3261.143799 
	C3518.926025,3263.645020 3519.759766,3266.682373 3518.883301,3268.820801 
	C3514.692871,3279.045654 3516.456299,3289.677979 3515.983643,3300.157227 
	C3515.492188,3311.054932 3510.812012,3317.821045 3502.682129,3319.545654 
	C3493.139893,3321.569336 3483.854248,3317.768311 3478.919678,3309.437500 
	C3474.864258,3302.590088 3471.605957,3295.533691 3471.907959,3287.116211 
	C3472.310547,3275.896973 3471.840088,3264.649414 3472.051025,3253.419678 
	C3472.300293,3240.130615 3472.480713,3240.241943 3485.474609,3235.637207 
	C3487.695801,3234.850342 3489.428955,3232.687012 3491.690430,3229.717285 
	C3495.008789,3228.030029 3498.024414,3227.785156 3502.522217,3227.887695 
z"/>
<path fill="#909090" opacity="1.000000" stroke="none" 
	d="
M3527.760254,3210.680176 
	C3525.612061,3212.018555 3523.957520,3211.569092 3521.071045,3211.494629 
	C3518.803223,3181.673828 3519.048340,3179.972168 3525.857178,3170.453857 
	C3526.571045,3171.328125 3527.855225,3172.167480 3527.871826,3173.031006 
	C3528.100830,3184.982910 3528.156006,3196.937988 3527.760254,3210.680176 
z"/>
<path fill="#EEEEED" opacity="1.000000" stroke="none" 
	d="
M3465.041260,2350.049805 
	C3468.493408,2340.642090 3473.742188,2336.190674 3482.812500,2336.155762 
	C3497.078369,2336.100586 3511.548096,2334.301758 3523.959961,2346.843262 
	C3524.894287,2357.324707 3524.144775,2366.685059 3525.067871,2375.877197 
	C3529.330811,2418.326172 3525.486572,2460.802734 3526.033447,2503.256348 
	C3526.041748,2503.917480 3525.941162,2504.580078 3525.886963,2505.241699 
	C3524.199219,2525.898682 3521.935303,2527.688232 3501.550781,2526.036621 
	C3492.966553,2525.341309 3484.302002,2525.677490 3475.706543,2525.074951 
	C3467.729248,2524.515869 3463.657227,2520.845947 3462.354248,2512.903320 
	C3461.501221,2507.703857 3461.434814,2502.335205 3461.434814,2497.042480 
	C3461.434570,2462.519531 3461.235596,2427.991943 3461.778809,2393.476318 
	C3461.997559,2379.577881 3463.924316,2365.706543 3465.041260,2350.049805 
z"/>
<path fill="#171717" opacity="1.000000" stroke="none" 
	d="
M3511.899902,2551.105713 
	C3511.130127,2560.938965 3505.235107,2565.639648 3499.270508,2569.757080 
	C3491.183105,2575.340332 3481.261963,2570.355469 3480.153564,2560.634521 
	C3479.928467,2558.659912 3480.078369,2556.645508 3479.967285,2554.654297 
	C3479.026611,2537.769775 3485.408936,2533.487305 3504.318604,2536.947510 
	C3510.350342,2538.051270 3511.947021,2543.739258 3511.899902,2551.105713 
z"/>
<path fill="#FEFEFE" opacity="1.000000" stroke="none" 
	d="
M3467.203125,2542.536621 
	C3455.855713,2544.387451 3453.553711,2537.009521 3452.682373,2526.890869 
	C3455.784424,2525.498779 3458.757080,2525.662842 3463.178955,2527.686035 
	C3465.262695,2530.649414 3466.165039,2531.453369 3467.335205,2531.956787 
	C3467.458984,2534.998779 3467.582520,2538.040527 3467.203125,2542.536621 
z"/>
<path fill="#FBFBFA" opacity="1.000000" stroke="none" 
	d="
M3467.572998,2530.811523 
	C3466.165039,2531.453369 3465.262695,2530.649414 3464.307129,2528.683594 
	C3465.260986,2528.436768 3466.535889,2529.051514 3467.572998,2530.811523 
z"/>
<path fill="#0B0B0B" opacity="1.000000" stroke="none" 
	d="
M3519.115967,2084.409912 
	C3521.119873,2084.742432 3522.257812,2085.478760 3523.875977,2087.125488 
	C3523.146973,2090.619629 3521.371826,2091.122314 3517.512207,2088.666992 
	C3516.424316,2086.589355 3517.171631,2085.579102 3519.115967,2084.409912 
z"/>
<path fill="#EEEEED" opacity="1.000000" stroke="none" 
	d="
M3526.849121,1810.761108 
	C3517.433350,1810.135620 3516.734619,1819.213013 3512.196045,1823.118774 
	C3502.111084,1824.695557 3492.441650,1824.967407 3483.294434,1819.648560 
	C3471.752686,1812.937134 3469.907471,1804.184204 3473.440186,1790.713745 
	C3474.508789,1786.639648 3478.410889,1784.948486 3482.609375,1784.235352 
	C3489.560303,1783.054810 3497.319580,1786.163452 3504.359375,1778.916626 
	C3508.050781,1777.465576 3510.792480,1777.477417 3514.842773,1779.723511 
	C3517.484863,1787.074097 3519.107178,1792.137573 3520.056885,1797.324097 
	C3520.769043,1801.214111 3523.016113,1802.984253 3526.440674,1803.931396 
	C3526.718750,1805.761719 3526.996826,1807.591919 3526.849121,1810.761108 
z"/>
<path fill="#FBFBFA" opacity="1.000000" stroke="none" 
	d="
M3526.835693,1802.316895 
	C3523.016113,1802.984253 3520.769043,1801.214111 3520.056885,1797.324097 
	C3519.107178,1792.137573 3517.484863,1787.074097 3516.025879,1780.441162 
	C3519.552734,1779.406372 3523.205078,1779.888428 3527.230713,1780.419678 
	C3527.230713,1787.865234 3527.230713,1794.283813 3526.835693,1802.316895 
z"/>
<path fill="#171717" opacity="1.000000" stroke="none" 
	d="
M3500.402832,2671.949707 
	C3514.149414,2675.187012 3515.152588,2676.129639 3515.877441,2684.933105 
	C3517.483398,2704.437500 3513.198242,2709.033203 3494.352783,2708.017578 
	C3483.364990,2707.425049 3477.915283,2701.985107 3480.383789,2691.612793 
	C3482.616699,2682.231201 3485.737061,2672.017334 3500.402832,2671.949707 
z"/>
<path fill="#F8F7F5" opacity="1.000000" stroke="none" 
	d="
M3500.501221,2852.676270 
	C3486.974854,2856.035645 3483.722900,2854.970215 3481.295166,2845.504883 
	C3478.854980,2835.989990 3477.372314,2826.189453 3476.060791,2816.434570 
	C3474.310791,2803.416992 3470.287354,2790.613281 3472.003906,2777.231201 
	C3473.593262,2764.842285 3474.967285,2752.420654 3476.913330,2740.088379 
	C3477.265137,2737.857910 3479.506104,2735.263916 3481.583008,2734.074463 
	C3495.262939,2726.239746 3511.428711,2734.660400 3511.811035,2750.297363 
	C3512.361572,2772.799316 3512.733643,2795.364014 3511.619141,2817.824219 
	C3511.041016,2829.475586 3508.714600,2841.451660 3500.501221,2852.676270 
z"/>
<path fill="#FEFEFE" opacity="1.000000" stroke="none" 
	d="
M3415.980469,1773.462891 
	C3413.036865,1775.115601 3410.083496,1775.289429 3405.642578,1775.517944 
	C3403.185303,1765.786255 3401.402100,1756.001343 3401.386475,1746.213379 
	C3401.316162,1702.652100 3401.751709,1659.090210 3402.593750,1613.736206 
	C3407.334717,1612.331421 3411.365234,1613.247925 3411.754150,1618.297485 
	C3412.159912,1623.561035 3411.756836,1628.882812 3412.047119,1634.160522 
	C3412.406494,1640.692017 3413.114990,1647.204346 3414.836426,1656.729736 
	C3415.918457,1676.180420 3417.830811,1692.958374 3415.163818,1708.973755 
	C3412.761475,1723.401611 3412.223389,1737.592896 3412.019531,1751.989258 
	C3413.336670,1758.654175 3414.653809,1765.319092 3415.980469,1773.462891 
z"/>
<path fill="#F8F7F5" opacity="1.000000" stroke="none" 
	d="
M3495.543945,2011.982422 
	C3491.845947,2011.939209 3489.796387,2012.195068 3487.893066,2011.780518 
	C3479.553223,2009.964478 3476.674805,2007.624512 3476.320801,2000.740723 
	C3475.439697,1983.604614 3474.808838,1966.360962 3480.486328,1949.822144 
	C3481.893311,1945.723999 3484.807861,1941.604370 3488.138916,1938.823486 
	C3494.173584,1933.785645 3503.516602,1935.450928 3506.836182,1942.464111 
	C3513.958252,1957.511963 3518.510254,1973.254883 3514.615234,1990.209839 
	C3513.879150,1993.413940 3512.461670,1996.514771 3512.114014,1999.744507 
	C3511.134766,2008.846436 3505.733398,2012.178345 3495.543945,2011.982422 
z"/>
<path fill="#F8F7F5" opacity="1.000000" stroke="none" 
	d="
M3413.485352,1752.160645 
	C3412.223389,1737.592896 3412.761475,1723.401611 3415.163818,1708.973755 
	C3417.830811,1692.958374 3415.918457,1676.180420 3416.000000,1657.867188 
	C3419.603271,1653.261108 3419.986328,1649.342163 3419.983154,1645.254517 
	C3419.973877,1633.256226 3420.562500,1621.223267 3419.832031,1609.270020 
	C3419.165283,1598.355103 3422.379639,1588.239014 3424.331787,1577.847656 
	C3425.520264,1571.522705 3429.446045,1567.291870 3436.838623,1564.813599 
	C3447.285889,1570.589844 3451.881592,1580.098389 3451.967285,1592.218506 
	C3452.071289,1606.882446 3451.998291,1621.547607 3451.999512,1636.212158 
	C3452.000977,1654.209595 3452.071289,1672.207520 3451.971924,1690.204468 
	C3451.917236,1700.144043 3452.555176,1710.038696 3449.008545,1719.826172 
	C3447.276611,1724.605591 3448.255859,1730.365723 3447.997803,1735.681519 
	C3447.804443,1739.666382 3448.192383,1743.794189 3447.275391,1747.606689 
	C3444.937988,1757.326050 3434.404297,1762.302856 3425.260010,1758.200928 
	C3421.668945,1756.590088 3418.378662,1754.308350 3413.485352,1752.160645 
z"/>
</svg>